SplineFontDB: 3.0
FontName: Chivo-Regular
FullName: Chivo Regular
FamilyName: Chivo
Weight: Normal
Copyright: Copyright (c) 2011-2014 by Omnibus-Type (www.omnibus-type.com omnibus.type@gmail.com), with Reserved Font Name 'Chivo'
UComments: "Disclaimer+AAoA +AAoA-Omnibus-Type give no warranty in relation to this font, and you use this+AAoA-at your own risk.+AAoA +AAoA-Omnibus-Type shall not be liable for any direct, indirect, consequential, or incidental damages (including damages from loss of business profits, business interruption, loss of business information, and the like) arising out of the use of or inability to use the fonts.+AAoA +AAoA +AAoA-If you have further questions, please contact us:+AAoA-omnibus.type@gmail.com" 

StartChar: .notdef
Encoding: 65536 -1 0
Width: 500
Flags: MW
HStem: 0 50<80 420 80 500> 650 50<80 80 80 420>
VStem: 0 50<95 95 95 605> 450 50<95 605 605 605>
LayerCount: 2
Fore
SplineSet
500 0 m 1,0,-1
 0 0 l 1,1,-1
 0 700 l 1,2,-1
 500 700 l 1,3,-1
 500 0 l 1,0,-1
80 650 m 1,4,-1
 250 395 l 1,5,-1
 420 650 l 1,6,-1
 80 650 l 1,4,-1
50 95 m 1,7,-1
 220 350 l 1,8,-1
 50 605 l 1,9,-1
 50 95 l 1,7,-1
280 350 m 1,10,-1
 450 95 l 1,11,-1
 450 605 l 1,12,-1
 280 350 l 1,10,-1
80 50 m 1,13,-1
 420 50 l 1,14,-1
 250 305 l 1,15,-1
 80 50 l 1,13,-1
EndSplineSet
EndChar

StartChar: A
Encoding: 65 65 1
Width: 652
GlyphClass: 2
Flags: MW
HStem: 149 89<191 450 191 484 156 450> 568 118<318 318 318 324>
VStem: 4 644<0 0>
LayerCount: 2
Fore
SplineSet
648 0 m 1,0,-1
 542 0 l 1,1,-1
 484 149 l 1,2,-1
 156 149 l 1,3,-1
 99 0 l 1,4,-1
 4 0 l 1,5,-1
 272 686 l 1,6,-1
 380 686 l 1,7,-1
 648 0 l 1,0,-1
318 568 m 1,8,-1
 191 238 l 1,9,-1
 450 238 l 1,10,-1
 324 568 l 1,11,-1
 318 568 l 1,8,-1
EndSplineSet
Substitution2: "Single Substitution lookup 5 subtable" ordfeminine
Substitution2: "'aalt' Access All Alternates lookup 0 subtable" ordfeminine
Position2: "'cpsp' Capital Spacing lookup 0 subtable" dx=5 dy=0 dh=10 dv=0
EndChar

StartChar: Aacute
Encoding: 193 193 2
Width: 652
GlyphClass: 2
Flags: MW
HStem: 149 89<191 450 191 484 156 450> 568 118<318 318 318 324> 750 145<292 476 292 476>
VStem: 4 644<0 0>
LayerCount: 2
Fore
SplineSet
477 892 m 1,0,-1
 361 750 l 1,1,-1
 292 750 l 1,2,-1
 386 895 l 1,3,-1
 476 895 l 1,4,-1
 477 892 l 1,0,-1
648 0 m 1,5,-1
 542 0 l 1,6,-1
 484 149 l 1,7,-1
 156 149 l 1,8,-1
 99 0 l 1,9,-1
 4 0 l 1,10,-1
 272 686 l 1,11,-1
 380 686 l 1,12,-1
 648 0 l 1,5,-1
318 568 m 1,13,-1
 191 238 l 1,14,-1
 450 238 l 1,15,-1
 324 568 l 1,16,-1
 318 568 l 1,13,-1
EndSplineSet
Position2: "'cpsp' Capital Spacing lookup 0 subtable" dx=5 dy=0 dh=10 dv=0
EndChar

StartChar: Abreve
Encoding: 258 258 3
Width: 652
GlyphClass: 2
Flags: MW
HStem: 149 89<191 450 191 484 156 450> 568 118<318 318 318 324> 788 62<294.5 356.5 294.5 373.5>
VStem: 4 644<0 0>
LayerCount: 2
Fore
SplineSet
451 912 m 1,0,-1
 519 912 l 1,1,2
 519 866 519 866 458.5 827 c 128,-1,3
 398 788 398 788 326 788 c 128,-1,4
 254 788 254 788 194 827 c 128,-1,5
 134 866 134 866 134 912 c 1,6,-1
 201 912 l 1,7,8
 209 885 209 885 244 867.5 c 128,-1,9
 279 850 279 850 325.5 850 c 0,10,11
 372 850 372 850 407.5 867.5 c 128,-1,12
 443 885 443 885 451 912 c 1,0,-1
648 0 m 1,13,-1
 542 0 l 1,14,-1
 484 149 l 1,15,-1
 156 149 l 1,16,-1
 99 0 l 1,17,-1
 4 0 l 1,18,-1
 272 686 l 1,19,-1
 380 686 l 1,20,-1
 648 0 l 1,13,-1
318 568 m 1,21,-1
 191 238 l 1,22,-1
 450 238 l 1,23,-1
 324 568 l 1,24,-1
 318 568 l 1,21,-1
EndSplineSet
EndChar

StartChar: Acircumflex
Encoding: 194 194 4
Width: 652
GlyphClass: 2
Flags: MW
HStem: 149 89<191 450 191 484 156 450> 568 118<318 318 318 324> 750 145<149 363 149 363 285 498 285 418>
VStem: 4 644<0 0>
LayerCount: 2
Fore
SplineSet
498 750 m 1,0,-1
 418 750 l 1,1,-1
 324 839 l 1,2,-1
 229 750 l 1,3,-1
 149 750 l 1,4,-1
 285 895 l 1,5,-1
 363 895 l 1,6,-1
 498 750 l 1,0,-1
648 0 m 1,7,-1
 542 0 l 1,8,-1
 484 149 l 1,9,-1
 156 149 l 1,10,-1
 99 0 l 1,11,-1
 4 0 l 1,12,-1
 272 686 l 1,13,-1
 380 686 l 1,14,-1
 648 0 l 1,7,-1
318 568 m 1,15,-1
 191 238 l 1,16,-1
 450 238 l 1,17,-1
 324 568 l 1,18,-1
 318 568 l 1,15,-1
EndSplineSet
Position2: "'cpsp' Capital Spacing lookup 0 subtable" dx=5 dy=0 dh=10 dv=0
EndChar

StartChar: Adieresis
Encoding: 196 196 5
Width: 652
GlyphClass: 2
Flags: MW
HStem: 149 89<191 450 191 484 156 450> 568 118<318 318 318 324> 749 98<184 274 184 274 372 463>
VStem: 184 90<749 847> 372 91<749 847>
LayerCount: 2
Fore
SplineSet
274 749 m 1,0,-1
 184 749 l 1,1,-1
 184 847 l 1,2,-1
 274 847 l 1,3,-1
 274 749 l 1,0,-1
463 749 m 1,4,-1
 372 749 l 1,5,-1
 372 847 l 1,6,-1
 463 847 l 1,7,-1
 463 749 l 1,4,-1
648 0 m 1,8,-1
 542 0 l 1,9,-1
 484 149 l 1,10,-1
 156 149 l 1,11,-1
 99 0 l 1,12,-1
 4 0 l 1,13,-1
 272 686 l 1,14,-1
 380 686 l 1,15,-1
 648 0 l 1,8,-1
318 568 m 1,16,-1
 191 238 l 1,17,-1
 450 238 l 1,18,-1
 324 568 l 1,19,-1
 318 568 l 1,16,-1
EndSplineSet
Position2: "'cpsp' Capital Spacing lookup 0 subtable" dx=5 dy=0 dh=10 dv=0
EndChar

StartChar: Agrave
Encoding: 192 192 6
Width: 652
GlyphClass: 2
Flags: MW
HStem: 149 89<191 450 191 484 156 450> 568 118<318 318 318 324> 750 145<176 360 176 290>
VStem: 4 644<0 0>
LayerCount: 2
Fore
SplineSet
360 750 m 1,0,-1
 290 750 l 1,1,-1
 175 892 l 1,2,-1
 176 895 l 1,3,-1
 265 895 l 1,4,-1
 360 750 l 1,0,-1
648 0 m 1,5,-1
 542 0 l 1,6,-1
 484 149 l 1,7,-1
 156 149 l 1,8,-1
 99 0 l 1,9,-1
 4 0 l 1,10,-1
 272 686 l 1,11,-1
 380 686 l 1,12,-1
 648 0 l 1,5,-1
318 568 m 1,13,-1
 191 238 l 1,14,-1
 450 238 l 1,15,-1
 324 568 l 1,16,-1
 318 568 l 1,13,-1
EndSplineSet
Position2: "'cpsp' Capital Spacing lookup 0 subtable" dx=5 dy=0 dh=10 dv=0
EndChar

StartChar: Amacron
Encoding: 256 256 7
Width: 652
GlyphClass: 2
Flags: MW
HStem: 149 89<191 450 191 484 156 450> 568 118<318 318 318 324> 837 74<167 485 167 485>
VStem: 4 644<0 0>
LayerCount: 2
Fore
SplineSet
485 837 m 1,0,-1
 167 837 l 1,1,-1
 167 911 l 1,2,-1
 485 911 l 1,3,-1
 485 837 l 1,0,-1
648 0 m 1,4,-1
 542 0 l 1,5,-1
 484 149 l 1,6,-1
 156 149 l 1,7,-1
 99 0 l 1,8,-1
 4 0 l 1,9,-1
 272 686 l 1,10,-1
 380 686 l 1,11,-1
 648 0 l 1,4,-1
318 568 m 1,12,-1
 191 238 l 1,13,-1
 450 238 l 1,14,-1
 324 568 l 1,15,-1
 318 568 l 1,12,-1
EndSplineSet
EndChar

StartChar: Aogonek
Encoding: 260 260 8
Width: 652
GlyphClass: 2
Flags: MW
HStem: -143 47<610.5 632> 149 89<191 450 191 484 156 450> 568 118<318 324 318 318>
VStem: 519 62<-70.5 -54.5>
LayerCount: 2
Fore
SplineSet
692 -82 m 1,0,-1
 705 -119 l 1,1,2
 665 -143 665 -143 616 -143 c 0,3,4
 519 -143 519 -143 519 -69 c 0,5,6
 519 -36 519 -36 573 0 c 1,7,-1
 542 0 l 1,8,-1
 484 149 l 1,9,-1
 156 149 l 1,10,-1
 99 0 l 1,11,-1
 4 0 l 1,12,-1
 272 686 l 1,13,-1
 380 686 l 1,14,-1
 648 0 l 1,15,-1
 627 0 l 1,16,17
 610 -10 610 -10 595.5 -26 c 128,-1,18
 581 -42 581 -42 581 -58 c 0,19,20
 581 -96 581 -96 625 -96 c 0,21,22
 645 -96 645 -96 692 -82 c 1,0,-1
450 238 m 1,23,-1
 324 568 l 1,24,-1
 318 568 l 1,25,-1
 191 238 l 1,26,-1
 450 238 l 1,23,-1
EndSplineSet
EndChar

StartChar: Aring
Encoding: 197 197 9
Width: 652
GlyphClass: 2
Flags: MW
HStem: 149 89<191 450 191 484 156 450> 568 118<318 318 318 324> 725 47<310.5 341.5 310.5 354> 879 47<310.5 341.5>
VStem: 225 45<809.5 840.5 809.5 853> 382 45<810.5 840.5>
LayerCount: 2
Fore
SplineSet
254.5 896.5 m 128,-1,1
 284 926 284 926 324.5 926 c 128,-1,2
 365 926 365 926 396 896.5 c 128,-1,3
 427 867 427 867 427 825.5 c 128,-1,4
 427 784 427 784 397.5 754.5 c 128,-1,5
 368 725 368 725 326.5 725 c 128,-1,6
 285 725 285 725 255 754 c 128,-1,7
 225 783 225 783 225 825 c 128,-1,0
 225 867 225 867 254.5 896.5 c 128,-1,1
326 879 m 128,-1,9
 303 879 303 879 286.5 863.5 c 128,-1,10
 270 848 270 848 270 825 c 128,-1,11
 270 802 270 802 286 787 c 128,-1,12
 302 772 302 772 325.5 772 c 128,-1,13
 349 772 349 772 365.5 787.5 c 128,-1,14
 382 803 382 803 382 825.5 c 128,-1,15
 382 848 382 848 365.5 863.5 c 128,-1,8
 349 879 349 879 326 879 c 128,-1,9
648 0 m 1,16,-1
 542 0 l 1,17,-1
 484 149 l 1,18,-1
 156 149 l 1,19,-1
 99 0 l 1,20,-1
 4 0 l 1,21,-1
 272 686 l 1,22,-1
 380 686 l 1,23,-1
 648 0 l 1,16,-1
318 568 m 1,24,-1
 191 238 l 1,25,-1
 450 238 l 1,26,-1
 324 568 l 1,27,-1
 318 568 l 1,24,-1
EndSplineSet
Position2: "'cpsp' Capital Spacing lookup 0 subtable" dx=5 dy=0 dh=10 dv=0
EndChar

StartChar: Atilde
Encoding: 195 195 10
Width: 652
GlyphClass: 2
Flags: MW
HStem: 149 89<191 450 191 484 156 450> 568 118<318 318 318 324> 750 69<403.5 426.5 403.5 438.5> 784 70<221 250.5>
VStem: 4 644<0 0>
LayerCount: 2
Fore
SplineSet
467 854 m 1,0,-1
 517 854 l 1,1,2
 517 809 517 809 486 779.5 c 128,-1,3
 455 750 455 750 413 750 c 128,-1,4
 371 750 371 750 347 757 c 128,-1,5
 323 764 323 764 307 769 c 0,6,7
 279.266666667 777.666666667 279.266666667 777.666666667 267.233333333 780.833333333 c 128,-1,8
 255.2 784 255.2 784 236 784 c 0,9,10
 191 784 191 784 181 750 c 1,11,-1
 131 750 l 1,12,13
 131 792 131 792 161 823 c 128,-1,14
 191 854 191 854 233.5 854 c 128,-1,15
 276 854 276 854 332.5 836.5 c 128,-1,16
 389 819 389 819 412 819 c 0,17,18
 456 819 456 819 467 854 c 1,0,-1
648 0 m 1,19,-1
 542 0 l 1,20,-1
 484 149 l 1,21,-1
 156 149 l 1,22,-1
 99 0 l 1,23,-1
 4 0 l 1,24,-1
 272 686 l 1,25,-1
 380 686 l 1,26,-1
 648 0 l 1,19,-1
318 568 m 1,27,-1
 191 238 l 1,28,-1
 450 238 l 1,29,-1
 324 568 l 1,30,-1
 318 568 l 1,27,-1
EndSplineSet
Position2: "'cpsp' Capital Spacing lookup 0 subtable" dx=5 dy=0 dh=10 dv=0
EndChar

StartChar: AE
Encoding: 198 198 11
Width: 983
GlyphClass: 2
Flags: MW
HStem: 0 89<627 925 627 939 544 925> 149 89<227 486 227 507 179 486> 306 89<573 887 573 573> 597 89<501 919 501 501>
VStem: 7 932<0 0>
LayerCount: 2
Fore
SplineSet
919 597 m 1,0,-1
 501 597 l 1,1,-1
 551 395 l 1,2,-1
 887 395 l 1,3,-1
 887 306 l 1,4,-1
 573 306 l 1,5,-1
 627 89 l 1,6,-1
 925 89 l 1,7,-1
 939 0 l 1,8,-1
 544 0 l 1,9,-1
 507 149 l 1,10,-1
 179 149 l 1,11,-1
 101 0 l 1,12,-1
 7 0 l 1,13,-1
 371 686 l 1,14,-1
 932 686 l 1,15,-1
 919 597 l 1,0,-1
400 568 m 1,16,-1
 227 238 l 1,17,-1
 486 238 l 1,18,-1
 406 568 l 1,19,-1
 400 568 l 1,16,-1
EndSplineSet
Position2: "'cpsp' Capital Spacing lookup 0 subtable" dx=5 dy=0 dh=10 dv=0
EndChar

StartChar: B
Encoding: 66 66 12
Width: 651
GlyphClass: 2
Flags: MW
HStem: 0 89<190 386 386 402> 305 89<190 376 190 376 376 386> 597 89<190 190 190 376>
VStem: 92 98<89 305 394 597> 478 98<478.5 523> 494 98<167 227>
LayerCount: 2
Fore
SplineSet
92 686 m 1,0,-1
 396 686 l 2,1,2
 471 686 471 686 523.5 637 c 128,-1,3
 576 588 576 588 576 518 c 0,4,5
 576 392 576 392 456 358 c 1,6,-1
 456 353 l 1,7,8
 515 344 515 344 553.5 300 c 128,-1,9
 592 256 592 256 592 180.5 c 0,10,11
 592 105 592 105 535 52.5 c 128,-1,12
 478 0 478 0 402 0 c 2,13,-1
 92 0 l 1,14,-1
 92 686 l 1,0,-1
190 597 m 1,15,-1
 190 394 l 1,16,-1
 376 394 l 2,17,18
 416 394 416 394 447 423 c 128,-1,19
 478 452 478 452 478 494.5 c 0,20,21
 478 537 478 537 448 567 c 128,-1,22
 418 597 418 597 376 597 c 2,23,-1
 190 597 l 1,15,-1
190 305 m 1,24,-1
 190 89 l 1,25,-1
 386 89 l 2,26,27
 431 89 431 89 462.5 120.5 c 128,-1,28
 494 152 494 152 494 197 c 128,-1,29
 494 242 494 242 462.5 273.5 c 128,-1,30
 431 305 431 305 386 305 c 2,31,-1
 190 305 l 1,24,-1
EndSplineSet
Position2: "'cpsp' Capital Spacing lookup 0 subtable" dx=5 dy=0 dh=10 dv=0
EndChar

StartChar: C
Encoding: 67 67 13
Width: 663
GlyphClass: 2
Flags: MW
HStem: -10 89<282 399 282 425> 607 89<284.5 398.5>
VStem: 62 98<298 388 227 484> 515 94<204.5 261>
AnchorPoint: "Bottom" 332 0 basechar 0
LayerCount: 2
Fore
SplineSet
136.5 614 m 128,-1,1
 211 696 211 696 338 696 c 128,-1,2
 465 696 465 696 537 623 c 128,-1,3
 609 550 609 550 609 423 c 1,4,-1
 511 423 l 1,5,6
 511 510 511 510 468 558.5 c 128,-1,7
 425 607 425 607 339.5 607 c 128,-1,8
 254 607 254 607 207 551.5 c 128,-1,9
 160 496 160 496 160 388 c 2,10,-1
 160 298 l 2,11,12
 160 191 160 191 206 135 c 128,-1,13
 252 79 252 79 339 79 c 128,-1,14
 426 79 426 79 470.5 127 c 128,-1,15
 515 175 515 175 515 261 c 1,16,-1
 609 261 l 1,17,18
 609 136 609 136 537.5 63 c 128,-1,19
 466 -10 466 -10 338.5 -10 c 128,-1,20
 211 -10 211 -10 136.5 71.5 c 128,-1,21
 62 153 62 153 62 298 c 2,22,-1
 62 388 l 2,23,0
 62 532 62 532 136.5 614 c 128,-1,1
EndSplineSet
Position2: "'cpsp' Capital Spacing lookup 0 subtable" dx=5 dy=0 dh=10 dv=0
EndChar

StartChar: Cacute
Encoding: 262 262 14
Width: 663
GlyphClass: 2
Flags: MW
HStem: -10 89<282 399 282 425> 607 89<284.5 398.5> 750 145<279 463 279 463>
VStem: 62 98<298 388 227 484> 515 94<204.5 261>
AnchorPoint: "Bottom" 332 0 basechar 0
LayerCount: 2
Fore
SplineSet
464 892 m 1,0,-1
 348 750 l 1,1,-1
 279 750 l 1,2,-1
 373 895 l 1,3,-1
 463 895 l 1,4,-1
 464 892 l 1,0,-1
136.5 614 m 128,-1,6
 211 696 211 696 338 696 c 128,-1,7
 465 696 465 696 537 623 c 128,-1,8
 609 550 609 550 609 423 c 1,9,-1
 511 423 l 1,10,11
 511 510 511 510 468 558.5 c 128,-1,12
 425 607 425 607 339.5 607 c 128,-1,13
 254 607 254 607 207 551.5 c 128,-1,14
 160 496 160 496 160 388 c 2,15,-1
 160 298 l 2,16,17
 160 191 160 191 206 135 c 128,-1,18
 252 79 252 79 339 79 c 128,-1,19
 426 79 426 79 470.5 127 c 128,-1,20
 515 175 515 175 515 261 c 1,21,-1
 609 261 l 1,22,23
 609 136 609 136 537.5 63 c 128,-1,24
 466 -10 466 -10 338.5 -10 c 128,-1,25
 211 -10 211 -10 136.5 71.5 c 128,-1,26
 62 153 62 153 62 298 c 2,27,-1
 62 388 l 2,28,5
 62 532 62 532 136.5 614 c 128,-1,6
EndSplineSet
EndChar

StartChar: Ccaron
Encoding: 268 268 15
Width: 663
GlyphClass: 2
Flags: MW
HStem: -10 89<282 399 282 425> 607 89<284.5 398.5> 750 145<158 372 158 294>
VStem: 62 98<298 388 227 484> 515 94<204.5 261>
AnchorPoint: "Bottom" 332 0 basechar 0
LayerCount: 2
Fore
SplineSet
372 750 m 1,0,-1
 294 750 l 1,1,-1
 158 895 l 1,2,-1
 238 895 l 1,3,-1
 333 806 l 1,4,-1
 427 895 l 1,5,-1
 507 895 l 1,6,-1
 372 750 l 1,0,-1
136.5 614 m 128,-1,8
 211 696 211 696 338 696 c 128,-1,9
 465 696 465 696 537 623 c 128,-1,10
 609 550 609 550 609 423 c 1,11,-1
 511 423 l 1,12,13
 511 510 511 510 468 558.5 c 128,-1,14
 425 607 425 607 339.5 607 c 128,-1,15
 254 607 254 607 207 551.5 c 128,-1,16
 160 496 160 496 160 388 c 2,17,-1
 160 298 l 2,18,19
 160 191 160 191 206 135 c 128,-1,20
 252 79 252 79 339 79 c 128,-1,21
 426 79 426 79 470.5 127 c 128,-1,22
 515 175 515 175 515 261 c 1,23,-1
 609 261 l 1,24,25
 609 136 609 136 537.5 63 c 128,-1,26
 466 -10 466 -10 338.5 -10 c 128,-1,27
 211 -10 211 -10 136.5 71.5 c 128,-1,28
 62 153 62 153 62 298 c 2,29,-1
 62 388 l 2,30,7
 62 532 62 532 136.5 614 c 128,-1,8
EndSplineSet
EndChar

StartChar: Ccedilla
Encoding: 199 199 16
Width: 663
GlyphClass: 2
Flags: MW
HStem: -197 51<322.5 342.5 309.5 370> -60 43<314 335 314 338> -10 89<282 399 282 425> 607 89<284.5 398.5>
VStem: 62 98<298 388 227 484> 387 62<-116 -87.5> 515 94<204.5 261>
LayerCount: 2
Fore
SplineSet
136.5 614 m 128,-1,1
 211 696 211 696 338 696 c 128,-1,2
 465 696 465 696 537 623 c 128,-1,3
 609 550 609 550 609 423 c 1,4,-1
 511 423 l 1,5,6
 511 510 511 510 468 558.5 c 128,-1,7
 425 607 425 607 339.5 607 c 128,-1,8
 254 607 254 607 207 551.5 c 128,-1,9
 160 496 160 496 160 388 c 2,10,-1
 160 298 l 2,11,12
 160 191 160 191 206 135 c 128,-1,13
 252 79 252 79 339 79 c 128,-1,14
 426 79 426 79 470.5 127 c 128,-1,15
 515 175 515 175 515 261 c 1,16,-1
 609 261 l 1,17,18
 609 136 609 136 537.5 63 c 128,-1,19
 466 -10 466 -10 338.5 -10 c 128,-1,20
 211 -10 211 -10 136.5 71.5 c 128,-1,21
 62 153 62 153 62 298 c 2,22,-1
 62 388 l 2,23,0
 62 532 62 532 136.5 614 c 128,-1,1
314 -17 m 1,24,-1
 338 -17 l 2,25,26
 449 -17 449 -17 449 -106 c 0,27,28
 449 -147 449 -147 417.5 -172 c 128,-1,29
 386 -197 386 -197 344 -197 c 0,30,31
 279 -197 279 -197 239 -175 c 1,32,-1
 248 -126 l 1,33,34
 290 -146 290 -146 320 -146 c 0,35,36
 387 -146 387 -146 387 -101 c 0,37,38
 387 -82 387 -82 372 -71 c 128,-1,39
 357 -60 357 -60 335 -60 c 2,40,-1
 314 -60 l 1,41,-1
 314 -17 l 1,24,-1
EndSplineSet
Position2: "'cpsp' Capital Spacing lookup 0 subtable" dx=5 dy=0 dh=10 dv=0
EndChar

StartChar: D
Encoding: 68 68 17
Width: 675
GlyphClass: 2
Flags: MW
HStem: 0 89<190 330 190 330> 597 89<190 190 190 330>
VStem: 92 98<89 597 89 686 89 686> 516 98<308 378 213.5 448.5>
LayerCount: 2
Fore
SplineSet
92 686 m 1,0,-1
 330 686 l 2,1,2
 460 686 460 686 537 603 c 128,-1,3
 614 520 614 520 614 378 c 2,4,-1
 614 308 l 2,5,6
 614 166 614 166 537 83 c 128,-1,7
 460 0 460 0 330 0 c 2,8,-1
 92 0 l 1,9,-1
 92 686 l 1,0,-1
190 597 m 1,10,-1
 190 89 l 1,11,-1
 330 89 l 2,12,13
 419 89 419 89 467.5 144.5 c 128,-1,14
 516 200 516 200 516 308 c 2,15,-1
 516 378 l 2,16,17
 516 484 516 484 468.5 540.5 c 128,-1,18
 421 597 421 597 330 597 c 2,19,-1
 190 597 l 1,10,-1
EndSplineSet
Position2: "'cpsp' Capital Spacing lookup 0 subtable" dx=5 dy=0 dh=10 dv=0
EndChar

StartChar: Eth
Encoding: 208 208 18
Width: 681
GlyphClass: 2
Flags: MW
HStem: 0 89<196 336 196 336> 310 65<5 98 5 98 196 341> 597 89<196 196 196 336>
VStem: 98 98<89 310 89 310 89 310 375 597> 522 98<308 378 213.5 448.5>
LayerCount: 2
Fore
SplineSet
98 686 m 1,0,-1
 336 686 l 2,1,2
 466 686 466 686 543 603 c 128,-1,3
 620 520 620 520 620 378 c 2,4,-1
 620 308 l 2,5,6
 620 166 620 166 543 83 c 128,-1,7
 466 0 466 0 336 0 c 2,8,-1
 98 0 l 1,9,-1
 98 310 l 1,10,-1
 5 310 l 1,11,-1
 5 375 l 1,12,-1
 98 375 l 1,13,-1
 98 686 l 1,0,-1
196 597 m 1,14,-1
 196 375 l 1,15,-1
 341 375 l 1,16,-1
 341 310 l 1,17,-1
 196 310 l 1,18,-1
 196 89 l 1,19,-1
 336 89 l 2,20,21
 425 89 425 89 473.5 144.5 c 128,-1,22
 522 200 522 200 522 308 c 2,23,-1
 522 378 l 2,24,25
 522 484 522 484 474.5 540.5 c 128,-1,26
 427 597 427 597 336 597 c 2,27,-1
 196 597 l 1,14,-1
EndSplineSet
Position2: "'cpsp' Capital Spacing lookup 0 subtable" dx=5 dy=0 dh=10 dv=0
EndChar

StartChar: Dcaron
Encoding: 270 270 19
Width: 675
GlyphClass: 2
Flags: MW
HStem: 0 89<190 330 190 330> 597 89<190 190 190 330> 750 145<164 378 164 300>
VStem: 92 98<89 597 89 686 89 686> 516 98<308 378 213.5 448.5>
LayerCount: 2
Fore
SplineSet
378 750 m 1,0,-1
 300 750 l 1,1,-1
 164 895 l 1,2,-1
 244 895 l 1,3,-1
 339 806 l 1,4,-1
 433 895 l 1,5,-1
 513 895 l 1,6,-1
 378 750 l 1,0,-1
92 686 m 1,7,-1
 330 686 l 2,8,9
 460 686 460 686 537 603 c 128,-1,10
 614 520 614 520 614 378 c 2,11,-1
 614 308 l 2,12,13
 614 166 614 166 537 83 c 128,-1,14
 460 0 460 0 330 0 c 2,15,-1
 92 0 l 1,16,-1
 92 686 l 1,7,-1
190 597 m 1,17,-1
 190 89 l 1,18,-1
 330 89 l 2,19,20
 419 89 419 89 467.5 144.5 c 128,-1,21
 516 200 516 200 516 308 c 2,22,-1
 516 378 l 2,23,24
 516 484 516 484 468.5 540.5 c 128,-1,25
 421 597 421 597 330 597 c 2,26,-1
 190 597 l 1,17,-1
EndSplineSet
EndChar

StartChar: Dcroat
Encoding: 272 272 20
Width: 681
GlyphClass: 2
Flags: MW
HStem: 0 89<196 336 196 336> 310 65<5 98 5 98 196 341> 597 89<196 196 196 336>
VStem: 98 98<89 310 89 310 89 310 375 597> 522 98<308 378 213.5 448.5>
LayerCount: 2
Fore
SplineSet
98 686 m 1,0,-1
 336 686 l 2,1,2
 466 686 466 686 543 603 c 128,-1,3
 620 520 620 520 620 378 c 2,4,-1
 620 308 l 2,5,6
 620 166 620 166 543 83 c 128,-1,7
 466 0 466 0 336 0 c 2,8,-1
 98 0 l 1,9,-1
 98 310 l 1,10,-1
 5 310 l 1,11,-1
 5 375 l 1,12,-1
 98 375 l 1,13,-1
 98 686 l 1,0,-1
196 597 m 1,14,-1
 196 375 l 1,15,-1
 341 375 l 1,16,-1
 341 310 l 1,17,-1
 196 310 l 1,18,-1
 196 89 l 1,19,-1
 336 89 l 2,20,21
 425 89 425 89 473.5 144.5 c 128,-1,22
 522 200 522 200 522 308 c 2,23,-1
 522 378 l 2,24,25
 522 484 522 484 474.5 540.5 c 128,-1,26
 427 597 427 597 336 597 c 2,27,-1
 196 597 l 1,14,-1
EndSplineSet
EndChar

StartChar: E
Encoding: 69 69 21
Width: 593
GlyphClass: 2
Flags: MW
HStem: 0 89<190 535 190 549> 306 89<190 497 190 497> 597 89<190 529 190 190>
VStem: 92 98<89 306 395 597>
AnchorPoint: "Bottom" 297 0 basechar 0
LayerCount: 2
Fore
SplineSet
529 597 m 1,0,-1
 190 597 l 1,1,-1
 190 395 l 1,2,-1
 497 395 l 1,3,-1
 497 306 l 1,4,-1
 190 306 l 1,5,-1
 190 89 l 1,6,-1
 535 89 l 1,7,-1
 549 0 l 1,8,-1
 92 0 l 1,9,-1
 92 686 l 1,10,-1
 542 686 l 1,11,-1
 529 597 l 1,0,-1
EndSplineSet
Position2: "'cpsp' Capital Spacing lookup 0 subtable" dx=5 dy=0 dh=10 dv=0
EndChar

StartChar: Eacute
Encoding: 201 201 22
Width: 593
GlyphClass: 2
Flags: MW
HStem: 0 89<190 535 190 549> 306 89<190 497 190 497> 597 89<190 529 190 190> 750 145<284 468 284 468>
VStem: 92 98<89 306 395 597>
LayerCount: 2
Fore
SplineSet
469 892 m 1,0,-1
 353 750 l 1,1,-1
 284 750 l 1,2,-1
 378 895 l 1,3,-1
 468 895 l 1,4,-1
 469 892 l 1,0,-1
529 597 m 1,5,-1
 190 597 l 1,6,-1
 190 395 l 1,7,-1
 497 395 l 1,8,-1
 497 306 l 1,9,-1
 190 306 l 1,10,-1
 190 89 l 1,11,-1
 535 89 l 1,12,-1
 549 0 l 1,13,-1
 92 0 l 1,14,-1
 92 686 l 1,15,-1
 542 686 l 1,16,-1
 529 597 l 1,5,-1
EndSplineSet
Position2: "'cpsp' Capital Spacing lookup 0 subtable" dx=5 dy=0 dh=10 dv=0
EndChar

StartChar: Ecaron
Encoding: 282 282 23
Width: 593
GlyphClass: 2
Flags: MW
HStem: 0 89<190 535 190 549> 306 89<190 497 190 497> 597 89<190 529 190 190> 750 145<123 337 123 259>
VStem: 92 98<89 306 395 597>
AnchorPoint: "Bottom" 297 0 basechar 0
LayerCount: 2
Fore
SplineSet
337 750 m 1,0,-1
 259 750 l 1,1,-1
 123 895 l 1,2,-1
 203 895 l 1,3,-1
 298 806 l 1,4,-1
 392 895 l 1,5,-1
 472 895 l 1,6,-1
 337 750 l 1,0,-1
529 597 m 1,7,-1
 190 597 l 1,8,-1
 190 395 l 1,9,-1
 497 395 l 1,10,-1
 497 306 l 1,11,-1
 190 306 l 1,12,-1
 190 89 l 1,13,-1
 535 89 l 1,14,-1
 549 0 l 1,15,-1
 92 0 l 1,16,-1
 92 686 l 1,17,-1
 542 686 l 1,18,-1
 529 597 l 1,7,-1
EndSplineSet
EndChar

StartChar: Ecircumflex
Encoding: 202 202 24
Width: 593
GlyphClass: 2
Flags: MW
HStem: 0 89<190 535 190 549> 306 89<190 497 190 497> 597 89<190 529 190 190> 750 145<140 354 140 354 276 489 276 409>
VStem: 92 98<89 306 395 597>
LayerCount: 2
Fore
SplineSet
489 750 m 1,0,-1
 409 750 l 1,1,-1
 315 839 l 1,2,-1
 220 750 l 1,3,-1
 140 750 l 1,4,-1
 276 895 l 1,5,-1
 354 895 l 1,6,-1
 489 750 l 1,0,-1
529 597 m 1,7,-1
 190 597 l 1,8,-1
 190 395 l 1,9,-1
 497 395 l 1,10,-1
 497 306 l 1,11,-1
 190 306 l 1,12,-1
 190 89 l 1,13,-1
 535 89 l 1,14,-1
 549 0 l 1,15,-1
 92 0 l 1,16,-1
 92 686 l 1,17,-1
 542 686 l 1,18,-1
 529 597 l 1,7,-1
EndSplineSet
Position2: "'cpsp' Capital Spacing lookup 0 subtable" dx=5 dy=0 dh=10 dv=0
EndChar

StartChar: Edieresis
Encoding: 203 203 25
Width: 593
GlyphClass: 2
Flags: MW
HStem: 0 89<190 535 190 549> 306 89<190 497 190 497> 597 89<190 529 190 190> 750 98<178 268 178 268 366 457>
VStem: 92 98<89 306 395 597> 178 90<750 848> 366 91<750 848>
LayerCount: 2
Fore
SplineSet
268 750 m 1,0,-1
 178 750 l 1,1,-1
 178 848 l 1,2,-1
 268 848 l 1,3,-1
 268 750 l 1,0,-1
457 750 m 1,4,-1
 366 750 l 1,5,-1
 366 848 l 1,6,-1
 457 848 l 1,7,-1
 457 750 l 1,4,-1
529 597 m 1,8,-1
 190 597 l 1,9,-1
 190 395 l 1,10,-1
 497 395 l 1,11,-1
 497 306 l 1,12,-1
 190 306 l 1,13,-1
 190 89 l 1,14,-1
 535 89 l 1,15,-1
 549 0 l 1,16,-1
 92 0 l 1,17,-1
 92 686 l 1,18,-1
 542 686 l 1,19,-1
 529 597 l 1,8,-1
EndSplineSet
Position2: "'cpsp' Capital Spacing lookup 0 subtable" dx=5 dy=0 dh=10 dv=0
EndChar

StartChar: Edotaccent
Encoding: 278 278 26
Width: 593
GlyphClass: 2
Flags: MW
HStem: 0 89<190 535 190 549> 306 89<190 497 190 497> 597 89<190 529 190 190> 779 132<279 315>
VStem: 92 98<89 306 395 597> 231 132<827.5 862.5 825.5 864>
AnchorPoint: "Bottom" 297 0 basechar 0
LayerCount: 2
Fore
SplineSet
297 911 m 128,-1,1
 325 911 325 911 344 891.5 c 128,-1,2
 363 872 363 872 363 844.5 c 0,3,4
 363 817 363 817 343.5 798 c 128,-1,5
 324 779 324 779 297 779 c 128,-1,6
 270 779 270 779 250.5 798.5 c 128,-1,7
 231 818 231 818 231 845.5 c 0,8,9
 231 873 231 873 250 892 c 128,-1,0
 269 911 269 911 297 911 c 128,-1,1
529 597 m 1,10,-1
 190 597 l 1,11,-1
 190 395 l 1,12,-1
 497 395 l 1,13,-1
 497 306 l 1,14,-1
 190 306 l 1,15,-1
 190 89 l 1,16,-1
 535 89 l 1,17,-1
 549 0 l 1,18,-1
 92 0 l 1,19,-1
 92 686 l 1,20,-1
 542 686 l 1,21,-1
 529 597 l 1,10,-1
EndSplineSet
EndChar

StartChar: Egrave
Encoding: 200 200 27
Width: 593
GlyphClass: 2
Flags: MW
HStem: 0 89<190 535 190 549> 306 89<190 497 190 497> 597 89<190 529 190 190> 750 145<181 365 181 295>
VStem: 92 98<89 306 395 597>
LayerCount: 2
Fore
SplineSet
365 750 m 1,0,-1
 295 750 l 1,1,-1
 180 892 l 1,2,-1
 181 895 l 1,3,-1
 270 895 l 1,4,-1
 365 750 l 1,0,-1
529 597 m 1,5,-1
 190 597 l 1,6,-1
 190 395 l 1,7,-1
 497 395 l 1,8,-1
 497 306 l 1,9,-1
 190 306 l 1,10,-1
 190 89 l 1,11,-1
 535 89 l 1,12,-1
 549 0 l 1,13,-1
 92 0 l 1,14,-1
 92 686 l 1,15,-1
 542 686 l 1,16,-1
 529 597 l 1,5,-1
EndSplineSet
Position2: "'cpsp' Capital Spacing lookup 0 subtable" dx=5 dy=0 dh=10 dv=0
EndChar

StartChar: Emacron
Encoding: 274 274 28
Width: 593
GlyphClass: 2
Flags: MW
HStem: 0 89<190 535 190 549> 306 89<190 497 190 497> 597 89<190 529 190 190> 837 74<138 456 138 456>
VStem: 92 98<89 306 395 597>
AnchorPoint: "Bottom" 297 0 basechar 0
LayerCount: 2
Fore
SplineSet
456 837 m 1,0,-1
 138 837 l 1,1,-1
 138 911 l 1,2,-1
 456 911 l 1,3,-1
 456 837 l 1,0,-1
529 597 m 1,4,-1
 190 597 l 1,5,-1
 190 395 l 1,6,-1
 497 395 l 1,7,-1
 497 306 l 1,8,-1
 190 306 l 1,9,-1
 190 89 l 1,10,-1
 535 89 l 1,11,-1
 549 0 l 1,12,-1
 92 0 l 1,13,-1
 92 686 l 1,14,-1
 542 686 l 1,15,-1
 529 597 l 1,4,-1
EndSplineSet
EndChar

StartChar: Eogonek
Encoding: 280 280 29
Width: 593
GlyphClass: 2
Flags: MW
HStem: -143 47<507.5 529> 0 89<190 470 524 524 524 535 190 549> 306 89<190 497 190 497> 597 89<190 529 190 190>
VStem: 92 98<89 306 395 597> 416 62<-70.5 -54.5>
AnchorPoint: "Bottom" 297 0 basechar 0
LayerCount: 2
Fore
SplineSet
589 -82 m 1,0,-1
 602 -119 l 1,1,2
 562 -143 562 -143 513 -143 c 0,3,4
 416 -143 416 -143 416 -69 c 0,5,6
 416 -36 416 -36 470 0 c 1,7,-1
 92 0 l 1,8,-1
 92 686 l 1,9,-1
 542 686 l 1,10,-1
 529 597 l 1,11,-1
 190 597 l 1,12,-1
 190 395 l 1,13,-1
 497 395 l 1,14,-1
 497 306 l 1,15,-1
 190 306 l 1,16,-1
 190 89 l 1,17,-1
 535 89 l 1,18,-1
 549 0 l 1,19,-1
 524 0 l 1,20,21
 507 -10 507 -10 492.5 -26 c 128,-1,22
 478 -42 478 -42 478 -58 c 0,23,24
 478 -96 478 -96 522 -96 c 0,25,26
 542 -96 542 -96 589 -82 c 1,0,-1
EndSplineSet
EndChar

StartChar: F
Encoding: 70 70 30
Width: 550
GlyphClass: 2
Flags: MW
HStem: 299 89<190 470 190 470> 597 89<190 511 190 190>
VStem: 92 98<0 299 388 597>
LayerCount: 2
Fore
SplineSet
511 597 m 1,0,-1
 190 597 l 1,1,-1
 190 388 l 1,2,-1
 470 388 l 1,3,-1
 470 299 l 1,4,-1
 190 299 l 1,5,-1
 190 0 l 1,6,-1
 92 0 l 1,7,-1
 92 686 l 1,8,-1
 524 686 l 1,9,-1
 511 597 l 1,0,-1
EndSplineSet
Position2: "'cpsp' Capital Spacing lookup 0 subtable" dx=5 dy=0 dh=10 dv=0
EndChar

StartChar: G
Encoding: 71 71 31
Width: 677
GlyphClass: 2
Flags: MW
HStem: -10 89<283 386.5> 274 88<317 511 317 607> 607 89<284.5 398>
VStem: 62 98<298 388 226.5 484> 511 96<261 274 274 274>
AnchorPoint: "Bottom" 339 0 basechar 0
LayerCount: 2
Fore
SplineSet
136.5 614 m 128,-1,1
 211 696 211 696 337.5 696 c 128,-1,2
 464 696 464 696 535.5 627.5 c 128,-1,3
 607 559 607 559 607 445 c 1,4,-1
 509 445 l 1,5,6
 509 522 509 522 466.5 564.5 c 128,-1,7
 424 607 424 607 339 607 c 128,-1,8
 254 607 254 607 207 551.5 c 128,-1,9
 160 496 160 496 160 388 c 2,10,-1
 160 298 l 2,11,12
 160 79 160 79 344 79 c 0,13,14
 431 79 431 79 471 122.5 c 128,-1,15
 511 166 511 166 511 261 c 2,16,-1
 511 274 l 1,17,-1
 317 274 l 1,18,-1
 317 362 l 1,19,-1
 607 362 l 1,20,-1
 607 128 l 2,21,22
 607 45 607 45 613 0 c 1,23,-1
 555 0 l 1,24,25
 542 41 542 41 535 82 c 1,26,27
 470 -10 470 -10 340.5 -10 c 128,-1,28
 211 -10 211 -10 136.5 71.5 c 128,-1,29
 62 153 62 153 62 298 c 2,30,-1
 62 388 l 2,31,0
 62 532 62 532 136.5 614 c 128,-1,1
EndSplineSet
Position2: "'cpsp' Capital Spacing lookup 0 subtable" dx=5 dy=0 dh=10 dv=0
EndChar

StartChar: Gbreve
Encoding: 286 286 32
Width: 677
GlyphClass: 2
Flags: MW
HStem: -10 89<283 386.5> 274 88<317 511 317 607> 607 89<284.5 398> 788 62<307.5 369.5 307.5 386.5>
VStem: 62 98<298 388 226.5 484> 511 96<261 274 274 274>
AnchorPoint: "Bottom" 339 0 basechar 0
LayerCount: 2
Fore
SplineSet
464 912 m 1,0,-1
 532 912 l 1,1,2
 532 866 532 866 471 827 c 128,-1,3
 410 788 410 788 338.5 788 c 128,-1,4
 267 788 267 788 207 827 c 128,-1,5
 147 866 147 866 147 912 c 1,6,-1
 214 912 l 1,7,8
 222 885 222 885 257 867.5 c 128,-1,9
 292 850 292 850 338.5 850 c 128,-1,10
 385 850 385 850 420.5 867.5 c 128,-1,11
 456 885 456 885 464 912 c 1,0,-1
136.5 614 m 128,-1,13
 211 696 211 696 337.5 696 c 128,-1,14
 464 696 464 696 535.5 627.5 c 128,-1,15
 607 559 607 559 607 445 c 1,16,-1
 509 445 l 1,17,18
 509 522 509 522 466.5 564.5 c 128,-1,19
 424 607 424 607 339 607 c 128,-1,20
 254 607 254 607 207 551.5 c 128,-1,21
 160 496 160 496 160 388 c 2,22,-1
 160 298 l 2,23,24
 160 79 160 79 344 79 c 0,25,26
 431 79 431 79 471 122.5 c 128,-1,27
 511 166 511 166 511 261 c 2,28,-1
 511 274 l 1,29,-1
 317 274 l 1,30,-1
 317 362 l 1,31,-1
 607 362 l 1,32,-1
 607 128 l 2,33,34
 607 45 607 45 613 0 c 1,35,-1
 555 0 l 1,36,37
 542 41 542 41 535 82 c 1,38,39
 470 -10 470 -10 340.5 -10 c 128,-1,40
 211 -10 211 -10 136.5 71.5 c 128,-1,41
 62 153 62 153 62 298 c 2,42,-1
 62 388 l 2,43,12
 62 532 62 532 136.5 614 c 128,-1,13
EndSplineSet
EndChar

StartChar: Gcommaaccent
Encoding: 290 290 33
Width: 677
GlyphClass: 2
Flags: MW
HStem: -151 111<288 329 288 389> -10 89<283 386.5> 274 88<317 511 317 607> 607 89<284.5 398>
VStem: 62 98<298 388 226.5 484> 288 101<-125 -125 -125 -40 -125 -40> 511 96<261 274 274 274>
AnchorPoint: "Bottom" 339 0 basechar 0
LayerCount: 2
Fore
SplineSet
136.5 614 m 128,-1,1
 211 696 211 696 337.5 696 c 128,-1,2
 464 696 464 696 535.5 627.5 c 128,-1,3
 607 559 607 559 607 445 c 1,4,-1
 509 445 l 1,5,6
 509 522 509 522 466.5 564.5 c 128,-1,7
 424 607 424 607 339 607 c 128,-1,8
 254 607 254 607 207 551.5 c 128,-1,9
 160 496 160 496 160 388 c 2,10,-1
 160 298 l 2,11,12
 160 79 160 79 344 79 c 0,13,14
 431 79 431 79 471 122.5 c 128,-1,15
 511 166 511 166 511 261 c 2,16,-1
 511 274 l 1,17,-1
 317 274 l 1,18,-1
 317 362 l 1,19,-1
 607 362 l 1,20,-1
 607 128 l 2,21,22
 607 45 607 45 613 0 c 1,23,-1
 555 0 l 1,24,25
 542 41 542 41 535 82 c 1,26,27
 470 -10 470 -10 340.5 -10 c 128,-1,28
 211 -10 211 -10 136.5 71.5 c 128,-1,29
 62 153 62 153 62 298 c 2,30,-1
 62 388 l 2,31,0
 62 532 62 532 136.5 614 c 128,-1,1
389 -125 m 1,32,-1
 360 -250 l 1,33,-1
 307 -250 l 1,34,-1
 329 -151 l 1,35,-1
 288 -151 l 1,36,-1
 288 -40 l 1,37,-1
 389 -40 l 1,38,-1
 389 -125 l 1,32,-1
EndSplineSet
EndChar

StartChar: H
Encoding: 72 72 34
Width: 693
GlyphClass: 2
Flags: MW
HStem: 306 89<190 503 190 503> 666 20G<92 190 190 190 503 601 601 601>
VStem: 92 98<0 306 0 395 395 686> 503 98<0 306 306 306 395 686>
LayerCount: 2
Fore
SplineSet
601 0 m 1,0,-1
 503 0 l 1,1,-1
 503 306 l 1,2,-1
 190 306 l 1,3,-1
 190 0 l 1,4,-1
 92 0 l 1,5,-1
 92 686 l 1,6,-1
 190 686 l 1,7,-1
 190 395 l 1,8,-1
 503 395 l 1,9,-1
 503 686 l 1,10,-1
 601 686 l 1,11,-1
 601 0 l 1,0,-1
EndSplineSet
Position2: "'cpsp' Capital Spacing lookup 0 subtable" dx=5 dy=0 dh=10 dv=0
EndChar

StartChar: I
Encoding: 73 73 35
Width: 364
GlyphClass: 2
Flags: MW
HStem: 0 89<53 133 231 311 53 133> 597 89<53 133 53 311 231 311 231 231>
VStem: 133 98<89 597 89 597>
LayerCount: 2
Fore
SplineSet
311 597 m 1,0,-1
 231 597 l 1,1,-1
 231 89 l 1,2,-1
 311 89 l 1,3,-1
 311 0 l 1,4,-1
 53 0 l 1,5,-1
 53 89 l 1,6,-1
 133 89 l 1,7,-1
 133 597 l 1,8,-1
 53 597 l 1,9,-1
 53 686 l 1,10,-1
 311 686 l 1,11,-1
 311 597 l 1,0,-1
EndSplineSet
Position2: "'cpsp' Capital Spacing lookup 0 subtable" dx=5 dy=0 dh=10 dv=0
EndChar

StartChar: Iacute
Encoding: 205 205 36
Width: 364
GlyphClass: 2
Flags: MW
HStem: 0 89<53 133 231 311 53 133> 597 89<53 133 53 311 231 311 231 231> 750 145<144 328 144 328>
VStem: 133 98<89 597 89 597>
LayerCount: 2
Fore
SplineSet
329 892 m 1,0,-1
 213 750 l 1,1,-1
 144 750 l 1,2,-1
 238 895 l 1,3,-1
 328 895 l 1,4,-1
 329 892 l 1,0,-1
311 597 m 1,5,-1
 231 597 l 1,6,-1
 231 89 l 1,7,-1
 311 89 l 1,8,-1
 311 0 l 1,9,-1
 53 0 l 1,10,-1
 53 89 l 1,11,-1
 133 89 l 1,12,-1
 133 597 l 1,13,-1
 53 597 l 1,14,-1
 53 686 l 1,15,-1
 311 686 l 1,16,-1
 311 597 l 1,5,-1
EndSplineSet
Position2: "'cpsp' Capital Spacing lookup 0 subtable" dx=5 dy=0 dh=10 dv=0
EndChar

StartChar: Icircumflex
Encoding: 206 206 37
Width: 364
GlyphClass: 2
Flags: MW
HStem: 0 89<53 133 231 311 53 133> 597 89<53 133 53 311 231 311 231 231> 750 145<8 222 8 222 144 357 144 277>
VStem: 133 98<89 597 89 597>
LayerCount: 2
Fore
SplineSet
357 750 m 1,0,-1
 277 750 l 1,1,-1
 183 839 l 1,2,-1
 88 750 l 1,3,-1
 8 750 l 1,4,-1
 144 895 l 1,5,-1
 222 895 l 1,6,-1
 357 750 l 1,0,-1
311 597 m 1,7,-1
 231 597 l 1,8,-1
 231 89 l 1,9,-1
 311 89 l 1,10,-1
 311 0 l 1,11,-1
 53 0 l 1,12,-1
 53 89 l 1,13,-1
 133 89 l 1,14,-1
 133 597 l 1,15,-1
 53 597 l 1,16,-1
 53 686 l 1,17,-1
 311 686 l 1,18,-1
 311 597 l 1,7,-1
EndSplineSet
Position2: "'cpsp' Capital Spacing lookup 0 subtable" dx=5 dy=0 dh=10 dv=0
EndChar

StartChar: Idieresis
Encoding: 207 207 38
Width: 364
GlyphClass: 2
Flags: MW
HStem: 0 89<53 133 231 311 53 133> 597 89<53 133 53 311 231 311 231 231> 750 98<43 133 43 133 231 322>
VStem: 43 90<750 848> 133 98<89 597 89 597 750 848> 231 91<750 848>
LayerCount: 2
Fore
SplineSet
133 750 m 1,0,-1
 43 750 l 1,1,-1
 43 848 l 1,2,-1
 133 848 l 1,3,-1
 133 750 l 1,0,-1
322 750 m 1,4,-1
 231 750 l 1,5,-1
 231 848 l 1,6,-1
 322 848 l 1,7,-1
 322 750 l 1,4,-1
311 597 m 1,8,-1
 231 597 l 1,9,-1
 231 89 l 1,10,-1
 311 89 l 1,11,-1
 311 0 l 1,12,-1
 53 0 l 1,13,-1
 53 89 l 1,14,-1
 133 89 l 1,15,-1
 133 597 l 1,16,-1
 53 597 l 1,17,-1
 53 686 l 1,18,-1
 311 686 l 1,19,-1
 311 597 l 1,8,-1
EndSplineSet
Position2: "'cpsp' Capital Spacing lookup 0 subtable" dx=5 dy=0 dh=10 dv=0
EndChar

StartChar: Idotaccent
Encoding: 304 304 39
Width: 364
GlyphClass: 2
Flags: MW
HStem: 0 89<53 133 231 311 53 133> 597 89<53 133 53 311 231 311 231 231> 779 132<164 200>
VStem: 116 132<827.5 862.5 825.5 864> 133 98<89 597 89 597>
LayerCount: 2
Fore
SplineSet
182 911 m 128,-1,1
 210 911 210 911 229 891.5 c 128,-1,2
 248 872 248 872 248 844.5 c 0,3,4
 248 817 248 817 228.5 798 c 128,-1,5
 209 779 209 779 182 779 c 128,-1,6
 155 779 155 779 135.5 798.5 c 128,-1,7
 116 818 116 818 116 845.5 c 0,8,9
 116 873 116 873 135 892 c 128,-1,0
 154 911 154 911 182 911 c 128,-1,1
311 597 m 1,10,-1
 231 597 l 1,11,-1
 231 89 l 1,12,-1
 311 89 l 1,13,-1
 311 0 l 1,14,-1
 53 0 l 1,15,-1
 53 89 l 1,16,-1
 133 89 l 1,17,-1
 133 597 l 1,18,-1
 53 597 l 1,19,-1
 53 686 l 1,20,-1
 311 686 l 1,21,-1
 311 597 l 1,10,-1
EndSplineSet
EndChar

StartChar: Igrave
Encoding: 204 204 40
Width: 364
GlyphClass: 2
Flags: MW
HStem: 0 89<53 133 231 311 53 133> 597 89<53 133 53 311 231 311 231 231> 750 145<33 217 33 147>
VStem: 133 98<89 597 89 597>
LayerCount: 2
Fore
SplineSet
217 750 m 1,0,-1
 147 750 l 1,1,-1
 32 892 l 1,2,-1
 33 895 l 1,3,-1
 122 895 l 1,4,-1
 217 750 l 1,0,-1
311 597 m 1,5,-1
 231 597 l 1,6,-1
 231 89 l 1,7,-1
 311 89 l 1,8,-1
 311 0 l 1,9,-1
 53 0 l 1,10,-1
 53 89 l 1,11,-1
 133 89 l 1,12,-1
 133 597 l 1,13,-1
 53 597 l 1,14,-1
 53 686 l 1,15,-1
 311 686 l 1,16,-1
 311 597 l 1,5,-1
EndSplineSet
Position2: "'cpsp' Capital Spacing lookup 0 subtable" dx=5 dy=0 dh=10 dv=0
EndChar

StartChar: Imacron
Encoding: 298 298 41
Width: 364
GlyphClass: 2
Flags: MW
HStem: 0 89<53 133 231 311 53 133> 597 89<53 133 53 311 231 311 231 231> 837 74<23 341 23 341>
VStem: 133 98<89 597 89 597>
LayerCount: 2
Fore
SplineSet
341 837 m 1,0,-1
 23 837 l 1,1,-1
 23 911 l 1,2,-1
 341 911 l 1,3,-1
 341 837 l 1,0,-1
311 597 m 1,4,-1
 231 597 l 1,5,-1
 231 89 l 1,6,-1
 311 89 l 1,7,-1
 311 0 l 1,8,-1
 53 0 l 1,9,-1
 53 89 l 1,10,-1
 133 89 l 1,11,-1
 133 597 l 1,12,-1
 53 597 l 1,13,-1
 53 686 l 1,14,-1
 311 686 l 1,15,-1
 311 597 l 1,4,-1
EndSplineSet
EndChar

StartChar: Iogonek
Encoding: 302 302 42
Width: 364
GlyphClass: 2
Flags: MW
HStem: -143 47<271.5 293> 0 89<53 133 231 234 53 133 288 288 288 311> 597 89<53 133 53 311 231 231 231 311>
VStem: 133 98<89 597 89 597> 180 62<-70.5 -54.5>
LayerCount: 2
Fore
SplineSet
353 -82 m 1,0,-1
 366 -119 l 1,1,2
 326 -143 326 -143 277 -143 c 0,3,4
 180 -143 180 -143 180 -69 c 0,5,6
 180 -36 180 -36 234 0 c 1,7,-1
 53 0 l 1,8,-1
 53 89 l 1,9,-1
 133 89 l 1,10,-1
 133 597 l 1,11,-1
 53 597 l 1,12,-1
 53 686 l 1,13,-1
 311 686 l 1,14,-1
 311 597 l 1,15,-1
 231 597 l 1,16,-1
 231 89 l 1,17,-1
 311 89 l 1,18,-1
 311 0 l 1,19,-1
 288 0 l 1,20,21
 271 -10 271 -10 256.5 -26 c 128,-1,22
 242 -42 242 -42 242 -58 c 0,23,24
 242 -96 242 -96 286 -96 c 0,25,26
 306 -96 306 -96 353 -82 c 1,0,-1
EndSplineSet
EndChar

StartChar: J
Encoding: 74 74 43
Width: 526
GlyphClass: 2
Flags: MW
HStem: -10 89<203.5 227 227 236> 666 20G<341 439 439 439>
VStem: 29 98<187 208 151 208> 341 98<181 187 187 686>
LayerCount: 2
Fore
SplineSet
439 686 m 1,0,-1
 439 187 l 2,1,2
 439 96 439 96 383 43 c 128,-1,3
 327 -10 327 -10 236 -10 c 2,4,-1
 227 -10 l 2,5,6
 136 -10 136 -10 82.5 41 c 128,-1,7
 29 92 29 92 29 187 c 2,8,-1
 29 208 l 1,9,-1
 127 208 l 1,10,-1
 127 181 l 2,11,12
 127 136 127 136 157.5 107.5 c 128,-1,13
 188 79 188 79 235 79 c 128,-1,14
 282 79 282 79 311.5 107 c 128,-1,15
 341 135 341 135 341 181 c 2,16,-1
 341 686 l 1,17,-1
 439 686 l 1,0,-1
EndSplineSet
Position2: "'cpsp' Capital Spacing lookup 0 subtable" dx=5 dy=0 dh=10 dv=0
EndChar

StartChar: K
Encoding: 75 75 44
Width: 623
GlyphClass: 2
Flags: MW
HStem: 666 20G<92 190 190 190 488 601 601 601>
VStem: 92 98<0 206 329 686>
AnchorPoint: "Bottom" 312 0 basechar 0
LayerCount: 2
Fore
SplineSet
349 383 m 1,0,-1
 609 0 l 1,1,-1
 495 0 l 1,2,-1
 287 308 l 1,3,-1
 190 206 l 1,4,-1
 190 0 l 1,5,-1
 92 0 l 1,6,-1
 92 686 l 1,7,-1
 190 686 l 1,8,-1
 190 329 l 1,9,-1
 488 686 l 1,10,-1
 601 686 l 1,11,-1
 349 383 l 1,0,-1
EndSplineSet
Position2: "'cpsp' Capital Spacing lookup 0 subtable" dx=5 dy=0 dh=10 dv=0
EndChar

StartChar: Kcommaaccent
Encoding: 310 310 45
Width: 623
GlyphClass: 2
Flags: MW
HStem: -151 111<261 302 261 362> 666 20G<92 190 190 190 488 601 601 601>
VStem: 92 98<0 206 329 686> 261 101<-125 -125 -125 -40 -125 -40>
AnchorPoint: "Bottom" 312 0 basechar 0
LayerCount: 2
Fore
SplineSet
349 383 m 1,0,-1
 609 0 l 1,1,-1
 495 0 l 1,2,-1
 287 308 l 1,3,-1
 190 206 l 1,4,-1
 190 0 l 1,5,-1
 92 0 l 1,6,-1
 92 686 l 1,7,-1
 190 686 l 1,8,-1
 190 329 l 1,9,-1
 488 686 l 1,10,-1
 601 686 l 1,11,-1
 349 383 l 1,0,-1
362 -125 m 1,12,-1
 333 -250 l 1,13,-1
 280 -250 l 1,14,-1
 302 -151 l 1,15,-1
 261 -151 l 1,16,-1
 261 -40 l 1,17,-1
 362 -40 l 1,18,-1
 362 -125 l 1,12,-1
EndSplineSet
EndChar

StartChar: L
Encoding: 76 76 46
Width: 536
GlyphClass: 2
Flags: MW
HStem: 0 89<190 505 190 519> 666 20G<92 190 190 190>
VStem: 92 98<89 89 89 686>
AnchorPoint: "Bottom" 268 0 basechar 0
LayerCount: 2
Fore
SplineSet
190 89 m 1,0,-1
 505 89 l 1,1,-1
 519 0 l 1,2,-1
 92 0 l 1,3,-1
 92 686 l 1,4,-1
 190 686 l 1,5,-1
 190 89 l 1,0,-1
EndSplineSet
Position2: "'cpsp' Capital Spacing lookup 0 subtable" dx=5 dy=0 dh=10 dv=0
EndChar

StartChar: Lacute
Encoding: 313 313 47
Width: 536
GlyphClass: 2
Flags: MW
HStem: 0 89<190 505 190 519> 666 20G<92 190 190 190> 750 145<115 299 115 299>
VStem: 92 98<89 89 89 686>
AnchorPoint: "Bottom" 268 0 basechar 0
LayerCount: 2
Fore
SplineSet
300 892 m 1,0,-1
 184 750 l 1,1,-1
 115 750 l 1,2,-1
 209 895 l 1,3,-1
 299 895 l 1,4,-1
 300 892 l 1,0,-1
190 89 m 1,5,-1
 505 89 l 1,6,-1
 519 0 l 1,7,-1
 92 0 l 1,8,-1
 92 686 l 1,9,-1
 190 686 l 1,10,-1
 190 89 l 1,5,-1
EndSplineSet
EndChar

StartChar: Lcaron
Encoding: 317 317 48
Width: 536
GlyphClass: 2
Flags: MW
HStem: 0 89<190 505 190 519> 575 111<425 466>
VStem: 92 98<89 89 89 686> 425 101<601 601 601 686 601 686>
AnchorPoint: "Bottom" 268 0 basechar 0
LayerCount: 2
Fore
SplineSet
190 89 m 1,0,-1
 505 89 l 1,1,-1
 519 0 l 1,2,-1
 92 0 l 1,3,-1
 92 686 l 1,4,-1
 190 686 l 1,5,-1
 190 89 l 1,0,-1
526 601 m 1,6,-1
 491 451 l 1,7,-1
 439 451 l 1,8,-1
 466 575 l 1,9,-1
 425 575 l 1,10,-1
 425 686 l 1,11,-1
 526 686 l 1,12,-1
 526 601 l 1,6,-1
EndSplineSet
EndChar

StartChar: Lcommaaccent
Encoding: 315 315 49
Width: 536
GlyphClass: 2
Flags: MW
HStem: -151 111<217 258 217 318> 0 89<190 505 190 519> 666 20G<92 190 190 190>
VStem: 92 98<89 89 89 686> 217 101<-125 -125 -125 -40 -125 -40>
AnchorPoint: "Bottom" 268 0 basechar 0
LayerCount: 2
Fore
SplineSet
190 89 m 1,0,-1
 505 89 l 1,1,-1
 519 0 l 1,2,-1
 92 0 l 1,3,-1
 92 686 l 1,4,-1
 190 686 l 1,5,-1
 190 89 l 1,0,-1
318 -125 m 1,6,-1
 289 -250 l 1,7,-1
 236 -250 l 1,8,-1
 258 -151 l 1,9,-1
 217 -151 l 1,10,-1
 217 -40 l 1,11,-1
 318 -40 l 1,12,-1
 318 -125 l 1,6,-1
EndSplineSet
EndChar

StartChar: Lslash
Encoding: 321 321 50
Width: 539
GlyphClass: 2
Flags: MW
HStem: 0 89<193 508 193 522> 497 20G<332 332> 666 20G<95 193 193 193>
VStem: 95 98<89 324 324 324 445 686>
LayerCount: 2
Fore
SplineSet
193 445 m 1,0,-1
 332 517 l 1,1,-1
 332 446 l 1,2,-1
 193 374 l 1,3,-1
 193 89 l 1,4,-1
 508 89 l 1,5,-1
 522 0 l 1,6,-1
 95 0 l 1,7,-1
 95 324 l 1,8,-1
 33 293 l 1,9,-1
 33 364 l 1,10,-1
 95 395 l 1,11,-1
 95 686 l 1,12,-1
 193 686 l 1,13,-1
 193 445 l 1,0,-1
EndSplineSet
Position2: "'cpsp' Capital Spacing lookup 0 subtable" dx=5 dy=0 dh=10 dv=0
EndChar

StartChar: M
Encoding: 77 77 51
Width: 938
GlyphClass: 2
Flags: MW
HStem: 0 146<467 471 467 505 422 471> 571 115<181 186 181 181 742 748 742 742>
VStem: 92 89<0 571 0 686> 748 98<0 571 571 571>
LayerCount: 2
Fore
SplineSet
846 0 m 1,0,-1
 748 0 l 1,1,-1
 748 571 l 1,2,-1
 742 571 l 1,3,-1
 505 0 l 1,4,-1
 422 0 l 1,5,-1
 186 571 l 1,6,-1
 181 571 l 1,7,-1
 181 0 l 1,8,-1
 92 0 l 1,9,-1
 92 686 l 1,10,-1
 246 686 l 1,11,-1
 467 146 l 1,12,-1
 471 146 l 1,13,-1
 693 686 l 1,14,-1
 846 686 l 1,15,-1
 846 0 l 1,0,-1
EndSplineSet
Position2: "'cpsp' Capital Spacing lookup 0 subtable" dx=5 dy=0 dh=10 dv=0
EndChar

StartChar: N
Encoding: 78 78 52
Width: 694
GlyphClass: 2
Flags: MW
HStem: 666 20G<92 178 178 178 513 602 602 602>
VStem: 92 89<0 501 0 686> 513 89<191 686>
AnchorPoint: "Bottom" 347 0 basechar 0
LayerCount: 2
Fore
SplineSet
602 0 m 1,0,-1
 519 0 l 1,1,-1
 184 502 l 1,2,-1
 181 501 l 1,3,-1
 181 0 l 1,4,-1
 92 0 l 1,5,-1
 92 686 l 1,6,-1
 178 686 l 1,7,-1
 510 190 l 1,8,-1
 513 191 l 1,9,-1
 513 686 l 1,10,-1
 602 686 l 1,11,-1
 602 0 l 1,0,-1
EndSplineSet
Position2: "'cpsp' Capital Spacing lookup 0 subtable" dx=5 dy=0 dh=10 dv=0
EndChar

StartChar: Nacute
Encoding: 323 323 53
Width: 694
GlyphClass: 2
Flags: MW
HStem: 666 20G<92 178 178 178 513 602 602 602> 750 145<294 478 294 478>
VStem: 92 89<0 501 0 686> 513 89<191 686>
AnchorPoint: "Bottom" 347 0 basechar 0
LayerCount: 2
Fore
SplineSet
479 892 m 1,0,-1
 363 750 l 1,1,-1
 294 750 l 1,2,-1
 388 895 l 1,3,-1
 478 895 l 1,4,-1
 479 892 l 1,0,-1
602 0 m 1,5,-1
 519 0 l 1,6,-1
 184 502 l 1,7,-1
 181 501 l 1,8,-1
 181 0 l 1,9,-1
 92 0 l 1,10,-1
 92 686 l 1,11,-1
 178 686 l 1,12,-1
 510 190 l 1,13,-1
 513 191 l 1,14,-1
 513 686 l 1,15,-1
 602 686 l 1,16,-1
 602 0 l 1,5,-1
EndSplineSet
EndChar

StartChar: Ncaron
Encoding: 327 327 54
Width: 694
GlyphClass: 2
Flags: MW
HStem: 666 20G<92 178 178 178 513 602 602 602> 750 145<173 387 173 309>
VStem: 92 89<0 501 0 686> 513 89<191 686>
AnchorPoint: "Bottom" 347 0 basechar 0
LayerCount: 2
Fore
SplineSet
387 750 m 1,0,-1
 309 750 l 1,1,-1
 173 895 l 1,2,-1
 253 895 l 1,3,-1
 348 806 l 1,4,-1
 442 895 l 1,5,-1
 522 895 l 1,6,-1
 387 750 l 1,0,-1
602 0 m 1,7,-1
 519 0 l 1,8,-1
 184 502 l 1,9,-1
 181 501 l 1,10,-1
 181 0 l 1,11,-1
 92 0 l 1,12,-1
 92 686 l 1,13,-1
 178 686 l 1,14,-1
 510 190 l 1,15,-1
 513 191 l 1,16,-1
 513 686 l 1,17,-1
 602 686 l 1,18,-1
 602 0 l 1,7,-1
EndSplineSet
EndChar

StartChar: Ncommaaccent
Encoding: 325 325 55
Width: 694
GlyphClass: 2
Flags: MW
HStem: -151 111<296 337 296 397> 666 20G<92 178 178 178 513 602 602 602>
VStem: 92 89<0 501 0 686> 296 101<-125 -125 -125 -40 -125 -40> 513 89<191 686>
AnchorPoint: "Bottom" 347 0 basechar 0
LayerCount: 2
Fore
SplineSet
602 0 m 1,0,-1
 519 0 l 1,1,-1
 184 502 l 1,2,-1
 181 501 l 1,3,-1
 181 0 l 1,4,-1
 92 0 l 1,5,-1
 92 686 l 1,6,-1
 178 686 l 1,7,-1
 510 190 l 1,8,-1
 513 191 l 1,9,-1
 513 686 l 1,10,-1
 602 686 l 1,11,-1
 602 0 l 1,0,-1
397 -125 m 1,12,-1
 368 -250 l 1,13,-1
 315 -250 l 1,14,-1
 337 -151 l 1,15,-1
 296 -151 l 1,16,-1
 296 -40 l 1,17,-1
 397 -40 l 1,18,-1
 397 -125 l 1,12,-1
EndSplineSet
EndChar

StartChar: Ntilde
Encoding: 209 209 56
Width: 694
GlyphClass: 2
Flags: MW
HStem: 666 20G<92 178 178 178 513 602 602 602> 750 69<427.5 450.5 427.5 462.5> 784 70<245 274.5>
VStem: 92 89<0 501 0 686> 513 89<191 686>
LayerCount: 2
Fore
SplineSet
491 854 m 1,0,-1
 541 854 l 1,1,2
 541 809 541 809 510 779.5 c 128,-1,3
 479 750 479 750 437 750 c 128,-1,4
 395 750 395 750 371 757 c 128,-1,5
 347 764 347 764 331 769 c 0,6,7
 303.266666667 777.666666667 303.266666667 777.666666667 291.233333333 780.833333333 c 128,-1,8
 279.2 784 279.2 784 260 784 c 0,9,10
 215 784 215 784 205 750 c 1,11,-1
 155 750 l 1,12,13
 155 792 155 792 185 823 c 128,-1,14
 215 854 215 854 257.5 854 c 128,-1,15
 300 854 300 854 356.5 836.5 c 128,-1,16
 413 819 413 819 436 819 c 0,17,18
 480 819 480 819 491 854 c 1,0,-1
602 0 m 1,19,-1
 519 0 l 1,20,-1
 184 502 l 1,21,-1
 181 501 l 1,22,-1
 181 0 l 1,23,-1
 92 0 l 1,24,-1
 92 686 l 1,25,-1
 178 686 l 1,26,-1
 510 190 l 1,27,-1
 513 191 l 1,28,-1
 513 686 l 1,29,-1
 602 686 l 1,30,-1
 602 0 l 1,19,-1
EndSplineSet
Position2: "'cpsp' Capital Spacing lookup 0 subtable" dx=5 dy=0 dh=10 dv=0
EndChar

StartChar: O
Encoding: 79 79 57
Width: 690
GlyphClass: 2
Flags: MW
HStem: -10 89<284 402 284 430> 607 89<287 406>
VStem: 61 98<298 388 227 484.5> 531 98<298 388 201.5 459>
LayerCount: 2
Fore
SplineSet
345 696 m 128,-1,1
 474 696 474 696 551.5 613.5 c 128,-1,2
 629 531 629 531 629 388 c 2,3,-1
 629 298 l 2,4,5
 629 155 629 155 551.5 72.5 c 128,-1,6
 474 -10 474 -10 345 -10 c 128,-1,7
 216 -10 216 -10 138.5 72.5 c 128,-1,8
 61 155 61 155 61 298 c 2,9,-1
 61 388 l 2,10,11
 61 531 61 531 138.5 613.5 c 128,-1,0
 216 696 216 696 345 696 c 128,-1,1
483.5 551 m 128,-1,13
 436 607 436 607 346.5 607 c 128,-1,14
 257 607 257 607 208 551 c 128,-1,15
 159 495 159 495 159 388 c 2,16,-1
 159 298 l 2,17,18
 159 191 159 191 206.5 135 c 128,-1,19
 254 79 254 79 343.5 79 c 128,-1,20
 433 79 433 79 482 134.5 c 128,-1,21
 531 190 531 190 531 298 c 2,22,-1
 531 388 l 2,23,12
 531 495 531 495 483.5 551 c 128,-1,13
EndSplineSet
Substitution2: "Single Substitution lookup 5 subtable" ordmasculine
Substitution2: "'aalt' Access All Alternates lookup 0 subtable" ordmasculine
Position2: "'cpsp' Capital Spacing lookup 0 subtable" dx=5 dy=0 dh=10 dv=0
EndChar

StartChar: Oacute
Encoding: 211 211 58
Width: 690
GlyphClass: 2
Flags: MW
HStem: -10 89<284 402 284 430> 607 89<287 406> 750 145<306 490 306 490>
VStem: 61 98<298 388 227 484.5> 531 98<298 388 201.5 459>
LayerCount: 2
Fore
SplineSet
491 892 m 1,0,-1
 375 750 l 1,1,-1
 306 750 l 1,2,-1
 400 895 l 1,3,-1
 490 895 l 1,4,-1
 491 892 l 1,0,-1
345 696 m 128,-1,6
 474 696 474 696 551.5 613.5 c 128,-1,7
 629 531 629 531 629 388 c 2,8,-1
 629 298 l 2,9,10
 629 155 629 155 551.5 72.5 c 128,-1,11
 474 -10 474 -10 345 -10 c 128,-1,12
 216 -10 216 -10 138.5 72.5 c 128,-1,13
 61 155 61 155 61 298 c 2,14,-1
 61 388 l 2,15,16
 61 531 61 531 138.5 613.5 c 128,-1,5
 216 696 216 696 345 696 c 128,-1,6
483.5 551 m 128,-1,18
 436 607 436 607 346.5 607 c 128,-1,19
 257 607 257 607 208 551 c 128,-1,20
 159 495 159 495 159 388 c 2,21,-1
 159 298 l 2,22,23
 159 191 159 191 206.5 135 c 128,-1,24
 254 79 254 79 343.5 79 c 128,-1,25
 433 79 433 79 482 134.5 c 128,-1,26
 531 190 531 190 531 298 c 2,27,-1
 531 388 l 2,28,17
 531 495 531 495 483.5 551 c 128,-1,18
EndSplineSet
Position2: "'cpsp' Capital Spacing lookup 0 subtable" dx=5 dy=0 dh=10 dv=0
EndChar

StartChar: Ocircumflex
Encoding: 212 212 59
Width: 690
GlyphClass: 2
Flags: MW
HStem: -10 89<284 402 284 430> 607 89<287 406> 750 145<168 382 168 382 304 517 304 437>
VStem: 61 98<298 388 227 484.5> 531 98<298 388 201.5 459>
LayerCount: 2
Fore
SplineSet
517 750 m 1,0,-1
 437 750 l 1,1,-1
 343 839 l 1,2,-1
 248 750 l 1,3,-1
 168 750 l 1,4,-1
 304 895 l 1,5,-1
 382 895 l 1,6,-1
 517 750 l 1,0,-1
345 696 m 128,-1,8
 474 696 474 696 551.5 613.5 c 128,-1,9
 629 531 629 531 629 388 c 2,10,-1
 629 298 l 2,11,12
 629 155 629 155 551.5 72.5 c 128,-1,13
 474 -10 474 -10 345 -10 c 128,-1,14
 216 -10 216 -10 138.5 72.5 c 128,-1,15
 61 155 61 155 61 298 c 2,16,-1
 61 388 l 2,17,18
 61 531 61 531 138.5 613.5 c 128,-1,7
 216 696 216 696 345 696 c 128,-1,8
483.5 551 m 128,-1,20
 436 607 436 607 346.5 607 c 128,-1,21
 257 607 257 607 208 551 c 128,-1,22
 159 495 159 495 159 388 c 2,23,-1
 159 298 l 2,24,25
 159 191 159 191 206.5 135 c 128,-1,26
 254 79 254 79 343.5 79 c 128,-1,27
 433 79 433 79 482 134.5 c 128,-1,28
 531 190 531 190 531 298 c 2,29,-1
 531 388 l 2,30,19
 531 495 531 495 483.5 551 c 128,-1,20
EndSplineSet
Position2: "'cpsp' Capital Spacing lookup 0 subtable" dx=5 dy=0 dh=10 dv=0
EndChar

StartChar: Odieresis
Encoding: 214 214 60
Width: 690
GlyphClass: 2
Flags: MW
HStem: -10 89<284 402 284 430> 607 89<287 406> 750 98<207 297 207 297 395 486>
VStem: 61 98<298 388 227 484.5> 207 90<750 848> 395 91<750 848> 531 98<298 388 201.5 459>
LayerCount: 2
Fore
SplineSet
297 750 m 1,0,-1
 207 750 l 1,1,-1
 207 848 l 1,2,-1
 297 848 l 1,3,-1
 297 750 l 1,0,-1
486 750 m 1,4,-1
 395 750 l 1,5,-1
 395 848 l 1,6,-1
 486 848 l 1,7,-1
 486 750 l 1,4,-1
345 696 m 128,-1,9
 474 696 474 696 551.5 613.5 c 128,-1,10
 629 531 629 531 629 388 c 2,11,-1
 629 298 l 2,12,13
 629 155 629 155 551.5 72.5 c 128,-1,14
 474 -10 474 -10 345 -10 c 128,-1,15
 216 -10 216 -10 138.5 72.5 c 128,-1,16
 61 155 61 155 61 298 c 2,17,-1
 61 388 l 2,18,19
 61 531 61 531 138.5 613.5 c 128,-1,8
 216 696 216 696 345 696 c 128,-1,9
483.5 551 m 128,-1,21
 436 607 436 607 346.5 607 c 128,-1,22
 257 607 257 607 208 551 c 128,-1,23
 159 495 159 495 159 388 c 2,24,-1
 159 298 l 2,25,26
 159 191 159 191 206.5 135 c 128,-1,27
 254 79 254 79 343.5 79 c 128,-1,28
 433 79 433 79 482 134.5 c 128,-1,29
 531 190 531 190 531 298 c 2,30,-1
 531 388 l 2,31,20
 531 495 531 495 483.5 551 c 128,-1,21
EndSplineSet
Position2: "'cpsp' Capital Spacing lookup 0 subtable" dx=5 dy=0 dh=10 dv=0
EndChar

StartChar: Ograve
Encoding: 210 210 61
Width: 690
GlyphClass: 2
Flags: MW
HStem: -10 89<284 402 284 430> 607 89<287 406> 750 145<199 383 199 313>
VStem: 61 98<298 388 227 484.5> 531 98<298 388 201.5 459>
LayerCount: 2
Fore
SplineSet
383 750 m 1,0,-1
 313 750 l 1,1,-1
 198 892 l 1,2,-1
 199 895 l 1,3,-1
 288 895 l 1,4,-1
 383 750 l 1,0,-1
345 696 m 128,-1,6
 474 696 474 696 551.5 613.5 c 128,-1,7
 629 531 629 531 629 388 c 2,8,-1
 629 298 l 2,9,10
 629 155 629 155 551.5 72.5 c 128,-1,11
 474 -10 474 -10 345 -10 c 128,-1,12
 216 -10 216 -10 138.5 72.5 c 128,-1,13
 61 155 61 155 61 298 c 2,14,-1
 61 388 l 2,15,16
 61 531 61 531 138.5 613.5 c 128,-1,5
 216 696 216 696 345 696 c 128,-1,6
483.5 551 m 128,-1,18
 436 607 436 607 346.5 607 c 128,-1,19
 257 607 257 607 208 551 c 128,-1,20
 159 495 159 495 159 388 c 2,21,-1
 159 298 l 2,22,23
 159 191 159 191 206.5 135 c 128,-1,24
 254 79 254 79 343.5 79 c 128,-1,25
 433 79 433 79 482 134.5 c 128,-1,26
 531 190 531 190 531 298 c 2,27,-1
 531 388 l 2,28,17
 531 495 531 495 483.5 551 c 128,-1,18
EndSplineSet
Position2: "'cpsp' Capital Spacing lookup 0 subtable" dx=5 dy=0 dh=10 dv=0
EndChar

StartChar: Ohungarumlaut
Encoding: 336 336 62
Width: 690
GlyphClass: 2
Flags: MW
HStem: -10 89<284 402 284 430> 607 89<287 406> 750 145<215 399 215 399 370 370 370 399 310 440>
VStem: 61 98<298 388 227 484.5> 531 98<298 388 201.5 459>
LayerCount: 2
Fore
SplineSet
400 892 m 1,0,-1
 285 750 l 1,1,-1
 215 750 l 1,2,-1
 310 895 l 1,3,-1
 399 895 l 1,4,-1
 400 892 l 1,0,-1
555 892 m 1,5,-1
 440 750 l 1,6,-1
 370 750 l 1,7,-1
 464 895 l 1,8,-1
 554 895 l 1,9,-1
 555 892 l 1,5,-1
345 696 m 128,-1,11
 474 696 474 696 551.5 613.5 c 128,-1,12
 629 531 629 531 629 388 c 2,13,-1
 629 298 l 2,14,15
 629 155 629 155 551.5 72.5 c 128,-1,16
 474 -10 474 -10 345 -10 c 128,-1,17
 216 -10 216 -10 138.5 72.5 c 128,-1,18
 61 155 61 155 61 298 c 2,19,-1
 61 388 l 2,20,21
 61 531 61 531 138.5 613.5 c 128,-1,10
 216 696 216 696 345 696 c 128,-1,11
483.5 551 m 128,-1,23
 436 607 436 607 346.5 607 c 128,-1,24
 257 607 257 607 208 551 c 128,-1,25
 159 495 159 495 159 388 c 2,26,-1
 159 298 l 2,27,28
 159 191 159 191 206.5 135 c 128,-1,29
 254 79 254 79 343.5 79 c 128,-1,30
 433 79 433 79 482 134.5 c 128,-1,31
 531 190 531 190 531 298 c 2,32,-1
 531 388 l 2,33,22
 531 495 531 495 483.5 551 c 128,-1,23
EndSplineSet
EndChar

StartChar: Omacron
Encoding: 332 332 63
Width: 690
GlyphClass: 2
Flags: MW
HStem: -10 89<284 402 284 430> 607 89<287 406> 837 74<186 504 186 504>
VStem: 61 98<298 388 227 484.5> 531 98<298 388 201.5 459>
LayerCount: 2
Fore
SplineSet
504 837 m 1,0,-1
 186 837 l 1,1,-1
 186 911 l 1,2,-1
 504 911 l 1,3,-1
 504 837 l 1,0,-1
345 696 m 128,-1,5
 474 696 474 696 551.5 613.5 c 128,-1,6
 629 531 629 531 629 388 c 2,7,-1
 629 298 l 2,8,9
 629 155 629 155 551.5 72.5 c 128,-1,10
 474 -10 474 -10 345 -10 c 128,-1,11
 216 -10 216 -10 138.5 72.5 c 128,-1,12
 61 155 61 155 61 298 c 2,13,-1
 61 388 l 2,14,15
 61 531 61 531 138.5 613.5 c 128,-1,4
 216 696 216 696 345 696 c 128,-1,5
483.5 551 m 128,-1,17
 436 607 436 607 346.5 607 c 128,-1,18
 257 607 257 607 208 551 c 128,-1,19
 159 495 159 495 159 388 c 2,20,-1
 159 298 l 2,21,22
 159 191 159 191 206.5 135 c 128,-1,23
 254 79 254 79 343.5 79 c 128,-1,24
 433 79 433 79 482 134.5 c 128,-1,25
 531 190 531 190 531 298 c 2,26,-1
 531 388 l 2,27,16
 531 495 531 495 483.5 551 c 128,-1,17
EndSplineSet
EndChar

StartChar: Oslash
Encoding: 216 216 64
Width: 690
GlyphClass: 2
Flags: MW
HStem: -10 89<315.5 402.5 315.5 430> 607 89<286.5 374.5>
VStem: 61 98<298 388 265.5 484.5> 531 98<298 388 201.5 418.5>
LayerCount: 2
Fore
SplineSet
624 754 m 1,0,-1
 544 621 l 1,1,2
 629 540 629 540 629 388 c 2,3,-1
 629 298 l 2,4,5
 629 155 629 155 551.5 72.5 c 128,-1,6
 474 -10 474 -10 345 -10 c 0,7,8
 257 -10 257 -10 190 30 c 1,9,-1
 134 -65 l 1,10,-1
 70 -65 l 1,11,-1
 147 63 l 1,12,13
 61 146 61 146 61 298 c 2,14,-1
 61 388 l 2,15,16
 61 531 61 531 138.5 613.5 c 128,-1,17
 216 696 216 696 345 696 c 0,18,19
 434 696 434 696 501 655 c 1,20,-1
 560 754 l 1,21,-1
 624 754 l 1,0,-1
357 607 m 0,22,23
 159 607 159 607 159 388 c 2,24,-1
 159 298 l 2,25,26
 159 200 159 200 197 147 c 1,27,-1
 454 577 l 1,28,29
 409 607 409 607 357 607 c 0,22,23
494 537 m 1,30,-1
 237 108 l 1,31,32
 281 79 281 79 333 79 c 0,33,34
 531 79 531 79 531 298 c 2,35,-1
 531 388 l 2,36,37
 531 481 531 481 494 537 c 1,30,-1
EndSplineSet
Position2: "'cpsp' Capital Spacing lookup 0 subtable" dx=5 dy=0 dh=10 dv=0
EndChar

StartChar: Otilde
Encoding: 213 213 65
Width: 690
GlyphClass: 2
Flags: MW
HStem: -10 89<284 402 284 430> 607 89<287 406> 750 69<424.5 447.5 424.5 459> 784 70<242 271.5>
VStem: 61 98<298 388 227 484.5> 531 98<298 388 201.5 459>
LayerCount: 2
Fore
SplineSet
488 854 m 1,0,-1
 538 854 l 1,1,2
 538 808 538 808 507 779 c 128,-1,3
 476 750 476 750 434 750 c 128,-1,4
 392 750 392 750 368 757 c 128,-1,5
 344 764 344 764 328 769 c 0,6,7
 300.266666667 777.666666667 300.266666667 777.666666667 288.233333333 780.833333333 c 128,-1,8
 276.2 784 276.2 784 257 784 c 0,9,10
 212 784 212 784 202 750 c 1,11,-1
 152 750 l 1,12,13
 152 793 152 793 182 823.5 c 128,-1,14
 212 854 212 854 263 854 c 0,15,16
 289 854 289 854 352 836 c 0,17,18
 403 819 403 819 433 819 c 0,19,20
 477 819 477 819 488 854 c 1,0,-1
345 696 m 128,-1,22
 474 696 474 696 551.5 613.5 c 128,-1,23
 629 531 629 531 629 388 c 2,24,-1
 629 298 l 2,25,26
 629 155 629 155 551.5 72.5 c 128,-1,27
 474 -10 474 -10 345 -10 c 128,-1,28
 216 -10 216 -10 138.5 72.5 c 128,-1,29
 61 155 61 155 61 298 c 2,30,-1
 61 388 l 2,31,32
 61 531 61 531 138.5 613.5 c 128,-1,21
 216 696 216 696 345 696 c 128,-1,22
483.5 551 m 128,-1,34
 436 607 436 607 346.5 607 c 128,-1,35
 257 607 257 607 208 551 c 128,-1,36
 159 495 159 495 159 388 c 2,37,-1
 159 298 l 2,38,39
 159 191 159 191 206.5 135 c 128,-1,40
 254 79 254 79 343.5 79 c 128,-1,41
 433 79 433 79 482 134.5 c 128,-1,42
 531 190 531 190 531 298 c 2,43,-1
 531 388 l 2,44,33
 531 495 531 495 483.5 551 c 128,-1,34
EndSplineSet
Position2: "'cpsp' Capital Spacing lookup 0 subtable" dx=5 dy=0 dh=10 dv=0
EndChar

StartChar: OE
Encoding: 338 338 66
Width: 1032
GlyphClass: 2
Flags: MW
HStem: -10 89<284 383.5> 0 89<629 974 629 988> 306 89<629 936 629 936> 597 89<629 968 629 629> 607 89<287 379.5 258 406>
VStem: 61 98<298 388 227 484.5> 531 98<0 306 58 306 298 306 89 388 395 459>
LayerCount: 2
Fore
SplineSet
138 613.5 m 128,-1,1
 215 696 215 696 336 696 c 128,-1,2
 457 696 457 696 531 628 c 1,3,-1
 531 686 l 1,4,-1
 981 686 l 1,5,-1
 968 597 l 1,6,-1
 629 597 l 1,7,-1
 629 395 l 1,8,-1
 936 395 l 1,9,-1
 936 306 l 1,10,-1
 629 306 l 1,11,-1
 629 89 l 1,12,-1
 974 89 l 1,13,-1
 988 0 l 1,14,-1
 531 0 l 1,15,-1
 531 58 l 1,16,17
 460 -10 460 -10 338 -10 c 128,-1,18
 216 -10 216 -10 138.5 72.5 c 128,-1,19
 61 155 61 155 61 298 c 2,20,-1
 61 388 l 2,21,0
 61 531 61 531 138 613.5 c 128,-1,1
483.5 551 m 128,-1,23
 436 607 436 607 346.5 607 c 128,-1,24
 257 607 257 607 208 551 c 128,-1,25
 159 495 159 495 159 388 c 2,26,-1
 159 298 l 2,27,28
 159 191 159 191 206.5 135 c 128,-1,29
 254 79 254 79 343.5 79 c 128,-1,30
 433 79 433 79 482 134.5 c 128,-1,31
 531 190 531 190 531 298 c 2,32,-1
 531 388 l 2,33,22
 531 495 531 495 483.5 551 c 128,-1,23
EndSplineSet
Position2: "'cpsp' Capital Spacing lookup 0 subtable" dx=5 dy=0 dh=10 dv=0
EndChar

StartChar: P
Encoding: 80 80 67
Width: 624
GlyphClass: 2
Flags: MW
HStem: 286 89<190 379 379 388 190 379> 597 89<190 190 190 379>
VStem: 92 98<0 286 0 375 375 597> 495 98<454.5 517.5>
LayerCount: 2
Fore
SplineSet
92 686 m 1,0,-1
 388 686 l 2,1,2
 477 686 477 686 535 629.5 c 128,-1,3
 593 573 593 573 593 486 c 128,-1,4
 593 399 593 399 535 342.5 c 128,-1,5
 477 286 477 286 388 286 c 2,6,-1
 190 286 l 1,7,-1
 190 0 l 1,8,-1
 92 0 l 1,9,-1
 92 686 l 1,0,-1
190 597 m 1,10,-1
 190 375 l 1,11,-1
 379 375 l 2,12,13
 426 375 426 375 460.5 407.5 c 128,-1,14
 495 440 495 440 495 486.5 c 0,15,16
 495 533 495 533 460.5 565 c 128,-1,17
 426 597 426 597 379 597 c 2,18,-1
 190 597 l 1,10,-1
EndSplineSet
Position2: "'cpsp' Capital Spacing lookup 0 subtable" dx=5 dy=0 dh=10 dv=0
EndChar

StartChar: Thorn
Encoding: 222 222 68
Width: 633
GlyphClass: 2
Flags: MW
HStem: 162 89<190 379 379 388 190 379> 473 89<190 388 190 379> 666 20G<92 190 190 190>
VStem: 92 98<0 162 0 251 251 473 562 686> 495 98<330.5 393.5>
LayerCount: 2
Fore
SplineSet
190 562 m 1,0,-1
 388 562 l 2,1,2
 477 562 477 562 535 505.5 c 128,-1,3
 593 449 593 449 593 362 c 128,-1,4
 593 275 593 275 535 218.5 c 128,-1,5
 477 162 477 162 388 162 c 2,6,-1
 190 162 l 1,7,-1
 190 0 l 1,8,-1
 92 0 l 1,9,-1
 92 686 l 1,10,-1
 190 686 l 1,11,-1
 190 562 l 1,0,-1
190 473 m 1,12,-1
 190 251 l 1,13,-1
 379 251 l 2,14,15
 426 251 426 251 460.5 283.5 c 128,-1,16
 495 316 495 316 495 362.5 c 0,17,18
 495 409 495 409 460.5 441 c 128,-1,19
 426 473 426 473 379 473 c 2,20,-1
 190 473 l 1,12,-1
EndSplineSet
Position2: "'cpsp' Capital Spacing lookup 0 subtable" dx=5 dy=0 dh=10 dv=0
EndChar

StartChar: Q
Encoding: 81 81 69
Width: 690
GlyphClass: 2
Flags: MW
HStem: -145 75<479 516 479 519> -25 20G 607 89<287 406>
VStem: 61 98<298 388 227 484.5> 531 98<298 388 214.5 459>
LayerCount: 2
Fore
SplineSet
345 696 m 128,-1,1
 474 696 474 696 551.5 613.5 c 128,-1,2
 629 531 629 531 629 388 c 2,3,-1
 629 298 l 2,4,5
 629 173 629 173 569 92.5 c 128,-1,6
 509 12 509 12 402 -5 c 1,7,8
 419 -70 419 -70 501 -70 c 0,9,10
 546 -70 546 -70 606 -46 c 1,11,-1
 618 -42 l 1,12,-1
 618 -112 l 1,13,14
 560 -145 560 -145 503.5 -145 c 0,15,16
 394.476190476 -145 394.476190476 -145 354.485286249 -104.033707865 c 128,-1,17
 314.494382022 -63.0674157303 314.494382022 -63.0674157303 305 -8 c 1,18,19
 189 6 189 6 125 86.5 c 128,-1,20
 61 167 61 167 61 298 c 2,21,-1
 61 388 l 2,22,23
 61 531 61 531 138.5 613.5 c 128,-1,0
 216 696 216 696 345 696 c 128,-1,1
483.5 551 m 128,-1,25
 436 607 436 607 346.5 607 c 128,-1,26
 257 607 257 607 208 551 c 128,-1,27
 159 495 159 495 159 388 c 2,28,-1
 159 298 l 2,29,30
 159 191 159 191 206.5 135 c 128,-1,31
 254 79 254 79 343.5 79 c 128,-1,32
 433 79 433 79 482 134.5 c 128,-1,33
 531 190 531 190 531 298 c 2,34,-1
 531 388 l 2,35,24
 531 495 531 495 483.5 551 c 128,-1,25
EndSplineSet
Position2: "'cpsp' Capital Spacing lookup 0 subtable" dx=5 dy=0 dh=10 dv=0
EndChar

StartChar: R
Encoding: 82 82 70
Width: 670
GlyphClass: 2
Flags: MW
HStem: 302 89<190 364 190 385> 597 89<190 190 190 384 384 385>
VStem: 92 98<0 302 0 391 391 597> 481 98<113 186.5> 494 98<492 496 496 524.5>
AnchorPoint: "Bottom" 335 0 basechar 0
LayerCount: 2
Fore
SplineSet
92 686 m 1,0,-1
 384 686 l 2,1,2
 475 686 475 686 533.5 643 c 128,-1,3
 592 600 592 600 592 529 c 0,4,5
 592 458 592 458 556.5 411 c 128,-1,6
 521 364 521 364 469 354 c 1,7,-1
 469 349 l 1,8,9
 517 330 517 330 548 283 c 128,-1,10
 579 236 579 236 579 175.5 c 0,11,12
 579 115 579 115 586 85.5 c 128,-1,13
 593 56 593 56 602 46.5 c 128,-1,14
 611 37 611 37 630 31 c 1,15,-1
 630 3 l 1,16,17
 608 -6 608 -6 583 -6 c 0,18,19
 535 -6 535 -6 508 22.5 c 128,-1,20
 481 51 481 51 481 131 c 0,21,22
 481 211 481 211 447.5 256.5 c 128,-1,23
 414 302 414 302 364 302 c 2,24,-1
 190 302 l 1,25,-1
 190 0 l 1,26,-1
 92 0 l 1,27,-1
 92 686 l 1,0,-1
190 597 m 1,28,-1
 190 391 l 1,29,-1
 385 391 l 2,30,31
 428 391 428 391 461 420 c 128,-1,32
 494 449 494 449 494 492 c 2,33,-1
 494 496 l 2,34,35
 494 540 494 540 464 568.5 c 128,-1,36
 434 597 434 597 385 597 c 2,37,-1
 190 597 l 1,28,-1
EndSplineSet
Position2: "'cpsp' Capital Spacing lookup 0 subtable" dx=5 dy=0 dh=10 dv=0
EndChar

StartChar: Racute
Encoding: 340 340 71
Width: 670
GlyphClass: 2
Flags: MW
HStem: 302 89<190 364 190 385> 597 89<190 190 190 384 384 385> 750 145<282 466 282 466>
VStem: 92 98<0 302 0 391 391 597> 481 98<113 186.5> 494 98<492 496 496 524.5>
AnchorPoint: "Bottom" 335 0 basechar 0
LayerCount: 2
Fore
SplineSet
467 892 m 1,0,-1
 351 750 l 1,1,-1
 282 750 l 1,2,-1
 376 895 l 1,3,-1
 466 895 l 1,4,-1
 467 892 l 1,0,-1
92 686 m 1,5,-1
 384 686 l 2,6,7
 475 686 475 686 533.5 643 c 128,-1,8
 592 600 592 600 592 529 c 0,9,10
 592 458 592 458 556.5 411 c 128,-1,11
 521 364 521 364 469 354 c 1,12,-1
 469 349 l 1,13,14
 517 330 517 330 548 283 c 128,-1,15
 579 236 579 236 579 175.5 c 0,16,17
 579 115 579 115 586 85.5 c 128,-1,18
 593 56 593 56 602 46.5 c 128,-1,19
 611 37 611 37 630 31 c 1,20,-1
 630 3 l 1,21,22
 608 -6 608 -6 583 -6 c 0,23,24
 535 -6 535 -6 508 22.5 c 128,-1,25
 481 51 481 51 481 131 c 0,26,27
 481 211 481 211 447.5 256.5 c 128,-1,28
 414 302 414 302 364 302 c 2,29,-1
 190 302 l 1,30,-1
 190 0 l 1,31,-1
 92 0 l 1,32,-1
 92 686 l 1,5,-1
190 597 m 1,33,-1
 190 391 l 1,34,-1
 385 391 l 2,35,36
 428 391 428 391 461 420 c 128,-1,37
 494 449 494 449 494 492 c 2,38,-1
 494 496 l 2,39,40
 494 540 494 540 464 568.5 c 128,-1,41
 434 597 434 597 385 597 c 2,42,-1
 190 597 l 1,33,-1
EndSplineSet
EndChar

StartChar: Rcaron
Encoding: 344 344 72
Width: 670
GlyphClass: 2
Flags: MW
HStem: 302 89<190 364 190 385> 597 89<190 190 190 384 384 385> 750 145<161 375 161 297>
VStem: 92 98<0 302 0 391 391 597> 481 98<113 186.5> 494 98<492 496 496 524.5>
AnchorPoint: "Bottom" 335 0 basechar 0
LayerCount: 2
Fore
SplineSet
375 750 m 1,0,-1
 297 750 l 1,1,-1
 161 895 l 1,2,-1
 241 895 l 1,3,-1
 336 806 l 1,4,-1
 430 895 l 1,5,-1
 510 895 l 1,6,-1
 375 750 l 1,0,-1
92 686 m 1,7,-1
 384 686 l 2,8,9
 475 686 475 686 533.5 643 c 128,-1,10
 592 600 592 600 592 529 c 0,11,12
 592 458 592 458 556.5 411 c 128,-1,13
 521 364 521 364 469 354 c 1,14,-1
 469 349 l 1,15,16
 517 330 517 330 548 283 c 128,-1,17
 579 236 579 236 579 175.5 c 0,18,19
 579 115 579 115 586 85.5 c 128,-1,20
 593 56 593 56 602 46.5 c 128,-1,21
 611 37 611 37 630 31 c 1,22,-1
 630 3 l 1,23,24
 608 -6 608 -6 583 -6 c 0,25,26
 535 -6 535 -6 508 22.5 c 128,-1,27
 481 51 481 51 481 131 c 0,28,29
 481 211 481 211 447.5 256.5 c 128,-1,30
 414 302 414 302 364 302 c 2,31,-1
 190 302 l 1,32,-1
 190 0 l 1,33,-1
 92 0 l 1,34,-1
 92 686 l 1,7,-1
190 597 m 1,35,-1
 190 391 l 1,36,-1
 385 391 l 2,37,38
 428 391 428 391 461 420 c 128,-1,39
 494 449 494 449 494 492 c 2,40,-1
 494 496 l 2,41,42
 494 540 494 540 464 568.5 c 128,-1,43
 434 597 434 597 385 597 c 2,44,-1
 190 597 l 1,35,-1
EndSplineSet
EndChar

StartChar: Rcommaaccent
Encoding: 342 342 73
Width: 670
GlyphClass: 2
Flags: MW
HStem: -151 111<284 325 284 385> 302 89<190 364 190 385> 597 89<190 190 190 384 384 385>
VStem: 92 98<0 302 0 391 391 597> 284 101<-125 -125 -125 -40 -125 -40> 481 98<113 186.5> 494 98<492 496 496 524.5>
AnchorPoint: "Bottom" 335 0 basechar 0
LayerCount: 2
Fore
SplineSet
92 686 m 1,0,-1
 384 686 l 2,1,2
 475 686 475 686 533.5 643 c 128,-1,3
 592 600 592 600 592 529 c 0,4,5
 592 458 592 458 556.5 411 c 128,-1,6
 521 364 521 364 469 354 c 1,7,-1
 469 349 l 1,8,9
 517 330 517 330 548 283 c 128,-1,10
 579 236 579 236 579 175.5 c 0,11,12
 579 115 579 115 586 85.5 c 128,-1,13
 593 56 593 56 602 46.5 c 128,-1,14
 611 37 611 37 630 31 c 1,15,-1
 630 3 l 1,16,17
 608 -6 608 -6 583 -6 c 0,18,19
 535 -6 535 -6 508 22.5 c 128,-1,20
 481 51 481 51 481 131 c 0,21,22
 481 211 481 211 447.5 256.5 c 128,-1,23
 414 302 414 302 364 302 c 2,24,-1
 190 302 l 1,25,-1
 190 0 l 1,26,-1
 92 0 l 1,27,-1
 92 686 l 1,0,-1
190 597 m 1,28,-1
 190 391 l 1,29,-1
 385 391 l 2,30,31
 428 391 428 391 461 420 c 128,-1,32
 494 449 494 449 494 492 c 2,33,-1
 494 496 l 2,34,35
 494 540 494 540 464 568.5 c 128,-1,36
 434 597 434 597 385 597 c 2,37,-1
 190 597 l 1,28,-1
385 -125 m 1,38,-1
 356 -250 l 1,39,-1
 303 -250 l 1,40,-1
 325 -151 l 1,41,-1
 284 -151 l 1,42,-1
 284 -40 l 1,43,-1
 385 -40 l 1,44,-1
 385 -125 l 1,38,-1
EndSplineSet
EndChar

StartChar: S
Encoding: 83 83 74
Width: 627
GlyphClass: 2
Flags: MW
HStem: -10 89<264 364 264 391.5> 607 89<269.5 357.5>
VStem: 52 98<154.5 194 154.5 195> 68 98<437.5 545.5 437.5 570.5> 458 98<492 504 492 507 492 539.5> 476 98<150 270>
AnchorPoint: "Bottom" 314 0 basechar 0
LayerCount: 2
Fore
SplineSet
135 648 m 128,-1,1
 202 696 202 696 314.5 696 c 128,-1,2
 427 696 427 696 491.5 646 c 128,-1,3
 556 596 556 596 556 504 c 2,4,-1
 556 492 l 1,5,-1
 458 492 l 1,6,-1
 458 507 l 2,7,8
 458 555 458 555 419 581 c 128,-1,9
 380 607 380 607 312.5 607 c 128,-1,10
 245 607 245 607 205.5 583.5 c 128,-1,11
 166 560 166 560 166 516.5 c 128,-1,12
 166 473 166 473 208 447.5 c 128,-1,13
 250 422 250 422 310 408 c 128,-1,14
 370 394 370 394 430 375.5 c 128,-1,15
 490 357 490 357 532 315 c 128,-1,16
 574 273 574 273 574 205 c 0,17,18
 574 -10 574 -10 313 -10 c 0,19,20
 189 -10 189 -10 120.5 42.5 c 128,-1,21
 52 95 52 95 52 195 c 1,22,-1
 53 215 l 1,23,-1
 151 215 l 1,24,-1
 150 194 l 1,25,26
 150 136 150 136 193.5 107.5 c 128,-1,27
 237 79 237 79 313 79 c 128,-1,28
 389 79 389 79 432.5 106.5 c 128,-1,29
 476 134 476 134 476 178.5 c 128,-1,30
 476 223 476 223 446 250 c 128,-1,31
 416 277 416 277 370.5 288.5 c 128,-1,32
 325 300 325 300 272 316 c 128,-1,33
 219 332 219 332 173.5 349 c 128,-1,34
 128 366 128 366 98 405 c 128,-1,35
 68 444 68 444 68 501 c 0,36,0
 68 600 68 600 135 648 c 128,-1,1
EndSplineSet
Position2: "'cpsp' Capital Spacing lookup 0 subtable" dx=5 dy=0 dh=10 dv=0
EndChar

StartChar: Sacute
Encoding: 346 346 75
Width: 627
GlyphClass: 2
Flags: MW
HStem: -10 89<264 364 264 391.5> 607 89<269.5 357.5> 750 145<261 445 261 445>
VStem: 52 98<154.5 194 154.5 195> 68 98<437.5 545.5 437.5 570.5> 458 98<492 504 492 507 492 539.5> 476 98<150 270>
AnchorPoint: "Bottom" 314 0 basechar 0
LayerCount: 2
Fore
SplineSet
446 892 m 1,0,-1
 330 750 l 1,1,-1
 261 750 l 1,2,-1
 355 895 l 1,3,-1
 445 895 l 1,4,-1
 446 892 l 1,0,-1
135 648 m 128,-1,6
 202 696 202 696 314.5 696 c 128,-1,7
 427 696 427 696 491.5 646 c 128,-1,8
 556 596 556 596 556 504 c 2,9,-1
 556 492 l 1,10,-1
 458 492 l 1,11,-1
 458 507 l 2,12,13
 458 555 458 555 419 581 c 128,-1,14
 380 607 380 607 312.5 607 c 128,-1,15
 245 607 245 607 205.5 583.5 c 128,-1,16
 166 560 166 560 166 516.5 c 128,-1,17
 166 473 166 473 208 447.5 c 128,-1,18
 250 422 250 422 310 408 c 128,-1,19
 370 394 370 394 430 375.5 c 128,-1,20
 490 357 490 357 532 315 c 128,-1,21
 574 273 574 273 574 205 c 0,22,23
 574 -10 574 -10 313 -10 c 0,24,25
 189 -10 189 -10 120.5 42.5 c 128,-1,26
 52 95 52 95 52 195 c 1,27,-1
 53 215 l 1,28,-1
 151 215 l 1,29,-1
 150 194 l 1,30,31
 150 136 150 136 193.5 107.5 c 128,-1,32
 237 79 237 79 313 79 c 128,-1,33
 389 79 389 79 432.5 106.5 c 128,-1,34
 476 134 476 134 476 178.5 c 128,-1,35
 476 223 476 223 446 250 c 128,-1,36
 416 277 416 277 370.5 288.5 c 128,-1,37
 325 300 325 300 272 316 c 128,-1,38
 219 332 219 332 173.5 349 c 128,-1,39
 128 366 128 366 98 405 c 128,-1,40
 68 444 68 444 68 501 c 0,41,5
 68 600 68 600 135 648 c 128,-1,6
EndSplineSet
EndChar

StartChar: Scaron
Encoding: 352 352 76
Width: 627
GlyphClass: 2
Flags: MW
HStem: -10 89<264 364 264 391.5> 607 89<269.5 357.5> 750 145<141 355 141 277>
VStem: 52 98<154.5 194 154.5 195> 68 98<437.5 545.5 437.5 570.5> 458 98<492 504 492 507 492 539.5> 476 98<150 270>
LayerCount: 2
Fore
SplineSet
355 750 m 1,0,-1
 277 750 l 1,1,-1
 141 895 l 1,2,-1
 221 895 l 1,3,-1
 316 806 l 1,4,-1
 410 895 l 1,5,-1
 490 895 l 1,6,-1
 355 750 l 1,0,-1
135 648 m 128,-1,8
 202 696 202 696 314.5 696 c 128,-1,9
 427 696 427 696 491.5 646 c 128,-1,10
 556 596 556 596 556 504 c 2,11,-1
 556 492 l 1,12,-1
 458 492 l 1,13,-1
 458 507 l 2,14,15
 458 555 458 555 419 581 c 128,-1,16
 380 607 380 607 312.5 607 c 128,-1,17
 245 607 245 607 205.5 583.5 c 128,-1,18
 166 560 166 560 166 516.5 c 128,-1,19
 166 473 166 473 208 447.5 c 128,-1,20
 250 422 250 422 310 408 c 128,-1,21
 370 394 370 394 430 375.5 c 128,-1,22
 490 357 490 357 532 315 c 128,-1,23
 574 273 574 273 574 205 c 0,24,25
 574 -10 574 -10 313 -10 c 0,26,27
 189 -10 189 -10 120.5 42.5 c 128,-1,28
 52 95 52 95 52 195 c 1,29,-1
 53 215 l 1,30,-1
 151 215 l 1,31,-1
 150 194 l 1,32,33
 150 136 150 136 193.5 107.5 c 128,-1,34
 237 79 237 79 313 79 c 128,-1,35
 389 79 389 79 432.5 106.5 c 128,-1,36
 476 134 476 134 476 178.5 c 128,-1,37
 476 223 476 223 446 250 c 128,-1,38
 416 277 416 277 370.5 288.5 c 128,-1,39
 325 300 325 300 272 316 c 128,-1,40
 219 332 219 332 173.5 349 c 128,-1,41
 128 366 128 366 98 405 c 128,-1,42
 68 444 68 444 68 501 c 0,43,7
 68 600 68 600 135 648 c 128,-1,8
EndSplineSet
Position2: "'cpsp' Capital Spacing lookup 0 subtable" dx=5 dy=0 dh=10 dv=0
EndChar

StartChar: Scedilla
Encoding: 350 350 77
Width: 627
GlyphClass: 2
Flags: MW
HStem: -197 51<292.5 313 280 340> -60 43<284 305 284 308> -10 89<264 364 264 391.5> 607 89<269.5 357.5>
VStem: 52 98<154.5 194 154.5 195> 68 98<437.5 545.5 437.5 570.5> 357 62<-116 -87.5> 458 98<492 504 492 507 492 539.5> 476 98<150 270>
AnchorPoint: "Bottom" 314 0 basechar 0
LayerCount: 2
Fore
SplineSet
135 648 m 128,-1,1
 202 696 202 696 314.5 696 c 128,-1,2
 427 696 427 696 491.5 646 c 128,-1,3
 556 596 556 596 556 504 c 2,4,-1
 556 492 l 1,5,-1
 458 492 l 1,6,-1
 458 507 l 2,7,8
 458 555 458 555 419 581 c 128,-1,9
 380 607 380 607 312.5 607 c 128,-1,10
 245 607 245 607 205.5 583.5 c 128,-1,11
 166 560 166 560 166 516.5 c 128,-1,12
 166 473 166 473 208 447.5 c 128,-1,13
 250 422 250 422 310 408 c 128,-1,14
 370 394 370 394 430 375.5 c 128,-1,15
 490 357 490 357 532 315 c 128,-1,16
 574 273 574 273 574 205 c 0,17,18
 574 -10 574 -10 313 -10 c 0,19,20
 189 -10 189 -10 120.5 42.5 c 128,-1,21
 52 95 52 95 52 195 c 1,22,-1
 53 215 l 1,23,-1
 151 215 l 1,24,-1
 150 194 l 1,25,26
 150 136 150 136 193.5 107.5 c 128,-1,27
 237 79 237 79 313 79 c 128,-1,28
 389 79 389 79 432.5 106.5 c 128,-1,29
 476 134 476 134 476 178.5 c 128,-1,30
 476 223 476 223 446 250 c 128,-1,31
 416 277 416 277 370.5 288.5 c 128,-1,32
 325 300 325 300 272 316 c 128,-1,33
 219 332 219 332 173.5 349 c 128,-1,34
 128 366 128 366 98 405 c 128,-1,35
 68 444 68 444 68 501 c 0,36,0
 68 600 68 600 135 648 c 128,-1,1
284 -17 m 1,37,-1
 308 -17 l 2,38,39
 419 -17 419 -17 419 -106 c 0,40,41
 419 -147 419 -147 387.5 -172 c 128,-1,42
 356 -197 356 -197 314 -197 c 0,43,44
 249 -197 249 -197 209 -175 c 1,45,-1
 218 -126 l 1,46,47
 260 -146 260 -146 291 -146 c 0,48,49
 357 -146 357 -146 357 -101 c 0,50,51
 357 -82 357 -82 342 -71 c 128,-1,52
 327 -60 327 -60 305 -60 c 2,53,-1
 284 -60 l 1,54,-1
 284 -17 l 1,37,-1
EndSplineSet
EndChar

StartChar: Scommaaccent
Encoding: 536 536 78
Width: 627
GlyphClass: 2
Flags: MW
HStem: -151 111<263 304 263 364> -10 89<264 364 264 391.5> 607 89<269.5 357.5>
VStem: 52 98<154.5 194 154.5 195> 68 98<437.5 545.5 437.5 570.5> 263 101<-125 -125 -125 -40 -125 -40> 458 98<492 504 492 507 492 539.5> 476 98<150 270>
AnchorPoint: "Bottom" 314 0 basechar 0
LayerCount: 2
Fore
SplineSet
135 648 m 128,-1,1
 202 696 202 696 314.5 696 c 128,-1,2
 427 696 427 696 491.5 646 c 128,-1,3
 556 596 556 596 556 504 c 2,4,-1
 556 492 l 1,5,-1
 458 492 l 1,6,-1
 458 507 l 2,7,8
 458 555 458 555 419 581 c 128,-1,9
 380 607 380 607 312.5 607 c 128,-1,10
 245 607 245 607 205.5 583.5 c 128,-1,11
 166 560 166 560 166 516.5 c 128,-1,12
 166 473 166 473 208 447.5 c 128,-1,13
 250 422 250 422 310 408 c 128,-1,14
 370 394 370 394 430 375.5 c 128,-1,15
 490 357 490 357 532 315 c 128,-1,16
 574 273 574 273 574 205 c 0,17,18
 574 -10 574 -10 313 -10 c 0,19,20
 189 -10 189 -10 120.5 42.5 c 128,-1,21
 52 95 52 95 52 195 c 1,22,-1
 53 215 l 1,23,-1
 151 215 l 1,24,-1
 150 194 l 1,25,26
 150 136 150 136 193.5 107.5 c 128,-1,27
 237 79 237 79 313 79 c 128,-1,28
 389 79 389 79 432.5 106.5 c 128,-1,29
 476 134 476 134 476 178.5 c 128,-1,30
 476 223 476 223 446 250 c 128,-1,31
 416 277 416 277 370.5 288.5 c 128,-1,32
 325 300 325 300 272 316 c 128,-1,33
 219 332 219 332 173.5 349 c 128,-1,34
 128 366 128 366 98 405 c 128,-1,35
 68 444 68 444 68 501 c 0,36,0
 68 600 68 600 135 648 c 128,-1,1
364 -125 m 1,37,-1
 335 -250 l 1,38,-1
 282 -250 l 1,39,-1
 304 -151 l 1,40,-1
 263 -151 l 1,41,-1
 263 -40 l 1,42,-1
 364 -40 l 1,43,-1
 364 -125 l 1,37,-1
EndSplineSet
EndChar

StartChar: T
Encoding: 84 84 79
Width: 578
GlyphClass: 2
Flags: MW
HStem: 597 89<25 240 25 553 338 553 338 338>
VStem: 240 98<0 597 0 597>
AnchorPoint: "Bottom" 289 0 basechar 0
LayerCount: 2
Fore
SplineSet
553 597 m 1,0,-1
 338 597 l 1,1,-1
 338 0 l 1,2,-1
 240 0 l 1,3,-1
 240 597 l 1,4,-1
 25 597 l 1,5,-1
 25 686 l 1,6,-1
 553 686 l 1,7,-1
 553 597 l 1,0,-1
EndSplineSet
Position2: "'cpsp' Capital Spacing lookup 0 subtable" dx=5 dy=0 dh=10 dv=0
EndChar

StartChar: Tcaron
Encoding: 356 356 80
Width: 578
GlyphClass: 2
Flags: MW
HStem: 597 89<25 240 25 553 338 553 338 338> 750 145<115 329 115 251>
VStem: 240 98<0 597 0 597>
AnchorPoint: "Bottom" 289 0 basechar 0
LayerCount: 2
Fore
SplineSet
329 750 m 1,0,-1
 251 750 l 1,1,-1
 115 895 l 1,2,-1
 195 895 l 1,3,-1
 290 806 l 1,4,-1
 384 895 l 1,5,-1
 464 895 l 1,6,-1
 329 750 l 1,0,-1
553 597 m 1,7,-1
 338 597 l 1,8,-1
 338 0 l 1,9,-1
 240 0 l 1,10,-1
 240 597 l 1,11,-1
 25 597 l 1,12,-1
 25 686 l 1,13,-1
 553 686 l 1,14,-1
 553 597 l 1,7,-1
EndSplineSet
EndChar

StartChar: Tcedilla
Encoding: 354 354 81
Width: 578
GlyphClass: 2
Flags: MW
HStem: -197 51<267.5 288 255 315> -60 43<259 280 259 283> 597 89<25 240 25 553 338 553 338 338>
VStem: 240 98<0 597 0 597> 332 62<-116 -87.5>
AnchorPoint: "Bottom" 289 0 basechar 0
LayerCount: 2
Fore
SplineSet
553 597 m 1,0,-1
 338 597 l 1,1,-1
 338 0 l 1,2,-1
 240 0 l 1,3,-1
 240 597 l 1,4,-1
 25 597 l 1,5,-1
 25 686 l 1,6,-1
 553 686 l 1,7,-1
 553 597 l 1,0,-1
259 -17 m 1,8,-1
 283 -17 l 2,9,10
 394 -17 394 -17 394 -106 c 0,11,12
 394 -147 394 -147 362.5 -172 c 128,-1,13
 331 -197 331 -197 289 -197 c 0,14,15
 224 -197 224 -197 184 -175 c 1,16,-1
 193 -126 l 1,17,18
 235 -146 235 -146 266 -146 c 0,19,20
 332 -146 332 -146 332 -101 c 0,21,22
 332 -82 332 -82 317 -71 c 128,-1,23
 302 -60 302 -60 280 -60 c 2,24,-1
 259 -60 l 1,25,-1
 259 -17 l 1,8,-1
EndSplineSet
EndChar

StartChar: Tcommaaccent
Encoding: 538 538 82
Width: 578
GlyphClass: 2
Flags: MW
HStem: -151 111<238 279 238 339> 597 89<25 240 25 553 338 553 338 338>
VStem: 240 98<0 597 0 597>
AnchorPoint: "Bottom" 289 0 basechar 0
LayerCount: 2
Fore
SplineSet
553 597 m 1,0,-1
 338 597 l 1,1,-1
 338 0 l 1,2,-1
 240 0 l 1,3,-1
 240 597 l 1,4,-1
 25 597 l 1,5,-1
 25 686 l 1,6,-1
 553 686 l 1,7,-1
 553 597 l 1,0,-1
339 -125 m 1,8,-1
 310 -250 l 1,9,-1
 257 -250 l 1,10,-1
 279 -151 l 1,11,-1
 238 -151 l 1,12,-1
 238 -40 l 1,13,-1
 339 -40 l 1,14,-1
 339 -125 l 1,8,-1
EndSplineSet
EndChar

StartChar: U
Encoding: 85 85 83
Width: 680
GlyphClass: 2
Flags: MW
HStem: -10 89<296.5 333 333 346> 666 20G<86 184 184 184 496 594 594 594>
VStem: 86 98<219 221 221 686> 496 98<221 686>
LayerCount: 2
Fore
SplineSet
594 686 m 1,0,-1
 594 219 l 2,1,2
 594 115 594 115 526 52.5 c 128,-1,3
 458 -10 458 -10 346 -10 c 2,4,-1
 333 -10 l 2,5,6
 221 -10 221 -10 153.5 52 c 128,-1,7
 86 114 86 114 86 219 c 2,8,-1
 86 686 l 1,9,-1
 184 686 l 1,10,-1
 184 221 l 2,11,12
 184 157 184 157 228.5 118 c 128,-1,13
 273 79 273 79 343 79 c 0,14,15
 413 79 413 79 454.5 118 c 128,-1,16
 496 157 496 157 496 221 c 2,17,-1
 496 686 l 1,18,-1
 594 686 l 1,0,-1
EndSplineSet
Position2: "'cpsp' Capital Spacing lookup 0 subtable" dx=5 dy=0 dh=10 dv=0
EndChar

StartChar: Uacute
Encoding: 218 218 84
Width: 680
GlyphClass: 2
Flags: MW
HStem: -10 89<296.5 333 333 346> 666 20G<86 184 184 184 496 594 594 594> 750 145<304 488 304 488>
VStem: 86 98<219 221 221 686> 496 98<221 686>
LayerCount: 2
Fore
SplineSet
489 892 m 1,0,-1
 373 750 l 1,1,-1
 304 750 l 1,2,-1
 398 895 l 1,3,-1
 488 895 l 1,4,-1
 489 892 l 1,0,-1
594 686 m 1,5,-1
 594 219 l 2,6,7
 594 115 594 115 526 52.5 c 128,-1,8
 458 -10 458 -10 346 -10 c 2,9,-1
 333 -10 l 2,10,11
 221 -10 221 -10 153.5 52 c 128,-1,12
 86 114 86 114 86 219 c 2,13,-1
 86 686 l 1,14,-1
 184 686 l 1,15,-1
 184 221 l 2,16,17
 184 157 184 157 228.5 118 c 128,-1,18
 273 79 273 79 343 79 c 0,19,20
 413 79 413 79 454.5 118 c 128,-1,21
 496 157 496 157 496 221 c 2,22,-1
 496 686 l 1,23,-1
 594 686 l 1,5,-1
EndSplineSet
Position2: "'cpsp' Capital Spacing lookup 0 subtable" dx=5 dy=0 dh=10 dv=0
EndChar

StartChar: Ucircumflex
Encoding: 219 219 85
Width: 680
GlyphClass: 2
Flags: MW
HStem: -10 89<296.5 333 333 346> 666 20G<86 184 184 184 496 594 594 594> 750 145<165 379 165 379 301 514 301 434>
VStem: 86 98<219 221 221 686> 496 98<221 686>
LayerCount: 2
Fore
SplineSet
514 750 m 1,0,-1
 434 750 l 1,1,-1
 340 839 l 1,2,-1
 245 750 l 1,3,-1
 165 750 l 1,4,-1
 301 895 l 1,5,-1
 379 895 l 1,6,-1
 514 750 l 1,0,-1
594 686 m 1,7,-1
 594 219 l 2,8,9
 594 115 594 115 526 52.5 c 128,-1,10
 458 -10 458 -10 346 -10 c 2,11,-1
 333 -10 l 2,12,13
 221 -10 221 -10 153.5 52 c 128,-1,14
 86 114 86 114 86 219 c 2,15,-1
 86 686 l 1,16,-1
 184 686 l 1,17,-1
 184 221 l 2,18,19
 184 157 184 157 228.5 118 c 128,-1,20
 273 79 273 79 343 79 c 0,21,22
 413 79 413 79 454.5 118 c 128,-1,23
 496 157 496 157 496 221 c 2,24,-1
 496 686 l 1,25,-1
 594 686 l 1,7,-1
EndSplineSet
Position2: "'cpsp' Capital Spacing lookup 0 subtable" dx=5 dy=0 dh=10 dv=0
EndChar

StartChar: Udieresis
Encoding: 220 220 86
Width: 680
GlyphClass: 2
Flags: MW
HStem: -10 89<296.5 333 333 346> 666 20G<86 184 184 184 496 594 594 594> 750 98<201 291 201 291 389 480>
VStem: 86 98<219 221 221 686> 201 90<750 848> 389 91<750 848> 496 98<221 686>
LayerCount: 2
Fore
SplineSet
291 750 m 1,0,-1
 201 750 l 1,1,-1
 201 848 l 1,2,-1
 291 848 l 1,3,-1
 291 750 l 1,0,-1
480 750 m 1,4,-1
 389 750 l 1,5,-1
 389 848 l 1,6,-1
 480 848 l 1,7,-1
 480 750 l 1,4,-1
594 686 m 1,8,-1
 594 219 l 2,9,10
 594 115 594 115 526 52.5 c 128,-1,11
 458 -10 458 -10 346 -10 c 2,12,-1
 333 -10 l 2,13,14
 221 -10 221 -10 153.5 52 c 128,-1,15
 86 114 86 114 86 219 c 2,16,-1
 86 686 l 1,17,-1
 184 686 l 1,18,-1
 184 221 l 2,19,20
 184 157 184 157 228.5 118 c 128,-1,21
 273 79 273 79 343 79 c 0,22,23
 413 79 413 79 454.5 118 c 128,-1,24
 496 157 496 157 496 221 c 2,25,-1
 496 686 l 1,26,-1
 594 686 l 1,8,-1
EndSplineSet
Position2: "'cpsp' Capital Spacing lookup 0 subtable" dx=5 dy=0 dh=10 dv=0
EndChar

StartChar: Ugrave
Encoding: 217 217 87
Width: 680
GlyphClass: 2
Flags: MW
HStem: -10 89<296.5 333 333 346> 666 20G<86 184 184 184 496 594 594 594> 750 145<199 383 199 313>
VStem: 86 98<219 221 221 686> 496 98<221 686>
LayerCount: 2
Fore
SplineSet
383 750 m 1,0,-1
 313 750 l 1,1,-1
 198 892 l 1,2,-1
 199 895 l 1,3,-1
 288 895 l 1,4,-1
 383 750 l 1,0,-1
594 686 m 1,5,-1
 594 219 l 2,6,7
 594 115 594 115 526 52.5 c 128,-1,8
 458 -10 458 -10 346 -10 c 2,9,-1
 333 -10 l 2,10,11
 221 -10 221 -10 153.5 52 c 128,-1,12
 86 114 86 114 86 219 c 2,13,-1
 86 686 l 1,14,-1
 184 686 l 1,15,-1
 184 221 l 2,16,17
 184 157 184 157 228.5 118 c 128,-1,18
 273 79 273 79 343 79 c 0,19,20
 413 79 413 79 454.5 118 c 128,-1,21
 496 157 496 157 496 221 c 2,22,-1
 496 686 l 1,23,-1
 594 686 l 1,5,-1
EndSplineSet
Position2: "'cpsp' Capital Spacing lookup 0 subtable" dx=5 dy=0 dh=10 dv=0
EndChar

StartChar: Uhungarumlaut
Encoding: 368 368 88
Width: 680
GlyphClass: 2
Flags: MW
HStem: -10 89<296.5 333 333 346> 666 20G<86 184 184 184 496 594 594 594> 750 145<210 394 210 394 365 365 365 394 305 435>
VStem: 86 98<219 221 221 686> 496 98<221 686>
LayerCount: 2
Fore
SplineSet
395 892 m 1,0,-1
 280 750 l 1,1,-1
 210 750 l 1,2,-1
 305 895 l 1,3,-1
 394 895 l 1,4,-1
 395 892 l 1,0,-1
550 892 m 1,5,-1
 435 750 l 1,6,-1
 365 750 l 1,7,-1
 459 895 l 1,8,-1
 549 895 l 1,9,-1
 550 892 l 1,5,-1
594 686 m 1,10,-1
 594 219 l 2,11,12
 594 115 594 115 526 52.5 c 128,-1,13
 458 -10 458 -10 346 -10 c 2,14,-1
 333 -10 l 2,15,16
 221 -10 221 -10 153.5 52 c 128,-1,17
 86 114 86 114 86 219 c 2,18,-1
 86 686 l 1,19,-1
 184 686 l 1,20,-1
 184 221 l 2,21,22
 184 157 184 157 228.5 118 c 128,-1,23
 273 79 273 79 343 79 c 0,24,25
 413 79 413 79 454.5 118 c 128,-1,26
 496 157 496 157 496 221 c 2,27,-1
 496 686 l 1,28,-1
 594 686 l 1,10,-1
EndSplineSet
EndChar

StartChar: Umacron
Encoding: 362 362 89
Width: 680
GlyphClass: 2
Flags: MW
HStem: -10 89<296.5 333 333 346> 666 20G<86 184 184 184 496 594 594 594> 837 74<181 499 181 499>
VStem: 86 98<219 221 221 686> 496 98<221 686>
LayerCount: 2
Fore
SplineSet
499 837 m 1,0,-1
 181 837 l 1,1,-1
 181 911 l 1,2,-1
 499 911 l 1,3,-1
 499 837 l 1,0,-1
594 686 m 1,4,-1
 594 219 l 2,5,6
 594 115 594 115 526 52.5 c 128,-1,7
 458 -10 458 -10 346 -10 c 2,8,-1
 333 -10 l 2,9,10
 221 -10 221 -10 153.5 52 c 128,-1,11
 86 114 86 114 86 219 c 2,12,-1
 86 686 l 1,13,-1
 184 686 l 1,14,-1
 184 221 l 2,15,16
 184 157 184 157 228.5 118 c 128,-1,17
 273 79 273 79 343 79 c 0,18,19
 413 79 413 79 454.5 118 c 128,-1,20
 496 157 496 157 496 221 c 2,21,-1
 496 686 l 1,22,-1
 594 686 l 1,4,-1
EndSplineSet
EndChar

StartChar: Uogonek
Encoding: 370 370 90
Width: 680
GlyphClass: 2
Flags: MW
HStem: -143 47<415.5 437> -20 20G<427 432 432 432> -10 89<296.5 333 333 346 346 364> 666 20G<86 184 184 184 496 594 594 594>
VStem: 86 98<219 221 221 686> 324 62<-70.5 -57> 496 98<221 686>
LayerCount: 2
Fore
SplineSet
594 686 m 1,0,-1
 594 219 l 2,1,2
 594 136 594 136 549.5 78 c 128,-1,3
 505 20 505 20 427 0 c 1,4,-1
 432 0 l 1,5,6
 415 -10 415 -10 400.5 -26 c 128,-1,7
 386 -42 386 -42 386 -58 c 0,8,9
 386 -96 386 -96 430 -96 c 0,10,11
 450 -96 450 -96 497 -82 c 1,12,-1
 510 -119 l 1,13,14
 470 -143 470 -143 421 -143 c 0,15,16
 324 -143 324 -143 324 -69 c 0,17,18
 324 -40 324 -40 364 -10 c 1,19,-1
 333 -10 l 2,20,21
 221 -10 221 -10 153.5 52 c 128,-1,22
 86 114 86 114 86 219 c 2,23,-1
 86 686 l 1,24,-1
 184 686 l 1,25,-1
 184 221 l 2,26,27
 184 157 184 157 228.5 118 c 128,-1,28
 273 79 273 79 343 79 c 128,-1,29
 413 79 413 79 454.5 118 c 128,-1,30
 496 157 496 157 496 221 c 2,31,-1
 496 686 l 1,32,-1
 594 686 l 1,0,-1
EndSplineSet
EndChar

StartChar: Uring
Encoding: 366 366 91
Width: 680
GlyphClass: 2
Flags: MW
HStem: -10 89<296.5 333 333 346> 666 20G<86 184 184 184 496 594 594 594> 720 47<324.5 355.5 324.5 368> 874 47<324.5 355.5>
VStem: 86 98<219 221 221 686> 239 45<804.5 835.5 804.5 848> 396 45<805.5 835.5> 496 98<221 686>
LayerCount: 2
Fore
SplineSet
268.5 891.5 m 128,-1,1
 298 921 298 921 338.5 921 c 128,-1,2
 379 921 379 921 410 891.5 c 128,-1,3
 441 862 441 862 441 820.5 c 128,-1,4
 441 779 441 779 411.5 749.5 c 128,-1,5
 382 720 382 720 340.5 720 c 128,-1,6
 299 720 299 720 269 749 c 128,-1,7
 239 778 239 778 239 820 c 128,-1,0
 239 862 239 862 268.5 891.5 c 128,-1,1
340 874 m 128,-1,9
 317 874 317 874 300.5 858.5 c 128,-1,10
 284 843 284 843 284 820 c 128,-1,11
 284 797 284 797 300 782 c 128,-1,12
 316 767 316 767 339.5 767 c 128,-1,13
 363 767 363 767 379.5 782.5 c 128,-1,14
 396 798 396 798 396 820.5 c 128,-1,15
 396 843 396 843 379.5 858.5 c 128,-1,8
 363 874 363 874 340 874 c 128,-1,9
594 686 m 1,16,-1
 594 219 l 2,17,18
 594 115 594 115 526 52.5 c 128,-1,19
 458 -10 458 -10 346 -10 c 2,20,-1
 333 -10 l 2,21,22
 221 -10 221 -10 153.5 52 c 128,-1,23
 86 114 86 114 86 219 c 2,24,-1
 86 686 l 1,25,-1
 184 686 l 1,26,-1
 184 221 l 2,27,28
 184 157 184 157 228.5 118 c 128,-1,29
 273 79 273 79 343 79 c 128,-1,30
 413 79 413 79 454.5 118 c 128,-1,31
 496 157 496 157 496 221 c 2,32,-1
 496 686 l 1,33,-1
 594 686 l 1,16,-1
EndSplineSet
EndChar

StartChar: V
Encoding: 86 86 92
Width: 603
GlyphClass: 2
Flags: MW
HStem: 0 133<303 309 303 354 249 309> 666 20G<5 110 110 110 503 598 598 598>
VStem: 5 593<686 686>
LayerCount: 2
Fore
SplineSet
354 0 m 1,0,-1
 249 0 l 1,1,-1
 5 686 l 1,2,-1
 110 686 l 1,3,-1
 303 133 l 1,4,-1
 309 133 l 1,5,-1
 503 686 l 1,6,-1
 598 686 l 1,7,-1
 354 0 l 1,0,-1
EndSplineSet
Position2: "'cpsp' Capital Spacing lookup 0 subtable" dx=5 dy=0 dh=10 dv=0
EndChar

StartChar: W
Encoding: 87 87 93
Width: 916
GlyphClass: 2
Flags: MW
HStem: 0 169<264 270 264 310 210 270 656 662> 496 190<455 462 455 455> 666 20G<14 119 119 119 416 511 511 511 808 903 903 903>
VStem: 14 889<686 686>
LayerCount: 2
Fore
SplineSet
702 0 m 1,0,-1
 602 0 l 1,1,-1
 462 496 l 1,2,-1
 455 496 l 1,3,-1
 310 0 l 1,4,-1
 210 0 l 1,5,-1
 14 686 l 1,6,-1
 119 686 l 1,7,-1
 264 169 l 1,8,-1
 270 169 l 1,9,-1
 416 686 l 1,10,-1
 511 686 l 1,11,-1
 656 169 l 1,12,-1
 662 169 l 1,13,-1
 808 686 l 1,14,-1
 903 686 l 1,15,-1
 702 0 l 1,0,-1
EndSplineSet
Position2: "'cpsp' Capital Spacing lookup 0 subtable" dx=5 dy=0 dh=10 dv=0
EndChar

StartChar: X
Encoding: 88 88 94
Width: 631
GlyphClass: 2
Flags: MW
HStem: 665 20G
VStem: 9 612<0 0>
LayerCount: 2
Fore
SplineSet
372 361 m 1,0,-1
 621 0 l 1,1,-1
 503 0 l 1,2,-1
 313 276 l 1,3,-1
 118 0 l 1,4,-1
 9 0 l 1,5,-1
 259 355 l 1,6,-1
 32 685 l 1,7,-1
 150 685 l 1,8,-1
 318 440 l 1,9,10
 359 498 359 498 414.5 577.5 c 128,-1,11
 470 657 470 657 476 665 c 2,12,-1
 490 685 l 1,13,-1
 599 685 l 1,14,-1
 372 361 l 1,0,-1
EndSplineSet
Position2: "'cpsp' Capital Spacing lookup 0 subtable" dx=5 dy=0 dh=10 dv=0
EndChar

StartChar: Y
Encoding: 89 89 95
Width: 572
GlyphClass: 2
Flags: MW
HStem: 666 20G<-5 107 107 107 475 576 576 576>
VStem: 237 98<0 265 0 265>
LayerCount: 2
Fore
SplineSet
335 265 m 1,0,-1
 335 0 l 1,1,-1
 237 0 l 1,2,-1
 237 265 l 1,3,-1
 -5 686 l 1,4,-1
 107 686 l 1,5,-1
 290 367 l 1,6,-1
 294 367 l 1,7,-1
 475 686 l 1,8,-1
 576 686 l 1,9,-1
 335 265 l 1,0,-1
EndSplineSet
Position2: "'cpsp' Capital Spacing lookup 0 subtable" dx=5 dy=0 dh=10 dv=0
EndChar

StartChar: Yacute
Encoding: 221 221 96
Width: 572
GlyphClass: 2
Flags: MW
HStem: 666 20G<-5 107 107 107 475 576 576 576> 750 145<259 443 259 443>
VStem: 237 98<0 265 0 265>
LayerCount: 2
Fore
SplineSet
444 892 m 1,0,-1
 328 750 l 1,1,-1
 259 750 l 1,2,-1
 353 895 l 1,3,-1
 443 895 l 1,4,-1
 444 892 l 1,0,-1
335 265 m 1,5,-1
 335 0 l 1,6,-1
 237 0 l 1,7,-1
 237 265 l 1,8,-1
 -5 686 l 1,9,-1
 107 686 l 1,10,-1
 290 367 l 1,11,-1
 294 367 l 1,12,-1
 475 686 l 1,13,-1
 576 686 l 1,14,-1
 335 265 l 1,5,-1
EndSplineSet
Position2: "'cpsp' Capital Spacing lookup 0 subtable" dx=5 dy=0 dh=10 dv=0
EndChar

StartChar: Ydieresis
Encoding: 376 376 97
Width: 572
GlyphClass: 2
Flags: MW
HStem: 666 20G<-5 107 107 107 475 576 576 576> 749 98<158 248 158 248 346 437>
VStem: 158 90<749 847> 237 98<0 265 0 265> 346 91<749 847>
LayerCount: 2
Fore
SplineSet
248 749 m 1,0,-1
 158 749 l 1,1,-1
 158 847 l 1,2,-1
 248 847 l 1,3,-1
 248 749 l 1,0,-1
437 749 m 1,4,-1
 346 749 l 1,5,-1
 346 847 l 1,6,-1
 437 847 l 1,7,-1
 437 749 l 1,4,-1
335 265 m 1,8,-1
 335 0 l 1,9,-1
 237 0 l 1,10,-1
 237 265 l 1,11,-1
 -5 686 l 1,12,-1
 107 686 l 1,13,-1
 290 367 l 1,14,-1
 294 367 l 1,15,-1
 475 686 l 1,16,-1
 576 686 l 1,17,-1
 335 265 l 1,8,-1
EndSplineSet
Position2: "'cpsp' Capital Spacing lookup 0 subtable" dx=5 dy=0 dh=10 dv=0
EndChar

StartChar: Z
Encoding: 90 90 98
Width: 596
GlyphClass: 2
Flags: MW
HStem: 0 89<181 555 181 555> 597 89<56 397 56 547>
VStem: 32 523<0 38 38 38>
LayerCount: 2
Fore
SplineSet
547 648 m 1,0,-1
 181 89 l 1,1,-1
 555 89 l 1,2,-1
 555 0 l 1,3,-1
 32 0 l 1,4,-1
 32 38 l 1,5,-1
 397 597 l 1,6,-1
 56 597 l 1,7,-1
 56 686 l 1,8,-1
 547 686 l 1,9,-1
 547 648 l 1,0,-1
EndSplineSet
Position2: "'cpsp' Capital Spacing lookup 0 subtable" dx=5 dy=0 dh=10 dv=0
EndChar

StartChar: Zacute
Encoding: 377 377 99
Width: 596
GlyphClass: 2
Flags: MW
HStem: 0 89<181 555 181 555> 597 89<56 397 56 547> 750 145<245 429 245 429>
VStem: 32 523<0 38 38 38>
LayerCount: 2
Fore
SplineSet
430 892 m 1,0,-1
 314 750 l 1,1,-1
 245 750 l 1,2,-1
 339 895 l 1,3,-1
 429 895 l 1,4,-1
 430 892 l 1,0,-1
547 648 m 1,5,-1
 181 89 l 1,6,-1
 555 89 l 1,7,-1
 555 0 l 1,8,-1
 32 0 l 1,9,-1
 32 38 l 1,10,-1
 397 597 l 1,11,-1
 56 597 l 1,12,-1
 56 686 l 1,13,-1
 547 686 l 1,14,-1
 547 648 l 1,5,-1
EndSplineSet
EndChar

StartChar: Zcaron
Encoding: 381 381 100
Width: 596
GlyphClass: 2
Flags: MW
HStem: 0 89<181 555 181 555> 597 89<56 397 56 547> 750 145<125 339 125 261>
VStem: 32 523<0 38 38 38>
LayerCount: 2
Fore
SplineSet
339 750 m 1,0,-1
 261 750 l 1,1,-1
 125 895 l 1,2,-1
 205 895 l 1,3,-1
 300 806 l 1,4,-1
 394 895 l 1,5,-1
 474 895 l 1,6,-1
 339 750 l 1,0,-1
547 648 m 1,7,-1
 181 89 l 1,8,-1
 555 89 l 1,9,-1
 555 0 l 1,10,-1
 32 0 l 1,11,-1
 32 38 l 1,12,-1
 397 597 l 1,13,-1
 56 597 l 1,14,-1
 56 686 l 1,15,-1
 547 686 l 1,16,-1
 547 648 l 1,7,-1
EndSplineSet
Position2: "'cpsp' Capital Spacing lookup 0 subtable" dx=5 dy=0 dh=10 dv=0
EndChar

StartChar: Zdotaccent
Encoding: 379 379 101
Width: 596
GlyphClass: 2
Flags: MW
HStem: 0 89<181 555 181 555> 597 89<56 397 56 547> 779 132<280 316>
VStem: 232 132<827.5 862.5 825.5 864>
LayerCount: 2
Fore
SplineSet
298 911 m 128,-1,1
 326 911 326 911 345 891.5 c 128,-1,2
 364 872 364 872 364 844.5 c 0,3,4
 364 817 364 817 344.5 798 c 128,-1,5
 325 779 325 779 298 779 c 128,-1,6
 271 779 271 779 251.5 798.5 c 128,-1,7
 232 818 232 818 232 845.5 c 0,8,9
 232 873 232 873 251 892 c 128,-1,0
 270 911 270 911 298 911 c 128,-1,1
547 648 m 1,10,-1
 181 89 l 1,11,-1
 555 89 l 1,12,-1
 555 0 l 1,13,-1
 32 0 l 1,14,-1
 32 38 l 1,15,-1
 397 597 l 1,16,-1
 56 597 l 1,17,-1
 56 686 l 1,18,-1
 547 686 l 1,19,-1
 547 648 l 1,10,-1
EndSplineSet
EndChar

StartChar: a
Encoding: 97 97 102
Width: 585
GlyphClass: 2
Flags: MW
HStem: -10 75<212 254.5> 234 73<282.5 390> 446 75<275 284 284 308.5>
VStem: 48 94<111 168 111 202.5> 65 94<354 422.5> 390 94<214 234 234 234 307 354 354 365>
LayerCount: 2
Fore
SplineSet
275 521 m 2,0,-1
 284 521 l 2,1,2
 484 521 484 521 484 365 c 2,3,-1
 484 100 l 2,4,5
 484 65 484 65 512 65 c 0,6,7
 535 65 535 65 558 79 c 1,8,-1
 558 10 l 1,9,10
 524 -10 524 -10 481 -10 c 0,11,12
 399 -10 399 -10 394 82 c 1,13,14
 332 -10 332 -10 215 -10 c 0,15,16
 131 -10 131 -10 89.5 26.5 c 128,-1,17
 48 63 48 63 48 148 c 128,-1,18
 48 233 48 233 123 270 c 128,-1,19
 198 307 198 307 390 307 c 1,20,-1
 390 354 l 2,21,22
 390 405 390 405 360 425.5 c 128,-1,23
 330 446 330 446 274.5 446 c 128,-1,24
 219 446 219 446 189 425 c 128,-1,25
 159 404 159 404 159 366 c 2,26,-1
 159 354 l 1,27,-1
 67 354 l 1,28,29
 65 368 65 368 65 387 c 0,30,31
 65 441 65 441 126 481 c 128,-1,32
 187 521 187 521 275 521 c 2,0,-1
390 214 m 2,33,-1
 390 234 l 1,34,35
 193.975 234 193.975 234 158.5 191 c 0,36,37
 142 171 142 171 142 134 c 0,38,39
 142 65 142 65 247 65 c 0,40,41
 305 65 305 65 347.5 106.5 c 128,-1,42
 390 148 390 148 390 214 c 2,33,-1
EndSplineSet
Substitution2: "Single Substitution lookup 5 subtable" ordfeminine
Substitution2: "'aalt' Access All Alternates lookup 0 subtable" ordfeminine
EndChar

StartChar: aacute
Encoding: 225 225 103
Width: 585
GlyphClass: 2
Flags: MW
HStem: -10 75<212 254.5> 234 73<282.5 390> 446 75<275 284 284 308.5> 575 145<246 430 246 430>
VStem: 48 94<111 168 111 202.5> 65 94<354 422.5> 390 94<214 234 234 234 307 354 354 365>
LayerCount: 2
Fore
SplineSet
431 717 m 1,0,-1
 315 575 l 1,1,-1
 246 575 l 1,2,-1
 340 720 l 1,3,-1
 430 720 l 1,4,-1
 431 717 l 1,0,-1
275 521 m 2,5,-1
 284 521 l 2,6,7
 484 521 484 521 484 365 c 2,8,-1
 484 100 l 2,9,10
 484 65 484 65 512 65 c 0,11,12
 535 65 535 65 558 79 c 1,13,-1
 558 10 l 1,14,15
 524 -10 524 -10 481 -10 c 0,16,17
 399 -10 399 -10 394 82 c 1,18,19
 332 -10 332 -10 215 -10 c 0,20,21
 131 -10 131 -10 89.5 26.5 c 128,-1,22
 48 63 48 63 48 148 c 128,-1,23
 48 233 48 233 123 270 c 128,-1,24
 198 307 198 307 390 307 c 1,25,-1
 390 354 l 2,26,27
 390 405 390 405 360 425.5 c 128,-1,28
 330 446 330 446 274.5 446 c 128,-1,29
 219 446 219 446 189 425 c 128,-1,30
 159 404 159 404 159 366 c 2,31,-1
 159 354 l 1,32,-1
 67 354 l 1,33,34
 65 368 65 368 65 387 c 0,35,36
 65 441 65 441 126 481 c 128,-1,37
 187 521 187 521 275 521 c 2,5,-1
390 214 m 2,38,-1
 390 234 l 1,39,40
 193.975 234 193.975 234 158.5 191 c 0,41,42
 142 171 142 171 142 134 c 0,43,44
 142 65 142 65 247 65 c 0,45,46
 305 65 305 65 347.5 106.5 c 128,-1,47
 390 148 390 148 390 214 c 2,38,-1
EndSplineSet
EndChar

StartChar: abreve
Encoding: 259 259 104
Width: 585
GlyphClass: 2
Flags: MW
HStem: -10 75<212 254.5> 234 73<282.5 390> 446 75<275 284 284 308.5> 613 62<261.5 323.5 261.5 340.5>
VStem: 48 94<111 168 111 202.5> 65 94<354 422.5> 390 94<214 234 234 234 307 354 354 365>
LayerCount: 2
Fore
SplineSet
418 737 m 1,0,-1
 486 737 l 1,1,2
 486 691 486 691 425 652 c 128,-1,3
 364 613 364 613 292.5 613 c 128,-1,4
 221 613 221 613 161 652 c 128,-1,5
 101 691 101 691 101 737 c 1,6,-1
 168 737 l 1,7,8
 176 710 176 710 211 692.5 c 128,-1,9
 246 675 246 675 292.5 675 c 128,-1,10
 339 675 339 675 374.5 692.5 c 128,-1,11
 410 710 410 710 418 737 c 1,0,-1
275 521 m 2,12,-1
 284 521 l 2,13,14
 484 521 484 521 484 365 c 2,15,-1
 484 100 l 2,16,17
 484 65 484 65 512 65 c 0,18,19
 535 65 535 65 558 79 c 1,20,-1
 558 10 l 1,21,22
 524 -10 524 -10 481 -10 c 0,23,24
 399 -10 399 -10 394 82 c 1,25,26
 332 -10 332 -10 215 -10 c 0,27,28
 131 -10 131 -10 89.5 26.5 c 128,-1,29
 48 63 48 63 48 148 c 128,-1,30
 48 233 48 233 123 270 c 128,-1,31
 198 307 198 307 390 307 c 1,32,-1
 390 354 l 2,33,34
 390 405 390 405 360 425.5 c 128,-1,35
 330 446 330 446 274.5 446 c 128,-1,36
 219 446 219 446 189 425 c 128,-1,37
 159 404 159 404 159 366 c 2,38,-1
 159 354 l 1,39,-1
 67 354 l 1,40,41
 65 368 65 368 65 387 c 0,42,43
 65 441 65 441 126 481 c 128,-1,44
 187 521 187 521 275 521 c 2,12,-1
390 214 m 2,45,-1
 390 234 l 1,46,47
 193.975 234 193.975 234 158.5 191 c 0,48,49
 142 171 142 171 142 134 c 0,50,51
 142 65 142 65 247 65 c 0,52,53
 305 65 305 65 347.5 106.5 c 128,-1,54
 390 148 390 148 390 214 c 2,45,-1
EndSplineSet
EndChar

StartChar: acircumflex
Encoding: 226 226 105
Width: 585
GlyphClass: 2
Flags: MW
HStem: -10 75<212 254.5> 234 73<282.5 390> 446 75<275 284 284 308.5> 575 145<103 317 103 317 239 452 239 372> 664 56<278 278>
VStem: 48 94<111 168 111 202.5> 65 94<354 422.5> 390 94<214 234 234 234 307 354 354 365>
LayerCount: 2
Fore
SplineSet
452 575 m 1,0,-1
 372 575 l 1,1,-1
 278 664 l 1,2,-1
 183 575 l 1,3,-1
 103 575 l 1,4,-1
 239 720 l 1,5,-1
 317 720 l 1,6,-1
 452 575 l 1,0,-1
275 521 m 2,7,-1
 284 521 l 2,8,9
 484 521 484 521 484 365 c 2,10,-1
 484 100 l 2,11,12
 484 65 484 65 512 65 c 0,13,14
 535 65 535 65 558 79 c 1,15,-1
 558 10 l 1,16,17
 524 -10 524 -10 481 -10 c 0,18,19
 399 -10 399 -10 394 82 c 1,20,21
 332 -10 332 -10 215 -10 c 0,22,23
 131 -10 131 -10 89.5 26.5 c 128,-1,24
 48 63 48 63 48 148 c 128,-1,25
 48 233 48 233 123 270 c 128,-1,26
 198 307 198 307 390 307 c 1,27,-1
 390 354 l 2,28,29
 390 405 390 405 360 425.5 c 128,-1,30
 330 446 330 446 274.5 446 c 128,-1,31
 219 446 219 446 189 425 c 128,-1,32
 159 404 159 404 159 366 c 2,33,-1
 159 354 l 1,34,-1
 67 354 l 1,35,36
 65 368 65 368 65 387 c 0,37,38
 65 441 65 441 126 481 c 128,-1,39
 187 521 187 521 275 521 c 2,7,-1
390 214 m 2,40,-1
 390 234 l 1,41,42
 193.975 234 193.975 234 158.5 191 c 0,43,44
 142 171 142 171 142 134 c 0,45,46
 142 65 142 65 247 65 c 0,47,48
 305 65 305 65 347.5 106.5 c 128,-1,49
 390 148 390 148 390 214 c 2,40,-1
EndSplineSet
EndChar

StartChar: adieresis
Encoding: 228 228 106
Width: 585
GlyphClass: 2
Flags: MW
HStem: -10 75<212 254.5> 234 73<282.5 390> 446 75<275 284 284 308.5> 622 98<136 226 136 226 324 415>
VStem: 48 94<111 168 111 202.5> 65 94<354 422.5> 136 90<622 720> 324 91<622 720> 390 94<214 234 234 234 307 354 354 365>
LayerCount: 2
Fore
SplineSet
226 622 m 1,0,-1
 136 622 l 1,1,-1
 136 720 l 1,2,-1
 226 720 l 1,3,-1
 226 622 l 1,0,-1
415 622 m 1,4,-1
 324 622 l 1,5,-1
 324 720 l 1,6,-1
 415 720 l 1,7,-1
 415 622 l 1,4,-1
275 521 m 2,8,-1
 284 521 l 2,9,10
 484 521 484 521 484 365 c 2,11,-1
 484 100 l 2,12,13
 484 65 484 65 512 65 c 0,14,15
 535 65 535 65 558 79 c 1,16,-1
 558 10 l 1,17,18
 524 -10 524 -10 481 -10 c 0,19,20
 399 -10 399 -10 394 82 c 1,21,22
 332 -10 332 -10 215 -10 c 0,23,24
 131 -10 131 -10 89.5 26.5 c 128,-1,25
 48 63 48 63 48 148 c 128,-1,26
 48 233 48 233 123 270 c 128,-1,27
 198 307 198 307 390 307 c 1,28,-1
 390 354 l 2,29,30
 390 405 390 405 360 425.5 c 128,-1,31
 330 446 330 446 274.5 446 c 128,-1,32
 219 446 219 446 189 425 c 128,-1,33
 159 404 159 404 159 366 c 2,34,-1
 159 354 l 1,35,-1
 67 354 l 1,36,37
 65 368 65 368 65 387 c 0,38,39
 65 441 65 441 126 481 c 128,-1,40
 187 521 187 521 275 521 c 2,8,-1
390 214 m 2,41,-1
 390 234 l 1,42,43
 193.975 234 193.975 234 158.5 191 c 0,44,45
 142 171 142 171 142 134 c 0,46,47
 142 65 142 65 247 65 c 0,48,49
 305 65 305 65 347.5 106.5 c 128,-1,50
 390 148 390 148 390 214 c 2,41,-1
EndSplineSet
EndChar

StartChar: agrave
Encoding: 224 224 107
Width: 585
GlyphClass: 2
Flags: MW
HStem: -10 75<212 254.5> 234 73<282.5 390> 446 75<275 284 284 308.5> 575 145<130 314 130 244>
VStem: 48 94<111 168 111 202.5> 65 94<354 422.5> 390 94<214 234 234 234 307 354 354 365>
LayerCount: 2
Fore
SplineSet
314 575 m 1,0,-1
 244 575 l 1,1,-1
 129 717 l 1,2,-1
 130 720 l 1,3,-1
 219 720 l 1,4,-1
 314 575 l 1,0,-1
275 521 m 2,5,-1
 284 521 l 2,6,7
 484 521 484 521 484 365 c 2,8,-1
 484 100 l 2,9,10
 484 65 484 65 512 65 c 0,11,12
 535 65 535 65 558 79 c 1,13,-1
 558 10 l 1,14,15
 524 -10 524 -10 481 -10 c 0,16,17
 399 -10 399 -10 394 82 c 1,18,19
 332 -10 332 -10 215 -10 c 0,20,21
 131 -10 131 -10 89.5 26.5 c 128,-1,22
 48 63 48 63 48 148 c 128,-1,23
 48 233 48 233 123 270 c 128,-1,24
 198 307 198 307 390 307 c 1,25,-1
 390 354 l 2,26,27
 390 405 390 405 360 425.5 c 128,-1,28
 330 446 330 446 274.5 446 c 128,-1,29
 219 446 219 446 189 425 c 128,-1,30
 159 404 159 404 159 366 c 2,31,-1
 159 354 l 1,32,-1
 67 354 l 1,33,34
 65 368 65 368 65 387 c 0,35,36
 65 441 65 441 126 481 c 128,-1,37
 187 521 187 521 275 521 c 2,5,-1
390 214 m 2,38,-1
 390 234 l 1,39,40
 193.975 234 193.975 234 158.5 191 c 0,41,42
 142 171 142 171 142 134 c 0,43,44
 142 65 142 65 247 65 c 0,45,46
 305 65 305 65 347.5 106.5 c 128,-1,47
 390 148 390 148 390 214 c 2,38,-1
EndSplineSet
EndChar

StartChar: amacron
Encoding: 257 257 108
Width: 585
GlyphClass: 2
Flags: MW
HStem: -10 75<212 254.5> 234 73<282.5 390> 446 75<275 284 284 308.5> 662 74<134 452 134 452>
VStem: 48 94<111 168 111 202.5> 65 94<354 422.5> 390 94<214 234 234 234 307 354 354 365>
LayerCount: 2
Fore
SplineSet
452 662 m 1,0,-1
 134 662 l 1,1,-1
 134 736 l 1,2,-1
 452 736 l 1,3,-1
 452 662 l 1,0,-1
275 521 m 2,4,-1
 284 521 l 2,5,6
 484 521 484 521 484 365 c 2,7,-1
 484 100 l 2,8,9
 484 65 484 65 512 65 c 0,10,11
 535 65 535 65 558 79 c 1,12,-1
 558 10 l 1,13,14
 524 -10 524 -10 481 -10 c 0,15,16
 399 -10 399 -10 394 82 c 1,17,18
 332 -10 332 -10 215 -10 c 0,19,20
 131 -10 131 -10 89.5 26.5 c 128,-1,21
 48 63 48 63 48 148 c 128,-1,22
 48 233 48 233 123 270 c 128,-1,23
 198 307 198 307 390 307 c 1,24,-1
 390 354 l 2,25,26
 390 405 390 405 360 425.5 c 128,-1,27
 330 446 330 446 274.5 446 c 128,-1,28
 219 446 219 446 189 425 c 128,-1,29
 159 404 159 404 159 366 c 2,30,-1
 159 354 l 1,31,-1
 67 354 l 1,32,33
 65 368 65 368 65 387 c 0,34,35
 65 441 65 441 126 481 c 128,-1,36
 187 521 187 521 275 521 c 2,4,-1
390 214 m 2,37,-1
 390 234 l 1,38,39
 193.975 234 193.975 234 158.5 191 c 0,40,41
 142 171 142 171 142 134 c 0,42,43
 142 65 142 65 247 65 c 0,44,45
 305 65 305 65 347.5 106.5 c 128,-1,46
 390 148 390 148 390 214 c 2,37,-1
EndSplineSet
EndChar

StartChar: aogonek
Encoding: 261 261 109
Width: 585
GlyphClass: 2
Flags: MW
HStem: -143 47<509.5 531> -10 75<212 254.5> 234 73<282.5 390> 446 75<275 284 284 308.5>
VStem: 48 94<111 168 111 202.5> 65 94<354 422.5> 390 94<214 234 234 234 307 354 354 365> 418 62<-70.5 -57>
LayerCount: 2
Fore
SplineSet
591 -82 m 1,0,-1
 604 -119 l 1,1,2
 564 -143 564 -143 515 -143 c 0,3,4
 418 -143 418 -143 418 -69 c 0,5,6
 418 -40 418 -40 460 -8 c 1,7,8
 399 3 399 3 394 82 c 1,9,10
 332 -10 332 -10 215 -10 c 0,11,12
 131 -10 131 -10 89.5 26.5 c 128,-1,13
 48 63 48 63 48 148 c 128,-1,14
 48 233 48 233 123 270 c 128,-1,15
 198 307 198 307 390 307 c 1,16,-1
 390 354 l 2,17,18
 390 405 390 405 360 425.5 c 128,-1,19
 330 446 330 446 274.5 446 c 128,-1,20
 219 446 219 446 189 425 c 128,-1,21
 159 404 159 404 159 366 c 2,22,-1
 159 354 l 1,23,-1
 67 354 l 1,24,25
 65 368 65 368 65 387 c 0,26,27
 65 441 65 441 126 481 c 128,-1,28
 187 521 187 521 275 521 c 2,29,-1
 284 521 l 2,30,31
 484 521 484 521 484 365 c 2,32,-1
 484 100 l 2,33,34
 484 65 484 65 512 65 c 0,35,36
 535 65 535 65 558 79 c 1,37,-1
 558 10 l 1,38,39
 540 -1 540 -1 516 -6 c 1,40,41
 480 -32 480 -32 480 -58 c 0,42,43
 480 -96 480 -96 524 -96 c 0,44,45
 544 -96 544 -96 591 -82 c 1,0,-1
390 214 m 2,46,-1
 390 234 l 1,47,48
 193.975 234 193.975 234 158.5 191 c 0,49,50
 142 171 142 171 142 134 c 0,51,52
 142 65 142 65 247 65 c 0,53,54
 305 65 305 65 347.5 106.5 c 128,-1,55
 390 148 390 148 390 214 c 2,46,-1
EndSplineSet
EndChar

StartChar: aring
Encoding: 229 229 110
Width: 585
GlyphClass: 2
Flags: MW
HStem: -10 75<212 254.5> 234 73<282.5 390> 446 75<275 284 284 308.5> 556 47<261.5 292.5 261.5 305> 710 47<261.5 292.5>
VStem: 48 94<111 168 111 202.5> 65 94<354 422.5> 176 45<640.5 671.5 640.5 684> 333 45<641.5 671.5> 390 94<214 234 234 234 307 354 354 365>
LayerCount: 2
Fore
SplineSet
205.5 727.5 m 128,-1,1
 235 757 235 757 276 757 c 128,-1,2
 317 757 317 757 347.5 728 c 128,-1,3
 378 699 378 699 378 657 c 128,-1,4
 378 615 378 615 348.5 585.5 c 128,-1,5
 319 556 319 556 277.5 556 c 128,-1,6
 236 556 236 556 206 584.5 c 128,-1,7
 176 613 176 613 176 655.5 c 128,-1,0
 176 698 176 698 205.5 727.5 c 128,-1,1
277 710 m 128,-1,9
 254 710 254 710 237.5 694.5 c 128,-1,10
 221 679 221 679 221 656 c 128,-1,11
 221 633 221 633 237 618 c 128,-1,12
 253 603 253 603 276.5 603 c 128,-1,13
 300 603 300 603 316.5 618.5 c 128,-1,14
 333 634 333 634 333 656.5 c 128,-1,15
 333 679 333 679 316.5 694.5 c 128,-1,8
 300 710 300 710 277 710 c 128,-1,9
275 521 m 2,16,-1
 284 521 l 2,17,18
 484 521 484 521 484 365 c 2,19,-1
 484 100 l 2,20,21
 484 65 484 65 512 65 c 0,22,23
 535 65 535 65 558 79 c 1,24,-1
 558 10 l 1,25,26
 524 -10 524 -10 481 -10 c 0,27,28
 399 -10 399 -10 394 82 c 1,29,30
 332 -10 332 -10 215 -10 c 0,31,32
 131 -10 131 -10 89.5 26.5 c 128,-1,33
 48 63 48 63 48 148 c 128,-1,34
 48 233 48 233 123 270 c 128,-1,35
 198 307 198 307 390 307 c 1,36,-1
 390 354 l 2,37,38
 390 405 390 405 360 425.5 c 128,-1,39
 330 446 330 446 274.5 446 c 128,-1,40
 219 446 219 446 189 425 c 128,-1,41
 159 404 159 404 159 366 c 2,42,-1
 159 354 l 1,43,-1
 67 354 l 1,44,45
 65 368 65 368 65 387 c 0,46,47
 65 441 65 441 126 481 c 128,-1,48
 187 521 187 521 275 521 c 2,16,-1
390 214 m 2,49,-1
 390 234 l 1,50,51
 193.975 234 193.975 234 158.5 191 c 0,52,53
 142 171 142 171 142 134 c 0,54,55
 142 65 142 65 247 65 c 0,56,57
 305 65 305 65 347.5 106.5 c 128,-1,58
 390 148 390 148 390 214 c 2,49,-1
EndSplineSet
EndChar

StartChar: atilde
Encoding: 227 227 111
Width: 585
GlyphClass: 2
Flags: MW
HStem: -10 75<212 254.5> 234 73<282.5 390> 446 75<275 284 284 308.5> 616 69<357.5 380.5 357.5 392.5> 650 70<175 204.5>
VStem: 48 94<111 168 111 202.5> 65 94<354 422.5> 390 94<214 234 234 234 307 354 354 365>
LayerCount: 2
Fore
SplineSet
421 720 m 1,0,-1
 471 720 l 1,1,2
 471 675 471 675 440 645.5 c 128,-1,3
 409 616 409 616 367 616 c 128,-1,4
 325 616 325 616 301 623 c 128,-1,5
 277 630 277 630 261 635 c 0,6,7
 233.266666667 643.666666667 233.266666667 643.666666667 221.233333333 646.833333333 c 128,-1,8
 209.2 650 209.2 650 190 650 c 0,9,10
 145 650 145 650 135 616 c 1,11,-1
 85 616 l 1,12,13
 85 658 85 658 115 689 c 128,-1,14
 145 720 145 720 187.5 720 c 128,-1,15
 230 720 230 720 286.5 702.5 c 128,-1,16
 343 685 343 685 366 685 c 0,17,18
 410 685 410 685 421 720 c 1,0,-1
275 521 m 2,19,-1
 284 521 l 2,20,21
 484 521 484 521 484 365 c 2,22,-1
 484 100 l 2,23,24
 484 65 484 65 512 65 c 0,25,26
 535 65 535 65 558 79 c 1,27,-1
 558 10 l 1,28,29
 524 -10 524 -10 481 -10 c 0,30,31
 399 -10 399 -10 394 82 c 1,32,33
 332 -10 332 -10 215 -10 c 0,34,35
 131 -10 131 -10 89.5 26.5 c 128,-1,36
 48 63 48 63 48 148 c 128,-1,37
 48 233 48 233 123 270 c 128,-1,38
 198 307 198 307 390 307 c 1,39,-1
 390 354 l 2,40,41
 390 405 390 405 360 425.5 c 128,-1,42
 330 446 330 446 274.5 446 c 128,-1,43
 219 446 219 446 189 425 c 128,-1,44
 159 404 159 404 159 366 c 2,45,-1
 159 354 l 1,46,-1
 67 354 l 1,47,48
 65 368 65 368 65 387 c 0,49,50
 65 441 65 441 126 481 c 128,-1,51
 187 521 187 521 275 521 c 2,19,-1
390 214 m 2,52,-1
 390 234 l 1,53,54
 193.975 234 193.975 234 158.5 191 c 0,55,56
 142 171 142 171 142 134 c 0,57,58
 142 65 142 65 247 65 c 0,59,60
 305 65 305 65 347.5 106.5 c 128,-1,61
 390 148 390 148 390 214 c 2,52,-1
EndSplineSet
EndChar

StartChar: ae
Encoding: 230 230 112
Width: 895
GlyphClass: 2
Flags: MW
HStem: -10 75<212 255 581 623 623 627> 234 73<282.5 390 486 748> 446 75<275 284 284 308.5 620 627 627 660>
VStem: 48 94<111 168 111 202.5> 65 94<354 422.5> 390 94<214 234 234 234 234 354> 748 93
LayerCount: 2
Fore
SplineSet
620 521 m 2,0,-1
 627 521 l 2,1,2
 722 521 722 521 781.5 462.5 c 128,-1,3
 841 404 841 404 841 305 c 2,4,-1
 841 234 l 1,5,-1
 484 234 l 1,6,7
 489 65 489 65 629 65 c 0,8,9
 692 65 692 65 722 102 c 128,-1,10
 752 139 752 139 752 190 c 1,11,-1
 841 190 l 1,12,13
 841 101 841 101 781.5 45.5 c 128,-1,14
 722 -10 722 -10 627 -10 c 2,15,-1
 623 -10 l 2,16,17
 485 -10 485 -10 423 101 c 1,18,19
 390 48 390 48 333.5 19 c 128,-1,20
 277 -10 277 -10 204 -10 c 128,-1,21
 131 -10 131 -10 89.5 26.5 c 128,-1,22
 48 63 48 63 48 148 c 128,-1,23
 48 233 48 233 123 270 c 128,-1,24
 198 307 198 307 390 307 c 1,25,-1
 390 354 l 2,26,27
 390 405 390 405 360 425.5 c 128,-1,28
 330 446 330 446 274.5 446 c 128,-1,29
 219 446 219 446 189 425 c 128,-1,30
 159 404 159 404 159 366 c 2,31,-1
 159 354 l 1,32,-1
 67 354 l 1,33,34
 65 368 65 368 65 387 c 0,35,36
 65 441 65 441 126 481 c 128,-1,37
 187 521 187 521 275 521 c 2,38,-1
 284 521 l 2,39,40
 411 521 411 521 457 457 c 1,41,42
 517 521 517 521 620 521 c 2,0,-1
622 446 m 128,-1,44
 565 446 565 446 529.5 411 c 128,-1,45
 494 376 494 376 486 307 c 1,46,-1
 748 307 l 1,47,-1
 748 319 l 2,48,49
 748 376 748 376 713.5 411 c 128,-1,43
 679 446 679 446 622 446 c 128,-1,44
390 214 m 2,50,-1
 390 234 l 1,51,52
 193.975 234 193.975 234 158.5 191 c 0,53,54
 142 171 142 171 142 134 c 0,55,56
 142 65 142 65 247 65 c 0,57,58
 305 65 305 65 347.5 106.5 c 128,-1,59
 390 148 390 148 390 214 c 2,50,-1
EndSplineSet
EndChar

StartChar: b
Encoding: 98 98 113
Width: 583
GlyphClass: 2
Flags: MW
HStem: -10 75<286 349.5 262.5 388> 446 75<293 349> 700 20G<83 177 177 177>
VStem: 83 94<446 720 446 720 446 720> 437 94<191.5 256 256 267 173 321>
LayerCount: 2
Fore
SplineSet
177 720 m 1,0,-1
 177 446 l 1,1,2
 200 479 200 479 239.5 500 c 128,-1,3
 279 521 279 521 325 521 c 0,4,5
 423 521 423 521 477 452.5 c 128,-1,6
 531 384 531 384 531 267 c 2,7,-1
 531 256 l 2,8,9
 531 132 531 132 475.5 61 c 128,-1,10
 420 -10 420 -10 324 -10 c 0,11,12
 210 -10 210 -10 152 81 c 1,13,-1
 119 0 l 1,14,-1
 83 0 l 1,15,-1
 83 720 l 1,16,-1
 177 720 l 1,0,-1
306 446 m 0,17,18
 239 446 239 446 207.5 399.5 c 128,-1,19
 176 353 176 353 176 255 c 128,-1,20
 176 157 176 157 208 111 c 128,-1,21
 240 65 240 65 306 65 c 0,22,23
 437 65 437 65 437 255.5 c 0,24,25
 437 446 437 446 306 446 c 0,17,18
EndSplineSet
EndChar

StartChar: c
Encoding: 99 99 114
Width: 544
GlyphClass: 2
Flags: MW
HStem: -10 75<240.5 276 276 284> 446 75<275 283 283 320.5>
VStem: 51 94<243 267 267 291 177.5 343.5> 405 90<160.5 200>
AnchorPoint: "Bottom" 272 0 basechar 0
LayerCount: 2
Fore
SplineSet
275 521 m 2,0,-1
 283 521 l 2,1,2
 376 521 376 521 435.5 462.5 c 128,-1,3
 495 404 495 404 495 310 c 1,4,-1
 402 310 l 1,5,6
 402 372 402 372 370.5 409 c 128,-1,7
 339 446 339 446 278.5 446 c 0,8,9
 218 446 218 446 181.5 404.5 c 128,-1,10
 145 363 145 363 145 291 c 2,11,-1
 145 237 l 2,12,13
 145 150 145 150 181 107.5 c 128,-1,14
 217 65 217 65 280.5 65 c 0,15,16
 344 65 344 65 374.5 101.5 c 128,-1,17
 405 138 405 138 405 200 c 1,18,-1
 495 200 l 1,19,20
 495 104 495 104 437.5 47 c 128,-1,21
 380 -10 380 -10 284 -10 c 2,22,-1
 276 -10 l 2,23,24
 173 -10 173 -10 112 59 c 128,-1,25
 51 128 51 128 51 243 c 2,26,-1
 51 267 l 2,27,28
 51 382 51 382 112.5 451.5 c 128,-1,29
 174 521 174 521 275 521 c 2,0,-1
EndSplineSet
EndChar

StartChar: cacute
Encoding: 263 263 115
Width: 544
GlyphClass: 2
Flags: MW
HStem: -10 75<240.5 276 276 284> 446 75<275 283 283 320.5> 575 145<219 403 219 403>
VStem: 51 94<243 267 267 291 177.5 343.5> 405 90<160.5 200>
AnchorPoint: "Bottom" 272 0 basechar 0
LayerCount: 2
Fore
SplineSet
404 717 m 1,0,-1
 288 575 l 1,1,-1
 219 575 l 1,2,-1
 313 720 l 1,3,-1
 403 720 l 1,4,-1
 404 717 l 1,0,-1
275 521 m 2,5,-1
 283 521 l 2,6,7
 376 521 376 521 435.5 462.5 c 128,-1,8
 495 404 495 404 495 310 c 1,9,-1
 402 310 l 1,10,11
 402 372 402 372 370.5 409 c 128,-1,12
 339 446 339 446 278.5 446 c 0,13,14
 218 446 218 446 181.5 404.5 c 128,-1,15
 145 363 145 363 145 291 c 2,16,-1
 145 237 l 2,17,18
 145 150 145 150 181 107.5 c 128,-1,19
 217 65 217 65 280.5 65 c 0,20,21
 344 65 344 65 374.5 101.5 c 128,-1,22
 405 138 405 138 405 200 c 1,23,-1
 495 200 l 1,24,25
 495 104 495 104 437.5 47 c 128,-1,26
 380 -10 380 -10 284 -10 c 2,27,-1
 276 -10 l 2,28,29
 173 -10 173 -10 112 59 c 128,-1,30
 51 128 51 128 51 243 c 2,31,-1
 51 267 l 2,32,33
 51 382 51 382 112.5 451.5 c 128,-1,34
 174 521 174 521 275 521 c 2,5,-1
EndSplineSet
EndChar

StartChar: ccaron
Encoding: 269 269 116
Width: 544
GlyphClass: 2
Flags: MW
HStem: -10 75<240.5 276 276 284> 446 75<275 283 283 320.5> 575 145<98 312 98 234>
VStem: 51 94<243 267 267 291 177.5 343.5> 405 90<160.5 200>
AnchorPoint: "Bottom" 272 0 basechar 0
LayerCount: 2
Fore
SplineSet
312 575 m 1,0,-1
 234 575 l 1,1,-1
 98 720 l 1,2,-1
 178 720 l 1,3,-1
 273 631 l 1,4,-1
 367 720 l 1,5,-1
 447 720 l 1,6,-1
 312 575 l 1,0,-1
275 521 m 2,7,-1
 283 521 l 2,8,9
 376 521 376 521 435.5 462.5 c 128,-1,10
 495 404 495 404 495 310 c 1,11,-1
 402 310 l 1,12,13
 402 372 402 372 370.5 409 c 128,-1,14
 339 446 339 446 278.5 446 c 0,15,16
 218 446 218 446 181.5 404.5 c 128,-1,17
 145 363 145 363 145 291 c 2,18,-1
 145 237 l 2,19,20
 145 150 145 150 181 107.5 c 128,-1,21
 217 65 217 65 280.5 65 c 0,22,23
 344 65 344 65 374.5 101.5 c 128,-1,24
 405 138 405 138 405 200 c 1,25,-1
 495 200 l 1,26,27
 495 104 495 104 437.5 47 c 128,-1,28
 380 -10 380 -10 284 -10 c 2,29,-1
 276 -10 l 2,30,31
 173 -10 173 -10 112 59 c 128,-1,32
 51 128 51 128 51 243 c 2,33,-1
 51 267 l 2,34,35
 51 382 51 382 112.5 451.5 c 128,-1,36
 174 521 174 521 275 521 c 2,7,-1
EndSplineSet
EndChar

StartChar: ccedilla
Encoding: 231 231 117
Width: 544
GlyphClass: 2
Flags: MW
HStem: -197 51<262.5 282.5 249.5 310> -60 43<254 275 254 278> -10 75<240.5 276 276 284> 446 75<275 283 283 320.5>
VStem: 51 94<243 267 267 291 177.5 343.5> 327 62<-116 -87.5> 405 90<160.5 200>
LayerCount: 2
Fore
SplineSet
275 521 m 2,0,-1
 283 521 l 2,1,2
 376 521 376 521 435.5 462.5 c 128,-1,3
 495 404 495 404 495 310 c 1,4,-1
 402 310 l 1,5,6
 402 372 402 372 370.5 409 c 128,-1,7
 339 446 339 446 278.5 446 c 0,8,9
 218 446 218 446 181.5 404.5 c 128,-1,10
 145 363 145 363 145 291 c 2,11,-1
 145 237 l 2,12,13
 145 150 145 150 181 107.5 c 128,-1,14
 217 65 217 65 280.5 65 c 0,15,16
 344 65 344 65 374.5 101.5 c 128,-1,17
 405 138 405 138 405 200 c 1,18,-1
 495 200 l 1,19,20
 495 104 495 104 437.5 47 c 128,-1,21
 380 -10 380 -10 284 -10 c 2,22,-1
 276 -10 l 2,23,24
 173 -10 173 -10 112 59 c 128,-1,25
 51 128 51 128 51 243 c 2,26,-1
 51 267 l 2,27,28
 51 382 51 382 112.5 451.5 c 128,-1,29
 174 521 174 521 275 521 c 2,0,-1
254 -17 m 1,30,-1
 278 -17 l 2,31,32
 389 -17 389 -17 389 -106 c 0,33,34
 389 -147 389 -147 357.5 -172 c 128,-1,35
 326 -197 326 -197 284 -197 c 0,36,37
 219 -197 219 -197 179 -175 c 1,38,-1
 188 -126 l 1,39,40
 230 -146 230 -146 260 -146 c 0,41,42
 327 -146 327 -146 327 -101 c 0,43,44
 327 -82 327 -82 312 -71 c 128,-1,45
 297 -60 297 -60 275 -60 c 2,46,-1
 254 -60 l 1,47,-1
 254 -17 l 1,30,-1
EndSplineSet
EndChar

StartChar: d
Encoding: 100 100 118
Width: 583
GlyphClass: 2
Flags: MW
HStem: -10 75<232.5 292.5> 446 75<231.5 290.5 193 319> 700 20G<406 500 500 500>
VStem: 52 94<256 267 267 320 189 344> 406 94<446 720>
LayerCount: 2
Fore
SplineSet
500 0 m 1,0,-1
 430 0 l 1,1,2
 423 32 423 32 417 70 c 1,3,4
 360 -10 360 -10 261.5 -10 c 0,5,6
 163 -10 163 -10 107.5 61 c 128,-1,7
 52 132 52 132 52 256 c 2,8,-1
 52 267 l 2,9,10
 52 384 52 384 106.5 452.5 c 128,-1,11
 161 521 161 521 257.25 521 c 0,12,13
 353.5 521 353.5 521 406 446 c 1,14,-1
 406 720 l 1,15,-1
 500 720 l 1,16,-1
 500 0 l 1,0,-1
276 446 m 0,17,18
 209 446 209 446 177.5 399.5 c 128,-1,19
 146 353 146 353 146 255 c 128,-1,20
 146 157 146 157 178 111 c 128,-1,21
 210 65 210 65 276 65 c 0,22,23
 407 65 407 65 407 255.5 c 0,24,25
 407 446 407 446 276 446 c 0,17,18
EndSplineSet
EndChar

StartChar: eth
Encoding: 240 240 119
Width: 575
GlyphClass: 2
Flags: MW
HStem: -10 75<241.5 330.5 241.5 359.5> 446 75<243 292 216 332.5> 498 20G 709 20G<173 173>
VStem: 52 94<237 246 246 265 188.5 274 188.5 351.5> 428 94<246 265 265 274 160.5 322.5>
LayerCount: 2
Fore
SplineSet
114 700 m 1,0,-1
 173 729 l 1,1,2
 217 707 217 707 268 673 c 1,3,-1
 362 717 l 1,4,-1
 394 683 l 1,5,-1
 307 643 l 1,6,7
 522 466 522 466 522 274 c 2,8,-1
 522 237 l 2,9,10
 522 122 522 122 459 56 c 128,-1,11
 396 -10 396 -10 287 -10 c 128,-1,12
 178 -10 178 -10 115 56 c 128,-1,13
 52 122 52 122 52 237 c 2,14,-1
 52 274 l 2,15,16
 52 389 52 389 116 455 c 128,-1,17
 180 521 180 521 287 521 c 0,18,19
 302 521 302 521 319 518 c 1,20,21
 285 559 285 559 236 605 c 1,22,-1
 145 562 l 1,23,-1
 109 595 l 1,24,-1
 203 639 l 1,25,26
 185 655 185 655 150.5 677 c 128,-1,27
 116 699 116 699 114 700 c 1,0,-1
391.5 399 m 128,-1,29
 355 446 355 446 287.5 446 c 128,-1,30
 220 446 220 446 183 400 c 128,-1,31
 146 354 146 354 146 265 c 2,32,-1
 146 246 l 2,33,34
 146 159 146 159 182.5 112 c 128,-1,35
 219 65 219 65 286 65 c 128,-1,36
 353 65 353 65 390.5 111.5 c 128,-1,37
 428 158 428 158 428 246 c 2,38,-1
 428 265 l 2,39,28
 428 352 428 352 391.5 399 c 128,-1,29
EndSplineSet
EndChar

StartChar: dcaron
Encoding: 271 271 120
Width: 583
GlyphClass: 2
Flags: MW
HStem: -10 75<232.5 292.5> 446 75<231.5 290.5 193 319> 575 111<572 613 572 673> 700 20G<406 500 500 500>
VStem: 52 94<256 267 267 320 189 344> 406 94<446 720> 572 101<601 601 601 686 601 686>
LayerCount: 2
Fore
SplineSet
500 0 m 1,0,-1
 430 0 l 1,1,2
 423 32 423 32 417 70 c 1,3,4
 360 -10 360 -10 261.5 -10 c 0,5,6
 163 -10 163 -10 107.5 61 c 128,-1,7
 52 132 52 132 52 256 c 2,8,-1
 52 267 l 2,9,10
 52 384 52 384 106.5 452.5 c 128,-1,11
 161 521 161 521 257.25 521 c 0,12,13
 353.5 521 353.5 521 406 446 c 1,14,-1
 406 720 l 1,15,-1
 500 720 l 1,16,-1
 500 0 l 1,0,-1
673 601 m 1,17,-1
 638 451 l 1,18,-1
 586 451 l 1,19,-1
 613 575 l 1,20,-1
 572 575 l 1,21,-1
 572 686 l 1,22,-1
 673 686 l 1,23,-1
 673 601 l 1,17,-1
276 446 m 0,24,25
 209 446 209 446 177.5 399.5 c 128,-1,26
 146 353 146 353 146 255 c 128,-1,27
 146 157 146 157 178 111 c 128,-1,28
 210 65 210 65 276 65 c 0,29,30
 407 65 407 65 407 255.5 c 0,31,32
 407 446 407 446 276 446 c 0,24,25
EndSplineSet
EndChar

StartChar: dcroat
Encoding: 273 273 121
Width: 583
GlyphClass: 2
Flags: MW
HStem: -10 75<232.5 292.5> 446 75<231.5 290.5 193 319> 592 74<195 406 195 406 500 577> 592 128<195 500 406 577 406 500>
VStem: 52 94<256 267 267 320 189 344> 406 94<446 592 0 592 666 720>
LayerCount: 2
Fore
SplineSet
577 592 m 1,0,-1
 500 592 l 1,1,-1
 500 0 l 1,2,-1
 430 0 l 1,3,4
 423 32 423 32 417 70 c 1,5,6
 360 -10 360 -10 261.5 -10 c 0,7,8
 163 -10 163 -10 107.5 61 c 128,-1,9
 52 132 52 132 52 256 c 2,10,-1
 52 267 l 2,11,12
 52 384 52 384 106.5 452.5 c 128,-1,13
 161 521 161 521 257.25 521 c 0,14,15
 353.5 521 353.5 521 406 446 c 1,16,-1
 406 592 l 1,17,-1
 195 592 l 1,18,-1
 195 666 l 1,19,-1
 406 666 l 1,20,-1
 406 720 l 1,21,-1
 500 720 l 1,22,-1
 500 666 l 1,23,-1
 577 666 l 1,24,-1
 577 592 l 1,0,-1
276 65 m 0,25,26
 407 65 407 65 407 255.5 c 0,27,28
 407 446 407 446 276 446 c 0,29,30
 209 446 209 446 177.5 399.5 c 128,-1,31
 146 353 146 353 146 255 c 128,-1,32
 146 157 146 157 178 111 c 128,-1,33
 210 65 210 65 276 65 c 0,25,26
EndSplineSet
EndChar

StartChar: e
Encoding: 101 101 122
Width: 556
GlyphClass: 2
Flags: MW
HStem: -10 75<242 284 284 288> 234 73<147 409 147 502 145 409> 446 75<281 288 288 321>
VStem: 51 94<234 265 234 341> 409 93
AnchorPoint: "Bottom" 278 0 basechar 0
LayerCount: 2
Fore
SplineSet
281 521 m 2,0,-1
 288 521 l 2,1,2
 383 521 383 521 442.5 462 c 128,-1,3
 502 403 502 403 502 305 c 2,4,-1
 502 234 l 1,5,-1
 145 234 l 1,6,7
 150 65 150 65 290 65 c 0,8,9
 353 65 353 65 383 102 c 128,-1,10
 413 139 413 139 413 190 c 1,11,-1
 502 190 l 1,12,13
 502 100 502 100 442.5 45 c 128,-1,14
 383 -10 383 -10 288 -10 c 2,15,-1
 284 -10 l 2,16,17
 176 -10 176 -10 113.5 59.5 c 128,-1,18
 51 129 51 129 51 245 c 2,19,-1
 51 265 l 2,20,21
 51 380 51 380 113 450.5 c 128,-1,22
 175 521 175 521 281 521 c 2,0,-1
283 446 m 128,-1,24
 226 446 226 446 190.5 411 c 128,-1,25
 155 376 155 376 147 307 c 1,26,-1
 409 307 l 1,27,-1
 409 319 l 2,28,29
 409 376 409 376 374.5 411 c 128,-1,23
 340 446 340 446 283 446 c 128,-1,24
EndSplineSet
EndChar

StartChar: eacute
Encoding: 233 233 123
Width: 556
GlyphClass: 2
Flags: MW
HStem: -10 75<242 284 284 288> 234 73<147 409 147 502 145 409> 446 75<281 288 288 321> 575 145<246 430 246 430>
VStem: 51 94<234 265 234 341> 409 93
LayerCount: 2
Fore
SplineSet
431 717 m 1,0,-1
 315 575 l 1,1,-1
 246 575 l 1,2,-1
 340 720 l 1,3,-1
 430 720 l 1,4,-1
 431 717 l 1,0,-1
281 521 m 2,5,-1
 288 521 l 2,6,7
 383 521 383 521 442.5 462 c 128,-1,8
 502 403 502 403 502 305 c 2,9,-1
 502 234 l 1,10,-1
 145 234 l 1,11,12
 150 65 150 65 290 65 c 0,13,14
 353 65 353 65 383 102 c 128,-1,15
 413 139 413 139 413 190 c 1,16,-1
 502 190 l 1,17,18
 502 100 502 100 442.5 45 c 128,-1,19
 383 -10 383 -10 288 -10 c 2,20,-1
 284 -10 l 2,21,22
 176 -10 176 -10 113.5 59.5 c 128,-1,23
 51 129 51 129 51 245 c 2,24,-1
 51 265 l 2,25,26
 51 380 51 380 113 450.5 c 128,-1,27
 175 521 175 521 281 521 c 2,5,-1
283 446 m 128,-1,29
 226 446 226 446 190.5 411 c 128,-1,30
 155 376 155 376 147 307 c 1,31,-1
 409 307 l 1,32,-1
 409 319 l 2,33,34
 409 376 409 376 374.5 411 c 128,-1,28
 340 446 340 446 283 446 c 128,-1,29
EndSplineSet
EndChar

StartChar: ecaron
Encoding: 283 283 124
Width: 556
GlyphClass: 2
Flags: MW
HStem: -10 75<242 284 284 288> 234 73<147 409 147 502 145 409> 446 75<281 288 288 321> 575 145<104 318 104 240>
VStem: 51 94<234 265 234 341> 409 93
AnchorPoint: "Bottom" 278 0 basechar 0
LayerCount: 2
Fore
SplineSet
318 575 m 1,0,-1
 240 575 l 1,1,-1
 104 720 l 1,2,-1
 184 720 l 1,3,-1
 279 631 l 1,4,-1
 373 720 l 1,5,-1
 453 720 l 1,6,-1
 318 575 l 1,0,-1
281 521 m 2,7,-1
 288 521 l 2,8,9
 383 521 383 521 442.5 462 c 128,-1,10
 502 403 502 403 502 305 c 2,11,-1
 502 234 l 1,12,-1
 145 234 l 1,13,14
 150 65 150 65 290 65 c 0,15,16
 353 65 353 65 383 102 c 128,-1,17
 413 139 413 139 413 190 c 1,18,-1
 502 190 l 1,19,20
 502 100 502 100 442.5 45 c 128,-1,21
 383 -10 383 -10 288 -10 c 2,22,-1
 284 -10 l 2,23,24
 176 -10 176 -10 113.5 59.5 c 128,-1,25
 51 129 51 129 51 245 c 2,26,-1
 51 265 l 2,27,28
 51 380 51 380 113 450.5 c 128,-1,29
 175 521 175 521 281 521 c 2,7,-1
283 446 m 128,-1,31
 226 446 226 446 190.5 411 c 128,-1,32
 155 376 155 376 147 307 c 1,33,-1
 409 307 l 1,34,-1
 409 319 l 2,35,36
 409 376 409 376 374.5 411 c 128,-1,30
 340 446 340 446 283 446 c 128,-1,31
EndSplineSet
EndChar

StartChar: ecircumflex
Encoding: 234 234 125
Width: 556
GlyphClass: 2
Flags: MW
HStem: -10 75<242 284 284 288> 234 73<147 409 147 502 145 409> 446 75<281 288 288 321> 575 145<108 322 108 322 244 457 244 377> 664 56<283 283>
VStem: 51 94<234 265 234 341> 409 93
LayerCount: 2
Fore
SplineSet
457 575 m 1,0,-1
 377 575 l 1,1,-1
 283 664 l 1,2,-1
 188 575 l 1,3,-1
 108 575 l 1,4,-1
 244 720 l 1,5,-1
 322 720 l 1,6,-1
 457 575 l 1,0,-1
281 521 m 2,7,-1
 288 521 l 2,8,9
 383 521 383 521 442.5 462 c 128,-1,10
 502 403 502 403 502 305 c 2,11,-1
 502 234 l 1,12,-1
 145 234 l 1,13,14
 150 65 150 65 290 65 c 0,15,16
 353 65 353 65 383 102 c 128,-1,17
 413 139 413 139 413 190 c 1,18,-1
 502 190 l 1,19,20
 502 100 502 100 442.5 45 c 128,-1,21
 383 -10 383 -10 288 -10 c 2,22,-1
 284 -10 l 2,23,24
 176 -10 176 -10 113.5 59.5 c 128,-1,25
 51 129 51 129 51 245 c 2,26,-1
 51 265 l 2,27,28
 51 380 51 380 113 450.5 c 128,-1,29
 175 521 175 521 281 521 c 2,7,-1
283 446 m 128,-1,31
 226 446 226 446 190.5 411 c 128,-1,32
 155 376 155 376 147 307 c 1,33,-1
 409 307 l 1,34,-1
 409 319 l 2,35,36
 409 376 409 376 374.5 411 c 128,-1,30
 340 446 340 446 283 446 c 128,-1,31
EndSplineSet
EndChar

StartChar: edieresis
Encoding: 235 235 126
Width: 556
GlyphClass: 2
Flags: MW
HStem: -10 75<242 284 284 288> 234 73<147 409 147 502 145 409> 446 75<281 288 288 321> 622 98<143 233 143 233 331 422>
VStem: 51 94<234 265 234 341> 143 90<622 720> 331 91<622 720> 409 93
LayerCount: 2
Fore
SplineSet
233 622 m 1,0,-1
 143 622 l 1,1,-1
 143 720 l 1,2,-1
 233 720 l 1,3,-1
 233 622 l 1,0,-1
422 622 m 1,4,-1
 331 622 l 1,5,-1
 331 720 l 1,6,-1
 422 720 l 1,7,-1
 422 622 l 1,4,-1
281 521 m 2,8,-1
 288 521 l 2,9,10
 383 521 383 521 442.5 462 c 128,-1,11
 502 403 502 403 502 305 c 2,12,-1
 502 234 l 1,13,-1
 145 234 l 1,14,15
 150 65 150 65 290 65 c 0,16,17
 353 65 353 65 383 102 c 128,-1,18
 413 139 413 139 413 190 c 1,19,-1
 502 190 l 1,20,21
 502 100 502 100 442.5 45 c 128,-1,22
 383 -10 383 -10 288 -10 c 2,23,-1
 284 -10 l 2,24,25
 176 -10 176 -10 113.5 59.5 c 128,-1,26
 51 129 51 129 51 245 c 2,27,-1
 51 265 l 2,28,29
 51 380 51 380 113 450.5 c 128,-1,30
 175 521 175 521 281 521 c 2,8,-1
283 446 m 128,-1,32
 226 446 226 446 190.5 411 c 128,-1,33
 155 376 155 376 147 307 c 1,34,-1
 409 307 l 1,35,-1
 409 319 l 2,36,37
 409 376 409 376 374.5 411 c 128,-1,31
 340 446 340 446 283 446 c 128,-1,32
EndSplineSet
EndChar

StartChar: edotaccent
Encoding: 279 279 127
Width: 556
GlyphClass: 2
Flags: MW
HStem: -10 75<242 284 284 288> 234 73<147 409 147 502 145 409> 446 75<281 288 288 321> 604 132<260 296>
VStem: 51 94<234 265 234 341> 212 132<652.5 687.5 650.5 689> 409 93
AnchorPoint: "Bottom" 278 0 basechar 0
LayerCount: 2
Fore
SplineSet
278 736 m 128,-1,1
 306 736 306 736 325 716.5 c 128,-1,2
 344 697 344 697 344 669.5 c 0,3,4
 344 642 344 642 324.5 623 c 128,-1,5
 305 604 305 604 278 604 c 128,-1,6
 251 604 251 604 231.5 623.5 c 128,-1,7
 212 643 212 643 212 670.5 c 0,8,9
 212 698 212 698 231 717 c 128,-1,0
 250 736 250 736 278 736 c 128,-1,1
281 521 m 2,10,-1
 288 521 l 2,11,12
 383 521 383 521 442.5 462 c 128,-1,13
 502 403 502 403 502 305 c 2,14,-1
 502 234 l 1,15,-1
 145 234 l 1,16,17
 150 65 150 65 290 65 c 0,18,19
 353 65 353 65 383 102 c 128,-1,20
 413 139 413 139 413 190 c 1,21,-1
 502 190 l 1,22,23
 502 100 502 100 442.5 45 c 128,-1,24
 383 -10 383 -10 288 -10 c 2,25,-1
 284 -10 l 2,26,27
 176 -10 176 -10 113.5 59.5 c 128,-1,28
 51 129 51 129 51 245 c 2,29,-1
 51 265 l 2,30,31
 51 380 51 380 113 450.5 c 128,-1,32
 175 521 175 521 281 521 c 2,10,-1
283 446 m 128,-1,34
 226 446 226 446 190.5 411 c 128,-1,35
 155 376 155 376 147 307 c 1,36,-1
 409 307 l 1,37,-1
 409 319 l 2,38,39
 409 376 409 376 374.5 411 c 128,-1,33
 340 446 340 446 283 446 c 128,-1,34
EndSplineSet
EndChar

StartChar: egrave
Encoding: 232 232 128
Width: 556
GlyphClass: 2
Flags: MW
HStem: -10 75<242 284 284 288> 234 73<147 409 147 502 145 409> 446 75<281 288 288 321> 575 145<136 320 136 250>
VStem: 51 94<234 265 234 341> 409 93
LayerCount: 2
Fore
SplineSet
320 575 m 1,0,-1
 250 575 l 1,1,-1
 135 717 l 1,2,-1
 136 720 l 1,3,-1
 225 720 l 1,4,-1
 320 575 l 1,0,-1
281 521 m 2,5,-1
 288 521 l 2,6,7
 383 521 383 521 442.5 462 c 128,-1,8
 502 403 502 403 502 305 c 2,9,-1
 502 234 l 1,10,-1
 145 234 l 1,11,12
 150 65 150 65 290 65 c 0,13,14
 353 65 353 65 383 102 c 128,-1,15
 413 139 413 139 413 190 c 1,16,-1
 502 190 l 1,17,18
 502 100 502 100 442.5 45 c 128,-1,19
 383 -10 383 -10 288 -10 c 2,20,-1
 284 -10 l 2,21,22
 176 -10 176 -10 113.5 59.5 c 128,-1,23
 51 129 51 129 51 245 c 2,24,-1
 51 265 l 2,25,26
 51 380 51 380 113 450.5 c 128,-1,27
 175 521 175 521 281 521 c 2,5,-1
283 446 m 128,-1,29
 226 446 226 446 190.5 411 c 128,-1,30
 155 376 155 376 147 307 c 1,31,-1
 409 307 l 1,32,-1
 409 319 l 2,33,34
 409 376 409 376 374.5 411 c 128,-1,28
 340 446 340 446 283 446 c 128,-1,29
EndSplineSet
EndChar

StartChar: emacron
Encoding: 275 275 129
Width: 556
GlyphClass: 2
Flags: MW
HStem: -10 75<242 284 284 288> 234 73<147 409 147 502 145 409> 446 75<281 288 288 321> 662 74<119 437 119 437>
VStem: 51 94<234 265 234 341> 409 93
AnchorPoint: "Bottom" 278 0 basechar 0
LayerCount: 2
Fore
SplineSet
437 662 m 1,0,-1
 119 662 l 1,1,-1
 119 736 l 1,2,-1
 437 736 l 1,3,-1
 437 662 l 1,0,-1
281 521 m 2,4,-1
 288 521 l 2,5,6
 383 521 383 521 442.5 462 c 128,-1,7
 502 403 502 403 502 305 c 2,8,-1
 502 234 l 1,9,-1
 145 234 l 1,10,11
 150 65 150 65 290 65 c 0,12,13
 353 65 353 65 383 102 c 128,-1,14
 413 139 413 139 413 190 c 1,15,-1
 502 190 l 1,16,17
 502 100 502 100 442.5 45 c 128,-1,18
 383 -10 383 -10 288 -10 c 2,19,-1
 284 -10 l 2,20,21
 176 -10 176 -10 113.5 59.5 c 128,-1,22
 51 129 51 129 51 245 c 2,23,-1
 51 265 l 2,24,25
 51 380 51 380 113 450.5 c 128,-1,26
 175 521 175 521 281 521 c 2,4,-1
283 446 m 128,-1,28
 226 446 226 446 190.5 411 c 128,-1,29
 155 376 155 376 147 307 c 1,30,-1
 409 307 l 1,31,-1
 409 319 l 2,32,33
 409 376 409 376 374.5 411 c 128,-1,27
 340 446 340 446 283 446 c 128,-1,28
EndSplineSet
EndChar

StartChar: eogonek
Encoding: 281 281 130
Width: 556
GlyphClass: 2
Flags: MW
HStem: -143 47<353.5 375> -20 20G<361 370 370 370> -10 75<242 284 284 288 288 302> 234 73<147 409 147 502 145 409> 446 75<281 288 288 321>
VStem: 51 94<234 265 234 341> 262 62<-70.5 -57> 409 93
AnchorPoint: "Bottom" 278 0 basechar 0
LayerCount: 2
Fore
SplineSet
502 234 m 1,0,-1
 145 234 l 1,1,2
 150 65 150 65 290 65 c 0,3,4
 353 65 353 65 383 102 c 128,-1,5
 413 139 413 139 413 190 c 1,6,-1
 502 190 l 1,7,8
 502 119 502 119 464 69 c 128,-1,9
 426 19 426 19 361 0 c 1,10,-1
 370 0 l 1,11,12
 353 -10 353 -10 338.5 -26 c 128,-1,13
 324 -42 324 -42 324 -58 c 0,14,15
 324 -96 324 -96 368 -96 c 0,16,17
 388 -96 388 -96 435 -82 c 1,18,-1
 448 -119 l 1,19,20
 408 -143 408 -143 359 -143 c 0,21,22
 262 -143 262 -143 262 -69 c 0,23,24
 262 -40 262 -40 302 -10 c 1,25,-1
 284 -10 l 2,26,27
 176 -10 176 -10 113.5 59.5 c 128,-1,28
 51 129 51 129 51 245 c 2,29,-1
 51 265 l 2,30,31
 51 380 51 380 113 450.5 c 128,-1,32
 175 521 175 521 281 521 c 2,33,-1
 288 521 l 2,34,35
 383 521 383 521 442.5 462 c 128,-1,36
 502 403 502 403 502 305 c 2,37,-1
 502 234 l 1,0,-1
409 307 m 1,38,-1
 409 319 l 2,39,40
 409 376 409 376 374.5 411 c 128,-1,41
 340 446 340 446 283 446 c 128,-1,42
 226 446 226 446 190.5 411 c 128,-1,43
 155 376 155 376 147 307 c 1,44,-1
 409 307 l 1,38,-1
EndSplineSet
EndChar

StartChar: f
Encoding: 102 102 131
Width: 338
GlyphClass: 2
Flags: MW
HStem: 436 75<47 103 47 103 197 316> 653 75<237.5 240.5 182.5 271.5>
VStem: 103 94<0 436 0 436 511 580 580 590>
LayerCount: 2
Fore
SplineSet
222 728 m 0,0,1
 279 728 279 728 316 709 c 1,2,-1
 316 640 l 1,3,4
 286 653 286 653 255.5 653 c 0,5,6
 225 653 225 653 211 638.5 c 128,-1,7
 197 624 197 624 197 590 c 2,8,-1
 197 511 l 1,9,-1
 316 511 l 1,10,-1
 316 436 l 1,11,-1
 197 436 l 1,12,-1
 197 0 l 1,13,-1
 103 0 l 1,14,-1
 103 436 l 1,15,-1
 47 436 l 1,16,-1
 47 511 l 1,17,-1
 103 511 l 1,18,-1
 103 580 l 2,19,20
 103 728 103 728 222 728 c 0,0,1
EndSplineSet
EndChar

StartChar: g
Encoding: 103 103 132
Width: 568
GlyphClass: 2
Flags: MW
HStem: -188 75<125 380 187 361> 3 90<171 421 228 393> 200 75<208 319.5 254.5 296> 446 75<284 288 288 307 284 319.5>
VStem: 36 93<-71 -39.5> 65 93<129 158.5> 78 93<331 391.5 328.5 409> 404 93<328.5 382.5 312.5 391.5> 458 93<-68 -36> 471 80<603 603>
LayerCount: 2
Fore
SplineSet
471 603 m 1,0,-1
 551 603 l 1,1,2
 551 552 551 552 524 517.5 c 128,-1,3
 497 483 497 483 449 473 c 1,4,-1
 447 470 l 1,5,6
 497 426 497 426 497 357 c 0,7,8
 497 288 497 288 443 244 c 128,-1,9
 389 200 389 200 296 200 c 2,10,-1
 228 200 l 2,11,12
 198 200 198 200 178 184.5 c 128,-1,13
 158 169 158 169 158 145 c 128,-1,14
 158 121 158 121 177 107 c 128,-1,15
 196 93 196 93 228 93 c 2,16,-1
 421 93 l 2,17,18
 480 93 480 93 515.5 56 c 128,-1,19
 551 19 551 19 551 -43.5 c 0,20,21
 551 -106 551 -106 499.5 -147 c 128,-1,22
 448 -188 448 -188 361 -188 c 2,23,-1
 160 -188 l 2,24,25
 109 -188 109 -188 72.5 -150.5 c 128,-1,26
 36 -113 36 -113 36 -69.5 c 0,27,28
 36 -26 36 -26 56.5 5 c 128,-1,29
 77 36 77 36 111 51 c 1,30,31
 65 79 65 79 65 134 c 0,32,33
 65 207 65 207 145 235 c 1,34,35
 78 272 78 272 78 360 c 0,36,37
 78 434 78 434 132.5 477.5 c 128,-1,38
 187 521 187 521 284 521 c 2,39,-1
 288 521 l 2,40,41
 344 521 344 521 390 504 c 1,42,43
 460.5 538.5 460.5 538.5 471 603 c 1,0,-1
287.5 446 m 0,44,45
 171 446 171 446 171 360.5 c 0,46,47
 171 275 171 275 287.5 275 c 0,48,49
 404 275 404 275 404 360.5 c 0,50,51
 404 446 404 446 287.5 446 c 0,44,45
393 3 m 2,52,-1
 187 3 l 2,53,54
 163 3 163 3 146 -14 c 128,-1,55
 129 -31 129 -31 129 -55 c 128,-1,56
 129 -79 129 -79 146 -96 c 128,-1,57
 163 -113 163 -113 187 -113 c 2,58,-1
 380 -113 l 2,59,60
 412 -113 412 -113 435 -94.5 c 128,-1,61
 458 -76 458 -76 458 -51.5 c 0,62,63
 458 -27 458 -27 441 -12 c 128,-1,64
 424 3 424 3 393 3 c 2,52,-1
EndSplineSet
EndChar

StartChar: gbreve
Encoding: 287 287 133
Width: 568
GlyphClass: 2
Flags: MW
HStem: -188 75<125 380 187 361> 3 90<171 421 228 393> 200 75<208 319.5 254.5 296> 446 75<284 288 288 307 284 319.5> 613 62<252.5 314.5 252.5 331.5>
VStem: 36 93<-71 -39.5> 65 93<129 158.5> 78 93<331 391.5 328.5 409> 404 93<328.5 382.5 312.5 391.5> 458 93<-68 -36> 471 80<603 603>
LayerCount: 2
Fore
SplineSet
409 737 m 1,0,-1
 477 737 l 1,1,2
 477 691 477 691 416 652 c 128,-1,3
 355 613 355 613 283.5 613 c 0,4,5
 212 613 212 613 152 652 c 128,-1,6
 92 691 92 691 92 737 c 1,7,-1
 159 737 l 1,8,9
 167 710 167 710 202 692.5 c 128,-1,10
 237 675 237 675 283.5 675 c 0,11,12
 330 675 330 675 365.5 692.5 c 128,-1,13
 401 710 401 710 409 737 c 1,0,-1
471 603 m 1,14,-1
 551 603 l 1,15,16
 551 552 551 552 524 517.5 c 128,-1,17
 497 483 497 483 449 473 c 1,18,-1
 447 470 l 1,19,20
 497 426 497 426 497 357 c 0,21,22
 497 288 497 288 443 244 c 128,-1,23
 389 200 389 200 296 200 c 2,24,-1
 228 200 l 2,25,26
 198 200 198 200 178 184.5 c 128,-1,27
 158 169 158 169 158 145 c 128,-1,28
 158 121 158 121 177 107 c 128,-1,29
 196 93 196 93 228 93 c 2,30,-1
 421 93 l 2,31,32
 480 93 480 93 515.5 56 c 128,-1,33
 551 19 551 19 551 -43.5 c 0,34,35
 551 -106 551 -106 499.5 -147 c 128,-1,36
 448 -188 448 -188 361 -188 c 2,37,-1
 160 -188 l 2,38,39
 109 -188 109 -188 72.5 -150.5 c 128,-1,40
 36 -113 36 -113 36 -69.5 c 0,41,42
 36 -26 36 -26 56.5 5 c 128,-1,43
 77 36 77 36 111 51 c 1,44,45
 65 79 65 79 65 134 c 0,46,47
 65 207 65 207 145 235 c 1,48,49
 78 272 78 272 78 360 c 0,50,51
 78 434 78 434 132.5 477.5 c 128,-1,52
 187 521 187 521 284 521 c 2,53,-1
 288 521 l 2,54,55
 344 521 344 521 390 504 c 1,56,57
 460.5 538.5 460.5 538.5 471 603 c 1,14,-1
287.5 446 m 0,58,59
 171 446 171 446 171 360.5 c 0,60,61
 171 275 171 275 287.5 275 c 0,62,63
 404 275 404 275 404 360.5 c 0,64,65
 404 446 404 446 287.5 446 c 0,58,59
393 3 m 2,66,-1
 187 3 l 2,67,68
 163 3 163 3 146 -14 c 128,-1,69
 129 -31 129 -31 129 -55 c 128,-1,70
 129 -79 129 -79 146 -96 c 128,-1,71
 163 -113 163 -113 187 -113 c 2,72,-1
 380 -113 l 2,73,74
 412 -113 412 -113 435 -94.5 c 128,-1,75
 458 -76 458 -76 458 -51.5 c 0,76,77
 458 -27 458 -27 441 -12 c 128,-1,78
 424 3 424 3 393 3 c 2,66,-1
EndSplineSet
EndChar

StartChar: gcommaaccent
Encoding: 291 291 134
Width: 568
GlyphClass: 2
Flags: MW
HStem: -188 75<125 380 187 361> 3 90<171 421 228 393> 200 75<208 319.5 254.5 296> 446 75<284 288 288 307 284 319.5> 591 111<294 335 294 335 234 335>
VStem: 36 93<-71 -39.5> 65 93<129 158.5> 78 93<331 391.5 328.5 409> 234 101<591 676 676 676> 404 93<328.5 382.5 312.5 391.5> 458 93<-68 -36> 471 80<603 603>
LayerCount: 2
Fore
SplineSet
234 676 m 1,0,-1
 263 801 l 1,1,-1
 316 801 l 1,2,-1
 294 702 l 1,3,-1
 335 702 l 1,4,-1
 335 591 l 1,5,-1
 234 591 l 1,6,-1
 234 676 l 1,0,-1
471 603 m 1,7,-1
 551 603 l 1,8,9
 551 552 551 552 524 517.5 c 128,-1,10
 497 483 497 483 449 473 c 1,11,-1
 447 470 l 1,12,13
 497 426 497 426 497 357 c 0,14,15
 497 288 497 288 443 244 c 128,-1,16
 389 200 389 200 296 200 c 2,17,-1
 228 200 l 2,18,19
 198 200 198 200 178 184.5 c 128,-1,20
 158 169 158 169 158 145 c 128,-1,21
 158 121 158 121 177 107 c 128,-1,22
 196 93 196 93 228 93 c 2,23,-1
 421 93 l 2,24,25
 480 93 480 93 515.5 56 c 128,-1,26
 551 19 551 19 551 -43.5 c 0,27,28
 551 -106 551 -106 499.5 -147 c 128,-1,29
 448 -188 448 -188 361 -188 c 2,30,-1
 160 -188 l 2,31,32
 109 -188 109 -188 72.5 -150.5 c 128,-1,33
 36 -113 36 -113 36 -69.5 c 0,34,35
 36 -26 36 -26 56.5 5 c 128,-1,36
 77 36 77 36 111 51 c 1,37,38
 65 79 65 79 65 134 c 0,39,40
 65 207 65 207 145 235 c 1,41,42
 78 272 78 272 78 360 c 0,43,44
 78 434 78 434 132.5 477.5 c 128,-1,45
 187 521 187 521 284 521 c 2,46,-1
 288 521 l 2,47,48
 344 521 344 521 390 504 c 1,49,50
 460.5 538.5 460.5 538.5 471 603 c 1,7,-1
287.5 446 m 0,51,52
 171 446 171 446 171 360.5 c 0,53,54
 171 275 171 275 287.5 275 c 0,55,56
 404 275 404 275 404 360.5 c 0,57,58
 404 446 404 446 287.5 446 c 0,51,52
393 3 m 2,59,-1
 187 3 l 2,60,61
 163 3 163 3 146 -14 c 128,-1,62
 129 -31 129 -31 129 -55 c 128,-1,63
 129 -79 129 -79 146 -96 c 128,-1,64
 163 -113 163 -113 187 -113 c 2,65,-1
 380 -113 l 2,66,67
 412 -113 412 -113 435 -94.5 c 128,-1,68
 458 -76 458 -76 458 -51.5 c 0,69,70
 458 -27 458 -27 441 -12 c 128,-1,71
 424 3 424 3 393 3 c 2,59,-1
EndSplineSet
EndChar

StartChar: h
Encoding: 104 104 135
Width: 593
GlyphClass: 2
Flags: MW
HStem: 446 75<303.5 345> 700 20G<83 177 177 177>
VStem: 83 94<0 304 447 720> 421 94<0 327 327 344 0 370.5>
LayerCount: 2
Fore
SplineSet
177 720 m 1,0,-1
 177 447 l 1,1,2
 240 521 240 521 329.5 521 c 0,3,4
 419 521 419 521 467 476 c 128,-1,5
 515 431 515 431 515 344 c 2,6,-1
 515 0 l 1,7,-1
 421 0 l 1,8,-1
 421 327 l 2,9,10
 421 446 421 446 313 446 c 0,11,12
 258 446 258 446 217.5 404.5 c 128,-1,13
 177 363 177 363 177 304 c 2,14,-1
 177 0 l 1,15,-1
 83 0 l 1,16,-1
 83 720 l 1,17,-1
 177 720 l 1,0,-1
EndSplineSet
EndChar

StartChar: i
Encoding: 105 105 136
Width: 260
GlyphClass: 2
Flags: MW
HStem: 491 20G<83 177 177 177> 633 87<81 179 81 179>
VStem: 83 94<0 511>
LayerCount: 2
Fore
SplineSet
179 633 m 1,0,-1
 81 633 l 1,1,-1
 81 720 l 1,2,-1
 179 720 l 1,3,-1
 179 633 l 1,0,-1
177 0 m 1,4,-1
 83 0 l 1,5,-1
 83 511 l 1,6,-1
 177 511 l 1,7,-1
 177 0 l 1,4,-1
EndSplineSet
EndChar

StartChar: dotlessi
Encoding: 305 305 137
Width: 260
GlyphClass: 2
Flags: MW
HStem: 491 20G<83 177 177 177>
VStem: 83 94<0 511>
LayerCount: 2
Fore
SplineSet
177 0 m 1,0,-1
 83 0 l 1,1,-1
 83 511 l 1,2,-1
 177 511 l 1,3,-1
 177 0 l 1,0,-1
EndSplineSet
EndChar

StartChar: iacute
Encoding: 237 237 138
Width: 260
GlyphClass: 2
Flags: MW
HStem: 491 20G<83 177 177 177> 575 145<85 269 85 269>
VStem: 83 94<0 511>
LayerCount: 2
Fore
SplineSet
270 717 m 1,0,-1
 154 575 l 1,1,-1
 85 575 l 1,2,-1
 179 720 l 1,3,-1
 269 720 l 1,4,-1
 270 717 l 1,0,-1
177 0 m 1,5,-1
 83 0 l 1,6,-1
 83 511 l 1,7,-1
 177 511 l 1,8,-1
 177 0 l 1,5,-1
EndSplineSet
EndChar

StartChar: icircumflex
Encoding: 238 238 139
Width: 260
GlyphClass: 2
Flags: MW
HStem: 491 20G<83 177 177 177> 575 145<-44 170 -44 170 92 305 92 225> 664 56<131 131>
VStem: 83 94<0 511>
LayerCount: 2
Fore
SplineSet
305 575 m 1,0,-1
 225 575 l 1,1,-1
 131 664 l 1,2,-1
 36 575 l 1,3,-1
 -44 575 l 1,4,-1
 92 720 l 1,5,-1
 170 720 l 1,6,-1
 305 575 l 1,0,-1
177 0 m 1,7,-1
 83 0 l 1,8,-1
 83 511 l 1,9,-1
 177 511 l 1,10,-1
 177 0 l 1,7,-1
EndSplineSet
EndChar

StartChar: idieresis
Encoding: 239 239 140
Width: 260
GlyphClass: 2
Flags: MW
HStem: 491 20G<83 177 177 177> 622 98<-9 83 -9 83 -9 179 179 270>
VStem: -9 92<622 720> 83 94<0 511> 179 91<622 720>
LayerCount: 2
Fore
SplineSet
83 622 m 1,0,-1
 -9 622 l 1,1,-1
 -9 720 l 1,2,-1
 83 720 l 1,3,-1
 83 622 l 1,0,-1
270 622 m 1,4,-1
 179 622 l 1,5,-1
 179 720 l 1,6,-1
 270 720 l 1,7,-1
 270 622 l 1,4,-1
177 0 m 1,8,-1
 83 0 l 1,9,-1
 83 511 l 1,10,-1
 177 511 l 1,11,-1
 177 0 l 1,8,-1
EndSplineSet
EndChar

StartChar: igrave
Encoding: 236 236 141
Width: 260
GlyphClass: 2
Flags: MW
HStem: 491 20G<83 177 177 177> 575 145<-8 176 -8 106>
VStem: 83 94<0 511>
LayerCount: 2
Fore
SplineSet
176 575 m 1,0,-1
 106 575 l 1,1,-1
 -9 717 l 1,2,-1
 -8 720 l 1,3,-1
 83 720 l 1,4,-1
 176 575 l 1,0,-1
177 0 m 1,5,-1
 83 0 l 1,6,-1
 83 511 l 1,7,-1
 177 511 l 1,8,-1
 177 0 l 1,5,-1
EndSplineSet
EndChar

StartChar: imacron
Encoding: 299 299 142
Width: 260
GlyphClass: 2
Flags: MW
HStem: 491 20G<83 177 177 177> 662 74<-29 289 -29 289>
VStem: 83 94<0 511>
LayerCount: 2
Fore
SplineSet
289 662 m 1,0,-1
 -29 662 l 1,1,-1
 -29 736 l 1,2,-1
 289 736 l 1,3,-1
 289 662 l 1,0,-1
177 0 m 1,4,-1
 83 0 l 1,5,-1
 83 511 l 1,6,-1
 177 511 l 1,7,-1
 177 0 l 1,4,-1
EndSplineSet
EndChar

StartChar: iogonek
Encoding: 303 303 143
Width: 260
GlyphClass: 2
Flags: MW
HStem: -143 47<157.5 179> 491 20G<83 177 177 177> 633 87<81 179 81 179>
VStem: 66 62<-70.5 -54.5> 83 94<0 511 0 511>
LayerCount: 2
Fore
SplineSet
179 633 m 1,0,-1
 81 633 l 1,1,-1
 81 720 l 1,2,-1
 179 720 l 1,3,-1
 179 633 l 1,0,-1
239 -82 m 1,4,-1
 252 -119 l 1,5,6
 211 -143 211 -143 163 -143 c 0,7,8
 66 -143 66 -143 66 -69 c 0,9,10
 66 -36 66 -36 120 0 c 1,11,-1
 83 0 l 1,12,-1
 83 511 l 1,13,-1
 177 511 l 1,14,-1
 177 0 l 1,15,-1
 174 0 l 1,16,17
 157 -10 157 -10 142.5 -26 c 128,-1,18
 128 -42 128 -42 128 -58 c 0,19,20
 128 -96 128 -96 172 -96 c 0,21,22
 192 -96 192 -96 239 -82 c 1,4,-1
EndSplineSet
EndChar

StartChar: j
Encoding: 106 106 144
Width: 260
GlyphClass: 2
Flags: MW
HStem: -186 74<34.5 43 11.5 98.5> 491 20G<83 177 177 177> 633 87<81 179 81 179>
VStem: 83 94<-44 -15 -15 511>
LayerCount: 2
Fore
SplineSet
179 633 m 1,0,-1
 81 633 l 1,1,-1
 81 720 l 1,2,-1
 179 720 l 1,3,-1
 179 633 l 1,0,-1
177 511 m 1,4,-1
 177 -15 l 2,5,6
 177 -106 177 -106 149 -146 c 128,-1,7
 121 -186 121 -186 60.5 -186 c 0,8,9
 -0 -186 -0 -186 -34 -167 c 1,10,-1
 -34 -97 l 1,11,12
 -1 -112 -1 -112 27 -112 c 0,13,14
 55 -112 55 -112 69 -96.5 c 128,-1,15
 83 -81 83 -81 83 -44 c 2,16,-1
 83 511 l 1,17,-1
 177 511 l 1,4,-1
EndSplineSet
EndChar

StartChar: k
Encoding: 107 107 145
Width: 535
GlyphClass: 2
Flags: MW
HStem: 491 20G<405 508 508 508> 700 20G<83 177 177 177>
VStem: 83 94<0 110 226 720>
AnchorPoint: "Bottom" 268 0 basechar 0
LayerCount: 2
Fore
SplineSet
177 226 m 1,0,-1
 405 511 l 1,1,-1
 508 511 l 1,2,-1
 311 263 l 1,3,-1
 521 0 l 1,4,-1
 407 0 l 1,5,-1
 254 190 l 1,6,-1
 177 110 l 1,7,-1
 177 0 l 1,8,-1
 83 0 l 1,9,-1
 83 720 l 1,10,-1
 177 720 l 1,11,-1
 177 226 l 1,0,-1
EndSplineSet
EndChar

StartChar: kcommaaccent
Encoding: 311 311 146
Width: 535
GlyphClass: 2
Flags: MW
HStem: -151 111<217 258 217 318> 491 20G<405 508 508 508> 700 20G<83 177 177 177>
VStem: 83 94<0 110 226 720> 217 101<-125 -125 -125 -40 -125 -40>
AnchorPoint: "Bottom" 268 0 basechar 0
LayerCount: 2
Fore
SplineSet
177 226 m 1,0,-1
 405 511 l 1,1,-1
 508 511 l 1,2,-1
 311 263 l 1,3,-1
 521 0 l 1,4,-1
 407 0 l 1,5,-1
 254 190 l 1,6,-1
 177 110 l 1,7,-1
 177 0 l 1,8,-1
 83 0 l 1,9,-1
 83 720 l 1,10,-1
 177 720 l 1,11,-1
 177 226 l 1,0,-1
318 -125 m 1,12,-1
 289 -250 l 1,13,-1
 236 -250 l 1,14,-1
 258 -151 l 1,15,-1
 217 -151 l 1,16,-1
 217 -40 l 1,17,-1
 318 -40 l 1,18,-1
 318 -125 l 1,12,-1
EndSplineSet
EndChar

StartChar: l
Encoding: 108 108 147
Width: 268
GlyphClass: 2
Flags: MW
HStem: 700 20G<87 181 181 181>
VStem: 87 94<0 720>
AnchorPoint: "Bottom" 134 0 basechar 0
LayerCount: 2
Fore
SplineSet
181 0 m 1,0,-1
 87 0 l 1,1,-1
 87 720 l 1,2,-1
 181 720 l 1,3,-1
 181 0 l 1,0,-1
EndSplineSet
EndChar

StartChar: lacute
Encoding: 314 314 148
Width: 268
GlyphClass: 2
Flags: MW
HStem: 700 20G<87 181 181 181> 750 145<81 265 81 265>
VStem: 87 94<0 720>
AnchorPoint: "Bottom" 134 0 basechar 0
LayerCount: 2
Fore
SplineSet
266 892 m 1,0,-1
 150 750 l 1,1,-1
 81 750 l 1,2,-1
 175 895 l 1,3,-1
 265 895 l 1,4,-1
 266 892 l 1,0,-1
181 0 m 1,5,-1
 87 0 l 1,6,-1
 87 720 l 1,7,-1
 181 720 l 1,8,-1
 181 0 l 1,5,-1
EndSplineSet
EndChar

StartChar: lcaron
Encoding: 318 318 149
Width: 268
GlyphClass: 2
Flags: MW
HStem: 575 111<247 288 247 348> 700 20G<87 181 181 181>
VStem: 87 94<0 720> 247 101<601 601 601 686 601 686>
AnchorPoint: "Bottom" 134 0 basechar 0
LayerCount: 2
Fore
SplineSet
181 0 m 1,0,-1
 87 0 l 1,1,-1
 87 720 l 1,2,-1
 181 720 l 1,3,-1
 181 0 l 1,0,-1
348 601 m 1,4,-1
 313 451 l 1,5,-1
 261 451 l 1,6,-1
 288 575 l 1,7,-1
 247 575 l 1,8,-1
 247 686 l 1,9,-1
 348 686 l 1,10,-1
 348 601 l 1,4,-1
EndSplineSet
EndChar

StartChar: lcommaaccent
Encoding: 316 316 150
Width: 268
GlyphClass: 2
Flags: MW
HStem: -151 111<83 124 83 184> 700 20G<87 181 181 181>
VStem: 87 94<0 720>
AnchorPoint: "Bottom" 134 0 basechar 0
LayerCount: 2
Fore
SplineSet
181 0 m 1,0,-1
 87 0 l 1,1,-1
 87 720 l 1,2,-1
 181 720 l 1,3,-1
 181 0 l 1,0,-1
184 -125 m 1,4,-1
 155 -250 l 1,5,-1
 102 -250 l 1,6,-1
 124 -151 l 1,7,-1
 83 -151 l 1,8,-1
 83 -40 l 1,9,-1
 184 -40 l 1,10,-1
 184 -125 l 1,4,-1
EndSplineSet
EndChar

StartChar: lslash
Encoding: 322 322 151
Width: 298
GlyphClass: 2
Flags: MW
HStem: 700 20G<102 196 196 196>
VStem: 102 94<0 322 322 322 440 720>
LayerCount: 2
Fore
SplineSet
196 440 m 1,0,-1
 278 481 l 1,1,-1
 278 411 l 1,2,-1
 196 370 l 1,3,-1
 196 0 l 1,4,-1
 102 0 l 1,5,-1
 102 322 l 1,6,-1
 20 281 l 1,7,-1
 20 351 l 1,8,-1
 102 392 l 1,9,-1
 102 720 l 1,10,-1
 196 720 l 1,11,-1
 196 440 l 1,0,-1
EndSplineSet
EndChar

StartChar: m
Encoding: 109 109 152
Width: 867
GlyphClass: 2
Flags: MW
HStem: 446 75<291 327.5 596 633.5> 491 20G<83 151 151 151>
VStem: 83 94<0 304 0 511> 389 94<0 304 0 327 0 366.5> 695 94<0 327 327 344 0 366.5>
LayerCount: 2
Fore
SplineSet
622 521 m 0,0,1
 701 521 701 521 745 475 c 128,-1,2
 789 429 789 429 789 344 c 2,3,-1
 789 0 l 1,4,-1
 695 0 l 1,5,-1
 695 327 l 2,6,7
 695 446 695 446 603 446 c 0,8,9
 554 446 554 446 518.5 404.5 c 128,-1,10
 483 363 483 363 483 304 c 2,11,-1
 483 0 l 1,12,-1
 389 0 l 1,13,-1
 389 327 l 2,14,15
 389 446 389 446 297 446 c 0,16,17
 248 446 248 446 212.5 404.5 c 128,-1,18
 177 363 177 363 177 304 c 2,19,-1
 177 0 l 1,20,-1
 83 0 l 1,21,-1
 83 511 l 1,22,-1
 151 511 l 1,23,-1
 164 436 l 1,24,25
 222 521 222 521 324 521 c 0,26,27
 426 521 426 521 465 436 c 1,28,29
 525 521 525 521 622 521 c 0,0,1
EndSplineSet
EndChar

StartChar: n
Encoding: 110 110 153
Width: 593
GlyphClass: 2
Flags: MW
HStem: 446 75<299.5 345> 491 20G<83 151 151 151>
VStem: 83 94<0 304 0 511> 421 94<0 327 327 344 0 370.5>
AnchorPoint: "Bottom" 297 0 basechar 0
LayerCount: 2
Fore
SplineSet
335 521 m 0,0,1
 419 521 419 521 467 476 c 128,-1,2
 515 431 515 431 515 344 c 2,3,-1
 515 0 l 1,4,-1
 421 0 l 1,5,-1
 421 327 l 2,6,7
 421 446 421 446 313 446 c 0,8,9
 258 446 258 446 217.5 404.5 c 128,-1,10
 177 363 177 363 177 304 c 2,11,-1
 177 0 l 1,12,-1
 83 0 l 1,13,-1
 83 511 l 1,14,-1
 151 511 l 1,15,-1
 164 436 l 1,16,17
 228 521 228 521 335 521 c 0,0,1
EndSplineSet
EndChar

StartChar: nacute
Encoding: 324 324 154
Width: 593
GlyphClass: 2
Flags: MW
HStem: 446 75<299.5 345> 491 20G<83 151 151 151> 575 145<244 428 244 428>
VStem: 83 94<0 304 0 511> 421 94<0 327 327 344 0 370.5>
AnchorPoint: "Bottom" 297 0 basechar 0
LayerCount: 2
Fore
SplineSet
429 717 m 1,0,-1
 313 575 l 1,1,-1
 244 575 l 1,2,-1
 338 720 l 1,3,-1
 428 720 l 1,4,-1
 429 717 l 1,0,-1
335 521 m 0,5,6
 419 521 419 521 467 476 c 128,-1,7
 515 431 515 431 515 344 c 2,8,-1
 515 0 l 1,9,-1
 421 0 l 1,10,-1
 421 327 l 2,11,12
 421 446 421 446 313 446 c 0,13,14
 258 446 258 446 217.5 404.5 c 128,-1,15
 177 363 177 363 177 304 c 2,16,-1
 177 0 l 1,17,-1
 83 0 l 1,18,-1
 83 511 l 1,19,-1
 151 511 l 1,20,-1
 164 436 l 1,21,22
 228 521 228 521 335 521 c 0,5,6
EndSplineSet
EndChar

StartChar: ncaron
Encoding: 328 328 155
Width: 593
GlyphClass: 2
Flags: MW
HStem: 446 75<299.5 345> 491 20G<83 151 151 151> 575 145<123 337 123 259>
VStem: 83 94<0 304 0 511> 421 94<0 327 327 344 0 370.5>
AnchorPoint: "Bottom" 297 0 basechar 0
LayerCount: 2
Fore
SplineSet
337 575 m 1,0,-1
 259 575 l 1,1,-1
 123 720 l 1,2,-1
 203 720 l 1,3,-1
 298 631 l 1,4,-1
 392 720 l 1,5,-1
 472 720 l 1,6,-1
 337 575 l 1,0,-1
335 521 m 0,7,8
 419 521 419 521 467 476 c 128,-1,9
 515 431 515 431 515 344 c 2,10,-1
 515 0 l 1,11,-1
 421 0 l 1,12,-1
 421 327 l 2,13,14
 421 446 421 446 313 446 c 0,15,16
 258 446 258 446 217.5 404.5 c 128,-1,17
 177 363 177 363 177 304 c 2,18,-1
 177 0 l 1,19,-1
 83 0 l 1,20,-1
 83 511 l 1,21,-1
 151 511 l 1,22,-1
 164 436 l 1,23,24
 228 521 228 521 335 521 c 0,7,8
EndSplineSet
EndChar

StartChar: ncommaaccent
Encoding: 326 326 156
Width: 593
GlyphClass: 2
Flags: MW
HStem: -151 111<246 287 246 347> 446 75<299.5 345> 491 20G<83 151 151 151>
VStem: 83 94<0 304 0 511> 246 101<-125 -125 -125 -40 -125 -40> 421 94<0 327 327 344 0 370.5>
AnchorPoint: "Bottom" 297 0 basechar 0
LayerCount: 2
Fore
SplineSet
335 521 m 0,0,1
 419 521 419 521 467 476 c 128,-1,2
 515 431 515 431 515 344 c 2,3,-1
 515 0 l 1,4,-1
 421 0 l 1,5,-1
 421 327 l 2,6,7
 421 446 421 446 313 446 c 0,8,9
 258 446 258 446 217.5 404.5 c 128,-1,10
 177 363 177 363 177 304 c 2,11,-1
 177 0 l 1,12,-1
 83 0 l 1,13,-1
 83 511 l 1,14,-1
 151 511 l 1,15,-1
 164 436 l 1,16,17
 228 521 228 521 335 521 c 0,0,1
347 -125 m 1,18,-1
 318 -250 l 1,19,-1
 265 -250 l 1,20,-1
 287 -151 l 1,21,-1
 246 -151 l 1,22,-1
 246 -40 l 1,23,-1
 347 -40 l 1,24,-1
 347 -125 l 1,18,-1
EndSplineSet
EndChar

StartChar: ntilde
Encoding: 241 241 157
Width: 593
GlyphClass: 2
Flags: MW
HStem: 446 75<299.5 345> 491 20G<83 151 151 151> 616 69<383.5 406.5 383.5 418.5> 650 70<201 230.5>
VStem: 83 94<0 304 0 511> 421 94<0 327 327 344 0 370.5>
LayerCount: 2
Fore
SplineSet
447 720 m 1,0,-1
 497 720 l 1,1,2
 497 675 497 675 466 645.5 c 128,-1,3
 435 616 435 616 393 616 c 128,-1,4
 351 616 351 616 327 623 c 128,-1,5
 303 630 303 630 287 635 c 0,6,7
 259.266666667 643.666666667 259.266666667 643.666666667 247.233333333 646.833333333 c 128,-1,8
 235.2 650 235.2 650 216 650 c 0,9,10
 171 650 171 650 161 616 c 1,11,-1
 111 616 l 1,12,13
 111 658 111 658 141 689 c 128,-1,14
 171 720 171 720 213.5 720 c 128,-1,15
 256 720 256 720 312.5 702.5 c 128,-1,16
 369 685 369 685 392 685 c 0,17,18
 436 685 436 685 447 720 c 1,0,-1
335 521 m 0,19,20
 419 521 419 521 467 476 c 128,-1,21
 515 431 515 431 515 344 c 2,22,-1
 515 0 l 1,23,-1
 421 0 l 1,24,-1
 421 327 l 2,25,26
 421 446 421 446 313 446 c 0,27,28
 258 446 258 446 217.5 404.5 c 128,-1,29
 177 363 177 363 177 304 c 2,30,-1
 177 0 l 1,31,-1
 83 0 l 1,32,-1
 83 511 l 1,33,-1
 151 511 l 1,34,-1
 164 436 l 1,35,36
 228 521 228 521 335 521 c 0,19,20
EndSplineSet
EndChar

StartChar: o
Encoding: 111 111 158
Width: 574
GlyphClass: 2
Flags: MW
HStem: -10 75<241.5 330.5 241.5 359.5> 446 75<243 332.5>
VStem: 52 94<237 246 246 265 188.5 274 188.5 351.5> 428 94<246 265 265 274 160.5 322.5>
LayerCount: 2
Fore
SplineSet
287 521 m 128,-1,1
 394 521 394 521 458 455 c 128,-1,2
 522 389 522 389 522 274 c 2,3,-1
 522 237 l 2,4,5
 522 122 522 122 459 56 c 128,-1,6
 396 -10 396 -10 287 -10 c 128,-1,7
 178 -10 178 -10 115 56 c 128,-1,8
 52 122 52 122 52 237 c 2,9,-1
 52 274 l 2,10,11
 52 389 52 389 116 455 c 128,-1,0
 180 521 180 521 287 521 c 128,-1,1
391.5 399 m 128,-1,13
 355 446 355 446 287.5 446 c 128,-1,14
 220 446 220 446 183 400 c 128,-1,15
 146 354 146 354 146 265 c 2,16,-1
 146 246 l 2,17,18
 146 159 146 159 182.5 112 c 128,-1,19
 219 65 219 65 286 65 c 128,-1,20
 353 65 353 65 390.5 111.5 c 128,-1,21
 428 158 428 158 428 246 c 2,22,-1
 428 265 l 2,23,12
 428 352 428 352 391.5 399 c 128,-1,13
EndSplineSet
Substitution2: "Single Substitution lookup 5 subtable" ordmasculine
Substitution2: "'aalt' Access All Alternates lookup 0 subtable" ordmasculine
EndChar

StartChar: oacute
Encoding: 243 243 159
Width: 574
GlyphClass: 2
Flags: MW
HStem: -10 75<241.5 330.5 241.5 359.5> 446 75<243 332.5> 575 145<255 439 255 439>
VStem: 52 94<237 246 246 265 188.5 274 188.5 351.5> 428 94<246 265 265 274 160.5 322.5>
LayerCount: 2
Fore
SplineSet
440 717 m 1,0,-1
 324 575 l 1,1,-1
 255 575 l 1,2,-1
 349 720 l 1,3,-1
 439 720 l 1,4,-1
 440 717 l 1,0,-1
287 521 m 128,-1,6
 394 521 394 521 458 455 c 128,-1,7
 522 389 522 389 522 274 c 2,8,-1
 522 237 l 2,9,10
 522 122 522 122 459 56 c 128,-1,11
 396 -10 396 -10 287 -10 c 128,-1,12
 178 -10 178 -10 115 56 c 128,-1,13
 52 122 52 122 52 237 c 2,14,-1
 52 274 l 2,15,16
 52 389 52 389 116 455 c 128,-1,5
 180 521 180 521 287 521 c 128,-1,6
391.5 399 m 128,-1,18
 355 446 355 446 287.5 446 c 128,-1,19
 220 446 220 446 183 400 c 128,-1,20
 146 354 146 354 146 265 c 2,21,-1
 146 246 l 2,22,23
 146 159 146 159 182.5 112 c 128,-1,24
 219 65 219 65 286 65 c 128,-1,25
 353 65 353 65 390.5 111.5 c 128,-1,26
 428 158 428 158 428 246 c 2,27,-1
 428 265 l 2,28,17
 428 352 428 352 391.5 399 c 128,-1,18
EndSplineSet
EndChar

StartChar: ocircumflex
Encoding: 244 244 160
Width: 574
GlyphClass: 2
Flags: MW
HStem: -10 75<241.5 330.5 241.5 359.5> 446 75<243 332.5> 575 145<111 325 111 325 247 460 247 380> 664 56<286 286>
VStem: 52 94<237 246 246 265 188.5 274 188.5 351.5> 428 94<246 265 265 274 160.5 322.5>
LayerCount: 2
Fore
SplineSet
460 575 m 1,0,-1
 380 575 l 1,1,-1
 286 664 l 1,2,-1
 191 575 l 1,3,-1
 111 575 l 1,4,-1
 247 720 l 1,5,-1
 325 720 l 1,6,-1
 460 575 l 1,0,-1
287 521 m 128,-1,8
 394 521 394 521 458 455 c 128,-1,9
 522 389 522 389 522 274 c 2,10,-1
 522 237 l 2,11,12
 522 122 522 122 459 56 c 128,-1,13
 396 -10 396 -10 287 -10 c 128,-1,14
 178 -10 178 -10 115 56 c 128,-1,15
 52 122 52 122 52 237 c 2,16,-1
 52 274 l 2,17,18
 52 389 52 389 116 455 c 128,-1,7
 180 521 180 521 287 521 c 128,-1,8
391.5 399 m 128,-1,20
 355 446 355 446 287.5 446 c 128,-1,21
 220 446 220 446 183 400 c 128,-1,22
 146 354 146 354 146 265 c 2,23,-1
 146 246 l 2,24,25
 146 159 146 159 182.5 112 c 128,-1,26
 219 65 219 65 286 65 c 128,-1,27
 353 65 353 65 390.5 111.5 c 128,-1,28
 428 158 428 158 428 246 c 2,29,-1
 428 265 l 2,30,19
 428 352 428 352 391.5 399 c 128,-1,20
EndSplineSet
EndChar

StartChar: odieresis
Encoding: 246 246 161
Width: 574
GlyphClass: 2
Flags: MW
HStem: -10 75<241.5 330.5 241.5 359.5> 446 75<243 332.5> 622 98<147 237 147 237 335 426>
VStem: 52 94<237 246 246 265 188.5 274 188.5 351.5> 147 90<622 720> 335 91<622 720> 428 94<246 265 265 274 160.5 322.5>
LayerCount: 2
Fore
SplineSet
237 622 m 1,0,-1
 147 622 l 1,1,-1
 147 720 l 1,2,-1
 237 720 l 1,3,-1
 237 622 l 1,0,-1
426 622 m 1,4,-1
 335 622 l 1,5,-1
 335 720 l 1,6,-1
 426 720 l 1,7,-1
 426 622 l 1,4,-1
287 521 m 128,-1,9
 394 521 394 521 458 455 c 128,-1,10
 522 389 522 389 522 274 c 2,11,-1
 522 237 l 2,12,13
 522 122 522 122 459 56 c 128,-1,14
 396 -10 396 -10 287 -10 c 128,-1,15
 178 -10 178 -10 115 56 c 128,-1,16
 52 122 52 122 52 237 c 2,17,-1
 52 274 l 2,18,19
 52 389 52 389 116 455 c 128,-1,8
 180 521 180 521 287 521 c 128,-1,9
391.5 399 m 128,-1,21
 355 446 355 446 287.5 446 c 128,-1,22
 220 446 220 446 183 400 c 128,-1,23
 146 354 146 354 146 265 c 2,24,-1
 146 246 l 2,25,26
 146 159 146 159 182.5 112 c 128,-1,27
 219 65 219 65 286 65 c 128,-1,28
 353 65 353 65 390.5 111.5 c 128,-1,29
 428 158 428 158 428 246 c 2,30,-1
 428 265 l 2,31,20
 428 352 428 352 391.5 399 c 128,-1,21
EndSplineSet
EndChar

StartChar: ograve
Encoding: 242 242 162
Width: 574
GlyphClass: 2
Flags: MW
HStem: -10 75<241.5 330.5 241.5 359.5> 446 75<243 332.5> 575 145<139 323 139 253>
VStem: 52 94<237 246 246 265 188.5 274 188.5 351.5> 428 94<246 265 265 274 160.5 322.5>
LayerCount: 2
Fore
SplineSet
323 575 m 1,0,-1
 253 575 l 1,1,-1
 138 717 l 1,2,-1
 139 720 l 1,3,-1
 228 720 l 1,4,-1
 323 575 l 1,0,-1
287 521 m 128,-1,6
 394 521 394 521 458 455 c 128,-1,7
 522 389 522 389 522 274 c 2,8,-1
 522 237 l 2,9,10
 522 122 522 122 459 56 c 128,-1,11
 396 -10 396 -10 287 -10 c 128,-1,12
 178 -10 178 -10 115 56 c 128,-1,13
 52 122 52 122 52 237 c 2,14,-1
 52 274 l 2,15,16
 52 389 52 389 116 455 c 128,-1,5
 180 521 180 521 287 521 c 128,-1,6
391.5 399 m 128,-1,18
 355 446 355 446 287.5 446 c 128,-1,19
 220 446 220 446 183 400 c 128,-1,20
 146 354 146 354 146 265 c 2,21,-1
 146 246 l 2,22,23
 146 159 146 159 182.5 112 c 128,-1,24
 219 65 219 65 286 65 c 128,-1,25
 353 65 353 65 390.5 111.5 c 128,-1,26
 428 158 428 158 428 246 c 2,27,-1
 428 265 l 2,28,17
 428 352 428 352 391.5 399 c 128,-1,18
EndSplineSet
EndChar

StartChar: ohungarumlaut
Encoding: 337 337 163
Width: 574
GlyphClass: 2
Flags: MW
HStem: -10 75<241.5 330.5 241.5 359.5> 446 75<243 332.5> 575 145<157 341 157 341 312 312 312 341 252 382>
VStem: 52 94<237 246 246 265 188.5 274 188.5 351.5> 428 94<246 265 265 274 160.5 322.5>
LayerCount: 2
Fore
SplineSet
342 717 m 1,0,-1
 227 575 l 1,1,-1
 157 575 l 1,2,-1
 252 720 l 1,3,-1
 341 720 l 1,4,-1
 342 717 l 1,0,-1
497 717 m 1,5,-1
 382 575 l 1,6,-1
 312 575 l 1,7,-1
 406 720 l 1,8,-1
 496 720 l 1,9,-1
 497 717 l 1,5,-1
287 521 m 128,-1,11
 394 521 394 521 458 455 c 128,-1,12
 522 389 522 389 522 274 c 2,13,-1
 522 237 l 2,14,15
 522 122 522 122 459 56 c 128,-1,16
 396 -10 396 -10 287 -10 c 128,-1,17
 178 -10 178 -10 115 56 c 128,-1,18
 52 122 52 122 52 237 c 2,19,-1
 52 274 l 2,20,21
 52 389 52 389 116 455 c 128,-1,10
 180 521 180 521 287 521 c 128,-1,11
391.5 399 m 128,-1,23
 355 446 355 446 287.5 446 c 128,-1,24
 220 446 220 446 183 400 c 128,-1,25
 146 354 146 354 146 265 c 2,26,-1
 146 246 l 2,27,28
 146 159 146 159 182.5 112 c 128,-1,29
 219 65 219 65 286 65 c 128,-1,30
 353 65 353 65 390.5 111.5 c 128,-1,31
 428 158 428 158 428 246 c 2,32,-1
 428 265 l 2,33,22
 428 352 428 352 391.5 399 c 128,-1,23
EndSplineSet
EndChar

StartChar: omacron
Encoding: 333 333 164
Width: 574
GlyphClass: 2
Flags: MW
HStem: -10 75<241.5 330.5 241.5 359.5> 446 75<243 332.5> 662 74<128 446 128 446>
VStem: 52 94<237 246 246 265 188.5 274 188.5 351.5> 428 94<246 265 265 274 160.5 322.5>
LayerCount: 2
Fore
SplineSet
446 662 m 1,0,-1
 128 662 l 1,1,-1
 128 736 l 1,2,-1
 446 736 l 1,3,-1
 446 662 l 1,0,-1
287 521 m 128,-1,5
 394 521 394 521 458 455 c 128,-1,6
 522 389 522 389 522 274 c 2,7,-1
 522 237 l 2,8,9
 522 122 522 122 459 56 c 128,-1,10
 396 -10 396 -10 287 -10 c 128,-1,11
 178 -10 178 -10 115 56 c 128,-1,12
 52 122 52 122 52 237 c 2,13,-1
 52 274 l 2,14,15
 52 389 52 389 116 455 c 128,-1,4
 180 521 180 521 287 521 c 128,-1,5
391.5 399 m 128,-1,17
 355 446 355 446 287.5 446 c 128,-1,18
 220 446 220 446 183 400 c 128,-1,19
 146 354 146 354 146 265 c 2,20,-1
 146 246 l 2,21,22
 146 159 146 159 182.5 112 c 128,-1,23
 219 65 219 65 286 65 c 128,-1,24
 353 65 353 65 390.5 111.5 c 128,-1,25
 428 158 428 158 428 246 c 2,26,-1
 428 265 l 2,27,16
 428 352 428 352 391.5 399 c 128,-1,17
EndSplineSet
EndChar

StartChar: oslash
Encoding: 248 248 165
Width: 574
GlyphClass: 2
Flags: MW
HStem: -10 75<266.5 329.5 266.5 359.5> 446 75<244.5 306>
VStem: 52 94<237 246 246 265 220.5 274 220.5 351.5> 428 94<246 265 265 274 160.5 290.5>
LayerCount: 2
Fore
SplineSet
511 568 m 1,0,-1
 447 466 l 1,1,2
 522 400 522 400 522 274 c 2,3,-1
 522 237 l 2,4,5
 522 122 522 122 459 56 c 128,-1,6
 396 -10 396 -10 287 -10 c 0,7,8
 219.5 -10 219.5 -10 167 17 c 1,9,-1
 122 -55 l 1,10,-1
 63 -55 l 1,11,-1
 126 45 l 1,12,13
 52 111 52 111 52 237 c 2,14,-1
 52 274 l 2,15,16
 52 389 52 389 116 455 c 128,-1,17
 180 521 180 521 287 521 c 0,18,19
 354 521 354 521 406 494 c 1,20,-1
 452 568 l 1,21,-1
 511 568 l 1,0,-1
294 446 m 0,22,23
 221 446 221 446 183.5 399.5 c 128,-1,24
 146 353 146 353 146 265 c 2,25,-1
 146 246 l 2,26,27
 146 171 146 171 175 124 c 1,28,-1
 363 425 l 1,29,30
 330 446 330 446 294 446 c 0,22,23
398 388 m 1,31,-1
 210 86 l 1,32,33
 241.5 65 241.5 65 279 65 c 0,34,35
 428 65 428 65 428 246 c 2,36,-1
 428 265 l 2,37,38
 428 341.5 428 341.5 398 388 c 1,31,-1
EndSplineSet
EndChar

StartChar: otilde
Encoding: 245 245 166
Width: 574
GlyphClass: 2
Flags: MW
HStem: -10 75<241.5 330.5 241.5 359.5> 446 75<243 332.5> 616 69<366.5 389.5 366.5 401> 650 70<184 213.5>
VStem: 52 94<237 246 246 265 188.5 274 188.5 351.5> 428 94<246 265 265 274 160.5 322.5>
LayerCount: 2
Fore
SplineSet
430 720 m 1,0,-1
 480 720 l 1,1,2
 480 674 480 674 449 645 c 128,-1,3
 418 616 418 616 376 616 c 128,-1,4
 334 616 334 616 310 623 c 128,-1,5
 286 630 286 630 270 635 c 0,6,7
 242.266666667 643.666666667 242.266666667 643.666666667 230.233333333 646.833333333 c 128,-1,8
 218.2 650 218.2 650 199 650 c 0,9,10
 154 650 154 650 144 616 c 1,11,-1
 94 616 l 1,12,13
 94 659 94 659 124 689.5 c 128,-1,14
 154 720 154 720 205 720 c 0,15,16
 231 720 231 720 294 702 c 0,17,18
 345 685 345 685 375 685 c 0,19,20
 419 685 419 685 430 720 c 1,0,-1
287 521 m 128,-1,22
 394 521 394 521 458 455 c 128,-1,23
 522 389 522 389 522 274 c 2,24,-1
 522 237 l 2,25,26
 522 122 522 122 459 56 c 128,-1,27
 396 -10 396 -10 287 -10 c 128,-1,28
 178 -10 178 -10 115 56 c 128,-1,29
 52 122 52 122 52 237 c 2,30,-1
 52 274 l 2,31,32
 52 389 52 389 116 455 c 128,-1,21
 180 521 180 521 287 521 c 128,-1,22
391.5 399 m 128,-1,34
 355 446 355 446 287.5 446 c 128,-1,35
 220 446 220 446 183 400 c 128,-1,36
 146 354 146 354 146 265 c 2,37,-1
 146 246 l 2,38,39
 146 159 146 159 182.5 112 c 128,-1,40
 219 65 219 65 286 65 c 128,-1,41
 353 65 353 65 390.5 111.5 c 128,-1,42
 428 158 428 158 428 246 c 2,43,-1
 428 265 l 2,44,33
 428 352 428 352 391.5 399 c 128,-1,34
EndSplineSet
EndChar

StartChar: oe
Encoding: 339 339 167
Width: 933
GlyphClass: 2
Flags: MW
HStem: -10 75<241.5 329.5 621 661 661 665> 234 73<524 786 524 879 522 786> 446 75<243 329.5 216 332.5 658 665 665 698>
VStem: 52 94<237 246 246 265 188.5 274 188.5 351.5> 428 94<234 265 234 322.5> 786 93
LayerCount: 2
Fore
SplineSet
658 521 m 2,0,-1
 665 521 l 2,1,2
 760 521 760 521 819.5 462.5 c 128,-1,3
 879 404 879 404 879 305 c 2,4,-1
 879 234 l 1,5,-1
 522 234 l 1,6,7
 527 65 527 65 667 65 c 0,8,9
 730 65 730 65 760 102 c 128,-1,10
 790 139 790 139 790 190 c 1,11,-1
 879 190 l 1,12,13
 879 101 879 101 819.5 45.5 c 128,-1,14
 760 -10 760 -10 665 -10 c 2,15,-1
 661 -10 l 2,16,17
 540 -10 540 -10 476 77 c 1,18,19
 414.5 -10 414.5 -10 287 -10 c 0,20,21
 178 -10 178 -10 115 56 c 128,-1,22
 52 122 52 122 52 237 c 2,23,-1
 52 274 l 2,24,25
 52 389 52 389 116 455 c 128,-1,26
 180 521 180 521 287 521 c 0,27,28
 414.5 521 414.5 521 476 434 c 1,29,30
 540 521 540 521 658 521 c 2,0,-1
391.5 399 m 128,-1,32
 355 446 355 446 287.5 446 c 128,-1,33
 220 446 220 446 183 400 c 128,-1,34
 146 354 146 354 146 265 c 2,35,-1
 146 246 l 2,36,37
 146 159 146 159 182.5 112 c 128,-1,38
 219 65 219 65 286 65 c 128,-1,39
 353 65 353 65 390.5 111.5 c 128,-1,40
 428 158 428 158 428 246 c 2,41,-1
 428 265 l 2,42,31
 428 352 428 352 391.5 399 c 128,-1,32
660 446 m 128,-1,44
 603 446 603 446 567.5 411 c 128,-1,45
 532 376 532 376 524 307 c 1,46,-1
 786 307 l 1,47,-1
 786 319 l 2,48,49
 786 376 786 376 751.5 411 c 128,-1,43
 717 446 717 446 660 446 c 128,-1,44
EndSplineSet
EndChar

StartChar: p
Encoding: 112 112 168
Width: 583
GlyphClass: 2
Flags: MW
HStem: -10 75<292.5 351> 446 75<290.5 349.5> 491 20G<83 153 153 153>
VStem: 83 94<-181 65 -181 511> 437 94<191 244 244 255 166.5 322>
LayerCount: 2
Fore
SplineSet
166 441 m 1,0,1
 223 521 223 521 322 521 c 128,-1,2
 421 521 421 521 476 450 c 128,-1,3
 531 379 531 379 531 255 c 2,4,-1
 531 244 l 2,5,6
 531 126 531 126 476.5 58 c 128,-1,7
 422 -10 422 -10 325.75 -10 c 128,-1,8
 229.5 -10 229.5 -10 177 65 c 1,9,-1
 177 -181 l 1,10,-1
 83 -181 l 1,11,-1
 83 511 l 1,12,-1
 153 511 l 1,13,14
 160 479 160 479 166 441 c 1,0,1
307 446 m 0,15,16
 239 446 239 446 207.5 399 c 128,-1,17
 176 352 176 352 176 255 c 0,18,19
 176 65 176 65 306.5 65 c 128,-1,20
 437 65 437 65 437 255.5 c 128,-1,21
 437 446 437 446 307 446 c 0,15,16
EndSplineSet
EndChar

StartChar: thorn
Encoding: 254 254 169
Width: 583
GlyphClass: 2
Flags: MW
HStem: -10 75<292.5 351> 446 75<293 349.5> 700 20G<83 177 177 177>
VStem: 83 94<-181 65 455 720> 437 94<191 244 244 255 166.5 322>
LayerCount: 2
Fore
SplineSet
177 720 m 1,0,-1
 177 455 l 1,1,2
 231 521 231 521 326 521 c 128,-1,3
 421 521 421 521 476 450 c 128,-1,4
 531 379 531 379 531 255 c 2,5,-1
 531 244 l 2,6,7
 531 126 531 126 476.5 58 c 128,-1,8
 422 -10 422 -10 325.75 -10 c 128,-1,9
 229.5 -10 229.5 -10 177 65 c 1,10,-1
 177 -181 l 1,11,-1
 83 -181 l 1,12,-1
 83 720 l 1,13,-1
 177 720 l 1,0,-1
307 446 m 0,14,15
 239 446 239 446 207.5 399 c 128,-1,16
 176 352 176 352 176 255 c 0,17,18
 176 65 176 65 306.5 65 c 128,-1,19
 437 65 437 65 437 255.5 c 128,-1,20
 437 446 437 446 307 446 c 0,14,15
EndSplineSet
EndChar

StartChar: q
Encoding: 113 113 170
Width: 583
GlyphClass: 2
Flags: MW
HStem: -10 75<233 290> 446 75<231.5 297 194 319.5> 491 20G<464 500 500 500>
VStem: 52 94<244 255 255 319.5 190 338> 406 94<-180 65 65 65>
LayerCount: 2
Fore
SplineSet
259 521 m 0,0,1
 373 521 373 521 431 430 c 1,2,-1
 464 511 l 1,3,-1
 500 511 l 1,4,-1
 500 -180 l 1,5,-1
 406 -180 l 1,6,-1
 406 65 l 1,7,8
 383 32 383 32 343.5 11 c 128,-1,9
 304 -10 304 -10 258 -10 c 0,10,11
 160 -10 160 -10 106 58.5 c 128,-1,12
 52 127 52 127 52 244 c 2,13,-1
 52 255 l 2,14,15
 52 380 52 380 107 450.5 c 128,-1,16
 162 521 162 521 259 521 c 0,0,1
277 446 m 0,17,18
 209 446 209 446 177.5 399 c 128,-1,19
 146 352 146 352 146 255 c 0,20,21
 146 65 146 65 276.5 65 c 128,-1,22
 407 65 407 65 407 255.5 c 128,-1,23
 407 446 407 446 277 446 c 0,17,18
EndSplineSet
EndChar

StartChar: r
Encoding: 114 114 171
Width: 490
GlyphClass: 2
Flags: MW
HStem: 446 75<273 301> 491 20G<83 150 150 150>
VStem: 83 94<0 305 0 511> 378 86<323 405 361 377>
AnchorPoint: "Bottom" 130 0 basechar 0
LayerCount: 2
Fore
SplineSet
215.5 494 m 128,-1,1
 257 521 257 521 320.5 521 c 128,-1,2
 384 521 384 521 424 475.5 c 128,-1,3
 464 430 464 430 464 361 c 1,4,-1
 461 323 l 1,5,-1
 378 323 l 1,6,-1
 378 345 l 2,7,8
 378 390 378 390 346.5 418 c 128,-1,9
 315 446 315 446 273 446 c 128,-1,10
 231 446 231 446 204 408 c 128,-1,11
 177 370 177 370 177 305 c 2,12,-1
 177 0 l 1,13,-1
 83 0 l 1,14,-1
 83 511 l 1,15,-1
 150 511 l 1,16,-1
 164 435 l 1,17,0
 174 467 174 467 215.5 494 c 128,-1,1
EndSplineSet
EndChar

StartChar: racute
Encoding: 341 341 172
Width: 490
GlyphClass: 2
Flags: MW
HStem: 446 75<273 301> 491 20G<83 150 150 150> 575 145<77 261 77 261>
VStem: 83 94<0 305 0 511> 378 86<323 405 361 377>
AnchorPoint: "Bottom" 130 0 basechar 0
LayerCount: 2
Fore
SplineSet
262 717 m 1,0,-1
 146 575 l 1,1,-1
 77 575 l 1,2,-1
 171 720 l 1,3,-1
 261 720 l 1,4,-1
 262 717 l 1,0,-1
215.5 494 m 128,-1,6
 257 521 257 521 320.5 521 c 128,-1,7
 384 521 384 521 424 475.5 c 128,-1,8
 464 430 464 430 464 361 c 1,9,-1
 461 323 l 1,10,-1
 378 323 l 1,11,-1
 378 345 l 2,12,13
 378 390 378 390 346.5 418 c 128,-1,14
 315 446 315 446 273 446 c 128,-1,15
 231 446 231 446 204 408 c 128,-1,16
 177 370 177 370 177 305 c 2,17,-1
 177 0 l 1,18,-1
 83 0 l 1,19,-1
 83 511 l 1,20,-1
 150 511 l 1,21,-1
 164 435 l 1,22,5
 174 467 174 467 215.5 494 c 128,-1,6
EndSplineSet
EndChar

StartChar: rcaron
Encoding: 345 345 173
Width: 490
GlyphClass: 2
Flags: MW
HStem: 446 75<273 301> 491 20G<83 150 150 150> 575 145<-45 169 -45 91>
VStem: 83 94<0 305 0 511> 378 86<323 405 361 377>
AnchorPoint: "Bottom" 130 0 basechar 0
LayerCount: 2
Fore
SplineSet
169 575 m 1,0,-1
 91 575 l 1,1,-1
 -45 720 l 1,2,-1
 35 720 l 1,3,-1
 130 631 l 1,4,-1
 224 720 l 1,5,-1
 304 720 l 1,6,-1
 169 575 l 1,0,-1
215.5 494 m 128,-1,8
 257 521 257 521 320.5 521 c 128,-1,9
 384 521 384 521 424 475.5 c 128,-1,10
 464 430 464 430 464 361 c 1,11,-1
 461 323 l 1,12,-1
 378 323 l 1,13,-1
 378 345 l 2,14,15
 378 390 378 390 346.5 418 c 128,-1,16
 315 446 315 446 273 446 c 128,-1,17
 231 446 231 446 204 408 c 128,-1,18
 177 370 177 370 177 305 c 2,19,-1
 177 0 l 1,20,-1
 83 0 l 1,21,-1
 83 511 l 1,22,-1
 150 511 l 1,23,-1
 164 435 l 1,24,7
 174 467 174 467 215.5 494 c 128,-1,8
EndSplineSet
EndChar

StartChar: rcommaaccent
Encoding: 343 343 174
Width: 490
GlyphClass: 2
Flags: MW
HStem: -151 111<79 120 79 180> 446 75<273 301> 491 20G<83 150 150 150>
VStem: 83 94<0 305 0 511> 378 86<323 405 361 377>
AnchorPoint: "Bottom" 130 0 basechar 0
LayerCount: 2
Fore
SplineSet
215.5 494 m 128,-1,1
 257 521 257 521 320.5 521 c 128,-1,2
 384 521 384 521 424 475.5 c 128,-1,3
 464 430 464 430 464 361 c 1,4,-1
 461 323 l 1,5,-1
 378 323 l 1,6,-1
 378 345 l 2,7,8
 378 390 378 390 346.5 418 c 128,-1,9
 315 446 315 446 273 446 c 128,-1,10
 231 446 231 446 204 408 c 128,-1,11
 177 370 177 370 177 305 c 2,12,-1
 177 0 l 1,13,-1
 83 0 l 1,14,-1
 83 511 l 1,15,-1
 150 511 l 1,16,-1
 164 435 l 1,17,0
 174 467 174 467 215.5 494 c 128,-1,1
180 -125 m 1,18,-1
 151 -250 l 1,19,-1
 98 -250 l 1,20,-1
 120 -151 l 1,21,-1
 79 -151 l 1,22,-1
 79 -40 l 1,23,-1
 180 -40 l 1,24,-1
 180 -125 l 1,18,-1
EndSplineSet
EndChar

StartChar: s
Encoding: 115 115 175
Width: 534
GlyphClass: 2
Flags: MW
HStem: -10 75<234 253 253 268> 219.82 84.5 446 75<269 278 278 303.5>
VStem: 46 93<138 150 150 160 121.5 160> 60 94<325 401 325 416.5> 379 94<364 421.5 382 397.5> 391 94<112.5 202>
AnchorPoint: "Bottom" 267 0 basechar 0
LayerCount: 2
Fore
SplineSet
269 521 m 2,0,-1
 278 521 l 2,1,2
 364 521 364 521 418.5 481.5 c 128,-1,3
 473 442 473 442 473 382 c 1,4,-1
 472 364 l 1,5,-1
 379 364 l 1,6,-1
 379 373 l 2,7,8
 379 446 379 446 266.5 446 c 0,9,10
 154 446 154 446 154 379 c 0,11,12
 154 350 154 350 188 333.5 c 128,-1,13
 222 317 222 317 270.5 308 c 128,-1,14
 319 299 319 299 368 286 c 128,-1,15
 417 273 417 273 451 240 c 128,-1,16
 485 207 485 207 485 154 c 0,17,18
 485 -10 485 -10 268 -10 c 2,19,-1
 253 -10 l 2,20,21
 158 -10 158 -10 101.5 32 c 128,-1,22
 45 74 45 74 46 138 c 1,23,-1
 46 160 l 1,24,-1
 139 160 l 1,25,-1
 139 150 l 2,26,27
 139 65 139 65 282 65 c 0,28,29
 324 65 324 65 357.5 84 c 128,-1,30
 391 103 391 103 391 137.5 c 0,31,32
 391 172 391 172 357 190.5 c 128,-1,33
 323 209 323 209 274.5 217 c 128,-1,34
 226 225 226 225 177 236 c 128,-1,35
 128 247 128 247 94 280 c 128,-1,36
 60 313 60 313 60 369 c 0,37,38
 60 440 60 440 116 480.5 c 128,-1,39
 172 521 172 521 269 521 c 2,0,-1
EndSplineSet
EndChar

StartChar: sacute
Encoding: 347 347 176
Width: 534
GlyphClass: 2
Flags: MW
HStem: -10 75<234 253 253 268> 219.82 84.5 446 75<269 278 278 303.5> 575 145<214 398 214 398>
VStem: 46 93<138 150 150 160 121.5 160> 60 94<325 401 325 416.5> 379 94<364 421.5 382 397.5> 391 94<112.5 202>
AnchorPoint: "Bottom" 267 0 basechar 0
LayerCount: 2
Fore
SplineSet
399 717 m 1,0,-1
 283 575 l 1,1,-1
 214 575 l 1,2,-1
 308 720 l 1,3,-1
 398 720 l 1,4,-1
 399 717 l 1,0,-1
269 521 m 2,5,-1
 278 521 l 2,6,7
 364 521 364 521 418.5 481.5 c 128,-1,8
 473 442 473 442 473 382 c 1,9,-1
 472 364 l 1,10,-1
 379 364 l 1,11,-1
 379 373 l 2,12,13
 379 446 379 446 266.5 446 c 0,14,15
 154 446 154 446 154 379 c 0,16,17
 154 350 154 350 188 333.5 c 128,-1,18
 222 317 222 317 270.5 308 c 128,-1,19
 319 299 319 299 368 286 c 128,-1,20
 417 273 417 273 451 240 c 128,-1,21
 485 207 485 207 485 154 c 0,22,23
 485 -10 485 -10 268 -10 c 2,24,-1
 253 -10 l 2,25,26
 158 -10 158 -10 101.5 32 c 128,-1,27
 45 74 45 74 46 138 c 1,28,-1
 46 160 l 1,29,-1
 139 160 l 1,30,-1
 139 150 l 2,31,32
 139 65 139 65 282 65 c 0,33,34
 324 65 324 65 357.5 84 c 128,-1,35
 391 103 391 103 391 137.5 c 0,36,37
 391 172 391 172 357 190.5 c 128,-1,38
 323 209 323 209 274.5 217 c 128,-1,39
 226 225 226 225 177 236 c 128,-1,40
 128 247 128 247 94 280 c 128,-1,41
 60 313 60 313 60 369 c 0,42,43
 60 440 60 440 116 480.5 c 128,-1,44
 172 521 172 521 269 521 c 2,5,-1
EndSplineSet
EndChar

StartChar: scaron
Encoding: 353 353 177
Width: 534
GlyphClass: 2
Flags: MW
HStem: -10 75<234 253 253 268> 219.82 84.5 446 75<269 278 278 303.5> 575 145<91 305 91 227>
VStem: 45 94<121.5 138> 60 94<325 401 325 416.5> 379 94<364 421.5 382 397.5> 391 94<112.5 202>
LayerCount: 2
Fore
SplineSet
305 575 m 1,0,-1
 227 575 l 1,1,-1
 91 720 l 1,2,-1
 171 720 l 1,3,-1
 266 631 l 1,4,-1
 360 720 l 1,5,-1
 440 720 l 1,6,-1
 305 575 l 1,0,-1
269 521 m 2,7,-1
 278 521 l 2,8,9
 364 521 364 521 418.5 481.5 c 128,-1,10
 473 442 473 442 473 382 c 1,11,-1
 472 364 l 1,12,-1
 379 364 l 1,13,-1
 379 373 l 2,14,15
 379 446 379 446 266.5 446 c 0,16,17
 154 446 154 446 154 379 c 0,18,19
 154 350 154 350 188 333.5 c 128,-1,20
 222 317 222 317 270.5 308 c 128,-1,21
 319 299 319 299 368 286 c 128,-1,22
 417 273 417 273 451 240 c 128,-1,23
 485 207 485 207 485 154 c 0,24,25
 485 -10 485 -10 268 -10 c 2,26,-1
 253 -10 l 2,27,28
 158 -10 158 -10 101.5 32 c 128,-1,29
 45 74 45 74 45 138 c 1,30,-1
 46 160 l 1,31,-1
 139 160 l 1,32,-1
 139 150 l 2,33,34
 139 65 139 65 282 65 c 0,35,36
 324 65 324 65 357.5 84 c 128,-1,37
 391 103 391 103 391 137.5 c 0,38,39
 391 172 391 172 357 190.5 c 128,-1,40
 323 209 323 209 274.5 217 c 128,-1,41
 226 225 226 225 177 236 c 128,-1,42
 128 247 128 247 94 280 c 128,-1,43
 60 313 60 313 60 369 c 0,44,45
 60 440 60 440 116 480.5 c 128,-1,46
 172 521 172 521 269 521 c 2,7,-1
EndSplineSet
EndChar

StartChar: scedilla
Encoding: 351 351 178
Width: 534
GlyphClass: 2
Flags: MW
HStem: -197 51<245.5 266 233 293> -60 43<237 258 237 261> -10 75<234 253 253 268> 219.82 84.5 446 75<269 278 278 303.5>
VStem: 46 93<138 150 150 160 121.5 160> 60 94<325 401 325 416.5> 310 62<-116 -87.5> 379 94<364 421.5 382 397.5> 391 94<112.5 202>
AnchorPoint: "Bottom" 267 0 basechar 0
LayerCount: 2
Fore
SplineSet
269 521 m 2,0,-1
 278 521 l 2,1,2
 364 521 364 521 418.5 481.5 c 128,-1,3
 473 442 473 442 473 382 c 1,4,-1
 472 364 l 1,5,-1
 379 364 l 1,6,-1
 379 373 l 2,7,8
 379 446 379 446 266.5 446 c 0,9,10
 154 446 154 446 154 379 c 0,11,12
 154 350 154 350 188 333.5 c 128,-1,13
 222 317 222 317 270.5 308 c 128,-1,14
 319 299 319 299 368 286 c 128,-1,15
 417 273 417 273 451 240 c 128,-1,16
 485 207 485 207 485 154 c 0,17,18
 485 -10 485 -10 268 -10 c 2,19,-1
 253 -10 l 2,20,21
 158 -10 158 -10 101.5 32 c 128,-1,22
 45 74 45 74 46 138 c 1,23,-1
 46 160 l 1,24,-1
 139 160 l 1,25,-1
 139 150 l 2,26,27
 139 65 139 65 282 65 c 0,28,29
 324 65 324 65 357.5 84 c 128,-1,30
 391 103 391 103 391 137.5 c 0,31,32
 391 172 391 172 357 190.5 c 128,-1,33
 323 209 323 209 274.5 217 c 128,-1,34
 226 225 226 225 177 236 c 128,-1,35
 128 247 128 247 94 280 c 128,-1,36
 60 313 60 313 60 369 c 0,37,38
 60 440 60 440 116 480.5 c 128,-1,39
 172 521 172 521 269 521 c 2,0,-1
237 -17 m 1,40,-1
 261 -17 l 2,41,42
 372 -17 372 -17 372 -106 c 0,43,44
 372 -147 372 -147 340.5 -172 c 128,-1,45
 309 -197 309 -197 267 -197 c 0,46,47
 202 -197 202 -197 162 -175 c 1,48,-1
 171 -126 l 1,49,50
 213 -146 213 -146 244 -146 c 0,51,52
 310 -146 310 -146 310 -101 c 0,53,54
 310 -82 310 -82 295 -71 c 128,-1,55
 280 -60 280 -60 258 -60 c 2,56,-1
 237 -60 l 1,57,-1
 237 -17 l 1,40,-1
EndSplineSet
EndChar

StartChar: scommaaccent
Encoding: 537 537 179
Width: 534
GlyphClass: 2
Flags: MW
HStem: -151 111<216 257 216 317> -10 75<234 253 253 268> 219.82 84.5 446 75<269 278 278 303.5>
VStem: 46 93<138 150 150 160 121.5 160> 60 94<325 401 325 416.5> 216 101<-125 -125 -125 -40 -125 -40> 379 94<364 421.5 382 397.5> 391 94<112.5 202>
AnchorPoint: "Bottom" 267 0 basechar 0
LayerCount: 2
Fore
SplineSet
269 521 m 2,0,-1
 278 521 l 2,1,2
 364 521 364 521 418.5 481.5 c 128,-1,3
 473 442 473 442 473 382 c 1,4,-1
 472 364 l 1,5,-1
 379 364 l 1,6,-1
 379 373 l 2,7,8
 379 446 379 446 266.5 446 c 0,9,10
 154 446 154 446 154 379 c 0,11,12
 154 350 154 350 188 333.5 c 128,-1,13
 222 317 222 317 270.5 308 c 128,-1,14
 319 299 319 299 368 286 c 128,-1,15
 417 273 417 273 451 240 c 128,-1,16
 485 207 485 207 485 154 c 0,17,18
 485 -10 485 -10 268 -10 c 2,19,-1
 253 -10 l 2,20,21
 158 -10 158 -10 101.5 32 c 128,-1,22
 45 74 45 74 46 138 c 1,23,-1
 46 160 l 1,24,-1
 139 160 l 1,25,-1
 139 150 l 2,26,27
 139 65 139 65 282 65 c 0,28,29
 324 65 324 65 357.5 84 c 128,-1,30
 391 103 391 103 391 137.5 c 0,31,32
 391 172 391 172 357 190.5 c 128,-1,33
 323 209 323 209 274.5 217 c 128,-1,34
 226 225 226 225 177 236 c 128,-1,35
 128 247 128 247 94 280 c 128,-1,36
 60 313 60 313 60 369 c 0,37,38
 60 440 60 440 116 480.5 c 128,-1,39
 172 521 172 521 269 521 c 2,0,-1
317 -125 m 1,40,-1
 288 -250 l 1,41,-1
 235 -250 l 1,42,-1
 257 -151 l 1,43,-1
 216 -151 l 1,44,-1
 216 -40 l 1,45,-1
 317 -40 l 1,46,-1
 317 -125 l 1,40,-1
EndSplineSet
EndChar

StartChar: germandbls
Encoding: 223 223 180
Width: 614
GlyphClass: 2
Flags: MW
HStem: 0 75<259 332 332 342 259 332> 346 74<259 324 324 332 259 324> 436 75<46 104 46 104> 653 75<289 365>
VStem: 104 94<-66 436 436 436 511 511> 448 94<509.5 573.5> 471 94<178 245.5 144.5 249.5>
LayerCount: 2
Fore
SplineSet
169.5 668.5 m 128,-1,1
 234 728 234 728 329 728 c 128,-1,2
 424 728 424 728 483 676 c 128,-1,3
 542 624 542 624 542 543 c 0,4,5
 542 493 542 493 514 450.5 c 128,-1,6
 486 408 486 408 442 391 c 1,7,-1
 444 387 l 1,8,9
 499 366 499 366 532 316.5 c 128,-1,10
 565 267 565 267 565 200 c 0,11,12
 565 117 565 117 499.5 58.5 c 128,-1,13
 434 0 434 0 342 0 c 2,14,-1
 259 0 l 1,15,-1
 259 75 l 1,16,-1
 332 75 l 2,17,18
 392 75 392 75 431.5 116.5 c 128,-1,19
 471 158 471 158 471 212.5 c 128,-1,20
 471 267 471 267 430 306.5 c 128,-1,21
 389 346 389 346 332 346 c 2,22,-1
 259 346 l 1,23,-1
 259 420 l 1,24,-1
 324 420 l 2,25,26
 376 420 376 420 412 454.5 c 128,-1,27
 448 489 448 489 448 540 c 128,-1,28
 448 591 448 591 415.5 622 c 128,-1,29
 383 653 383 653 326.5 653 c 128,-1,30
 270 653 270 653 234 614.5 c 128,-1,31
 198 576 198 576 198 513 c 2,32,-1
 198 -66 l 1,33,-1
 104 -66 l 1,34,-1
 104 436 l 1,35,-1
 46 436 l 1,36,-1
 46 511 l 1,37,-1
 104 511 l 1,38,0
 105 609 105 609 169.5 668.5 c 128,-1,1
EndSplineSet
EndChar

StartChar: t
Encoding: 116 116 181
Width: 346
GlyphClass: 2
Flags: MW
HStem: -10 73<231 238> 436 75<43 99 43 102 193 312>
VStem: 99 94<136 436>
AnchorPoint: "Bottom" 173 0 basechar 0
LayerCount: 2
Fore
SplineSet
193 511 m 1,0,-1
 312 511 l 1,1,-1
 312 436 l 1,2,-1
 193 436 l 1,3,-1
 193 131 l 2,4,5
 193 63 193 63 250 63 c 0,6,7
 276 63 276 63 312 78 c 1,8,-1
 312 8 l 1,9,10
 276 -10 276 -10 219 -10 c 0,11,12
 99 -10 99 -10 99 136 c 2,13,-1
 99 436 l 1,14,-1
 43 436 l 1,15,-1
 43 511 l 1,16,-1
 102 511 l 1,17,-1
 134 674 l 1,18,-1
 193 674 l 1,19,-1
 193 511 l 1,0,-1
EndSplineSet
EndChar

StartChar: tcaron
Encoding: 357 357 182
Width: 346
GlyphClass: 2
Flags: MW
HStem: -10 73<231 238> 436 75<43 99 43 102 193 312> 451 60 575 111<325 366 325 426>
VStem: 99 94<136 436> 325 101<601 601 601 686 601 686>
AnchorPoint: "Bottom" 173 0 basechar 0
LayerCount: 2
Fore
SplineSet
426 601 m 1,0,-1
 391 451 l 1,1,-1
 339 451 l 1,2,-1
 366 575 l 1,3,-1
 325 575 l 1,4,-1
 325 686 l 1,5,-1
 426 686 l 1,6,-1
 426 601 l 1,0,-1
193 511 m 1,7,-1
 312 511 l 1,8,-1
 312 436 l 1,9,-1
 193 436 l 1,10,-1
 193 131 l 2,11,12
 193 63 193 63 250 63 c 0,13,14
 276 63 276 63 312 78 c 1,15,-1
 312 8 l 1,16,17
 276 -10 276 -10 219 -10 c 0,18,19
 99 -10 99 -10 99 136 c 2,20,-1
 99 436 l 1,21,-1
 43 436 l 1,22,-1
 43 511 l 1,23,-1
 102 511 l 1,24,-1
 134 674 l 1,25,-1
 193 674 l 1,26,-1
 193 511 l 1,7,-1
EndSplineSet
EndChar

StartChar: tcedilla
Encoding: 355 355 183
Width: 346
GlyphClass: 2
Flags: MW
HStem: -197 51<151.5 172 139 199> -60 43<143 164 143 167> -10 73<231 238> 436 75<43 99 43 102 193 312>
VStem: 99 94<136 436> 143 169<-60 78 -17 78> 216 62<-116 -87.5>
AnchorPoint: "Bottom" 173 0 basechar 0
LayerCount: 2
Fore
SplineSet
193 511 m 1,0,-1
 312 511 l 1,1,-1
 312 436 l 1,2,-1
 193 436 l 1,3,-1
 193 131 l 2,4,5
 193 63 193 63 250 63 c 0,6,7
 276 63 276 63 312 78 c 1,8,-1
 312 8 l 1,9,10
 276 -10 276 -10 219 -10 c 0,11,12
 99 -10 99 -10 99 136 c 2,13,-1
 99 436 l 1,14,-1
 43 436 l 1,15,-1
 43 511 l 1,16,-1
 102 511 l 1,17,-1
 134 674 l 1,18,-1
 193 674 l 1,19,-1
 193 511 l 1,0,-1
143 -17 m 1,20,-1
 167 -17 l 2,21,22
 278 -17 278 -17 278 -106 c 0,23,24
 278 -147 278 -147 246.5 -172 c 128,-1,25
 215 -197 215 -197 173 -197 c 0,26,27
 108 -197 108 -197 68 -175 c 1,28,-1
 77 -126 l 1,29,30
 119 -146 119 -146 150 -146 c 0,31,32
 216 -146 216 -146 216 -101 c 0,33,34
 216 -82 216 -82 201 -71 c 128,-1,35
 186 -60 186 -60 164 -60 c 2,36,-1
 143 -60 l 1,37,-1
 143 -17 l 1,20,-1
EndSplineSet
EndChar

StartChar: tcommaaccent
Encoding: 539 539 184
Width: 346
GlyphClass: 2
Flags: MW
HStem: -151 111<122 163 122 223> -10 73<231 238> 436 75<43 99 43 102 193 312>
VStem: 99 94<136 436> 122 101<-125 -125 -125 -40 -125 -40>
AnchorPoint: "Bottom" 173 0 basechar 0
LayerCount: 2
Fore
SplineSet
193 511 m 1,0,-1
 312 511 l 1,1,-1
 312 436 l 1,2,-1
 193 436 l 1,3,-1
 193 131 l 2,4,5
 193 63 193 63 250 63 c 0,6,7
 276 63 276 63 312 78 c 1,8,-1
 312 8 l 1,9,10
 276 -10 276 -10 219 -10 c 0,11,12
 99 -10 99 -10 99 136 c 2,13,-1
 99 436 l 1,14,-1
 43 436 l 1,15,-1
 43 511 l 1,16,-1
 102 511 l 1,17,-1
 134 674 l 1,18,-1
 193 674 l 1,19,-1
 193 511 l 1,0,-1
223 -125 m 1,20,-1
 194 -250 l 1,21,-1
 141 -250 l 1,22,-1
 163 -151 l 1,23,-1
 122 -151 l 1,24,-1
 122 -40 l 1,25,-1
 223 -40 l 1,26,-1
 223 -125 l 1,20,-1
EndSplineSet
EndChar

StartChar: u
Encoding: 117 117 185
Width: 618
GlyphClass: 2
Flags: MW
HStem: -10 75<248 291.5 530.5 531> 491 20G<78 172 172 172 416 510 510 510>
VStem: 78 94<167 184 184 511> 416 94<207 511>
LayerCount: 2
Fore
SplineSet
510 511 m 1,0,-1
 510 100 l 2,1,2
 510 65 510 65 538 65 c 0,3,4
 560 65 560 65 583 79 c 1,5,-1
 583 10 l 1,6,7
 552 -10 552 -10 509 -10 c 0,8,9
 425.2 -10 425.2 -10 421 74 c 1,10,11
 363 -10 363 -10 254 -10 c 0,12,13
 177 -10 177 -10 127.5 35.5 c 128,-1,14
 78 81 78 81 78 167 c 2,15,-1
 78 511 l 1,16,-1
 172 511 l 1,17,-1
 172 184 l 2,18,19
 172 65 172 65 280 65 c 0,20,21
 334 65 334 65 375 106.5 c 128,-1,22
 416 148 416 148 416 207 c 2,23,-1
 416 511 l 1,24,-1
 510 511 l 1,0,-1
EndSplineSet
EndChar

StartChar: uacute
Encoding: 250 250 186
Width: 618
GlyphClass: 2
Flags: MW
HStem: -10 75<248 291.5 530.5 531> 491 20G<78 172 172 172 416 510 510 510> 575 145<259 443 259 443>
VStem: 78 94<167 184 184 511> 416 94<207 511>
LayerCount: 2
Fore
SplineSet
444 717 m 1,0,-1
 328 575 l 1,1,-1
 259 575 l 1,2,-1
 353 720 l 1,3,-1
 443 720 l 1,4,-1
 444 717 l 1,0,-1
510 511 m 1,5,-1
 510 100 l 2,6,7
 510 65 510 65 538 65 c 0,8,9
 560 65 560 65 583 79 c 1,10,-1
 583 10 l 1,11,12
 552 -10 552 -10 509 -10 c 0,13,14
 425.2 -10 425.2 -10 421 74 c 1,15,16
 363 -10 363 -10 254 -10 c 0,17,18
 177 -10 177 -10 127.5 35.5 c 128,-1,19
 78 81 78 81 78 167 c 2,20,-1
 78 511 l 1,21,-1
 172 511 l 1,22,-1
 172 184 l 2,23,24
 172 65 172 65 280 65 c 0,25,26
 334 65 334 65 375 106.5 c 128,-1,27
 416 148 416 148 416 207 c 2,28,-1
 416 511 l 1,29,-1
 510 511 l 1,5,-1
EndSplineSet
EndChar

StartChar: ucircumflex
Encoding: 251 251 187
Width: 618
GlyphClass: 2
Flags: MW
HStem: -10 75<248 291.5 530.5 531> 491 20G<78 172 172 172 416 510 510 510> 575 145<117 331 117 331 253 466 253 386> 664 56<292 292>
VStem: 78 94<167 184 184 511> 416 94<207 511>
LayerCount: 2
Fore
SplineSet
466 575 m 1,0,-1
 386 575 l 1,1,-1
 292 664 l 1,2,-1
 197 575 l 1,3,-1
 117 575 l 1,4,-1
 253 720 l 1,5,-1
 331 720 l 1,6,-1
 466 575 l 1,0,-1
510 511 m 1,7,-1
 510 100 l 2,8,9
 510 65 510 65 538 65 c 0,10,11
 560 65 560 65 583 79 c 1,12,-1
 583 10 l 1,13,14
 552 -10 552 -10 509 -10 c 0,15,16
 425.2 -10 425.2 -10 421 74 c 1,17,18
 363 -10 363 -10 254 -10 c 0,19,20
 177 -10 177 -10 127.5 35.5 c 128,-1,21
 78 81 78 81 78 167 c 2,22,-1
 78 511 l 1,23,-1
 172 511 l 1,24,-1
 172 184 l 2,25,26
 172 65 172 65 280 65 c 0,27,28
 334 65 334 65 375 106.5 c 128,-1,29
 416 148 416 148 416 207 c 2,30,-1
 416 511 l 1,31,-1
 510 511 l 1,7,-1
EndSplineSet
EndChar

StartChar: udieresis
Encoding: 252 252 188
Width: 618
GlyphClass: 2
Flags: MW
HStem: -10 75<248 291.5 530.5 531> 491 20G<78 172 172 172 416 510 510 510> 622 98<155 245 155 245 343 434>
VStem: 78 94<167 184 184 511> 155 90<622 720> 343 91<622 720> 416 94<207 511>
LayerCount: 2
Fore
SplineSet
245 622 m 1,0,-1
 155 622 l 1,1,-1
 155 720 l 1,2,-1
 245 720 l 1,3,-1
 245 622 l 1,0,-1
434 622 m 1,4,-1
 343 622 l 1,5,-1
 343 720 l 1,6,-1
 434 720 l 1,7,-1
 434 622 l 1,4,-1
510 511 m 1,8,-1
 510 100 l 2,9,10
 510 65 510 65 538 65 c 0,11,12
 560 65 560 65 583 79 c 1,13,-1
 583 10 l 1,14,15
 552 -10 552 -10 509 -10 c 0,16,17
 425.2 -10 425.2 -10 421 74 c 1,18,19
 363 -10 363 -10 254 -10 c 0,20,21
 177 -10 177 -10 127.5 35.5 c 128,-1,22
 78 81 78 81 78 167 c 2,23,-1
 78 511 l 1,24,-1
 172 511 l 1,25,-1
 172 184 l 2,26,27
 172 65 172 65 280 65 c 0,28,29
 334 65 334 65 375 106.5 c 128,-1,30
 416 148 416 148 416 207 c 2,31,-1
 416 511 l 1,32,-1
 510 511 l 1,8,-1
EndSplineSet
EndChar

StartChar: ugrave
Encoding: 249 249 189
Width: 618
GlyphClass: 2
Flags: MW
HStem: -10 75<248 291.5 530.5 531> 491 20G<78 172 172 172 416 510 510 510> 575 145<154 338 154 268>
VStem: 78 94<167 184 184 511> 416 94<207 511>
LayerCount: 2
Fore
SplineSet
338 575 m 1,0,-1
 268 575 l 1,1,-1
 153 717 l 1,2,-1
 154 720 l 1,3,-1
 243 720 l 1,4,-1
 338 575 l 1,0,-1
510 511 m 1,5,-1
 510 100 l 2,6,7
 510 65 510 65 538 65 c 0,8,9
 560 65 560 65 583 79 c 1,10,-1
 583 10 l 1,11,12
 552 -10 552 -10 509 -10 c 0,13,14
 425.2 -10 425.2 -10 421 74 c 1,15,16
 363 -10 363 -10 254 -10 c 0,17,18
 177 -10 177 -10 127.5 35.5 c 128,-1,19
 78 81 78 81 78 167 c 2,20,-1
 78 511 l 1,21,-1
 172 511 l 1,22,-1
 172 184 l 2,23,24
 172 65 172 65 280 65 c 0,25,26
 334 65 334 65 375 106.5 c 128,-1,27
 416 148 416 148 416 207 c 2,28,-1
 416 511 l 1,29,-1
 510 511 l 1,5,-1
EndSplineSet
EndChar

StartChar: uhungarumlaut
Encoding: 369 369 190
Width: 618
GlyphClass: 2
Flags: MW
HStem: -10 75<248 291.5 530.5 531> 491 20G<78 172 172 172 416 510 510 510> 575 145<179 363 179 363 334 334 334 363 274 404>
VStem: 78 94<167 184 184 511> 416 94<207 511>
LayerCount: 2
Fore
SplineSet
364 717 m 1,0,-1
 249 575 l 1,1,-1
 179 575 l 1,2,-1
 274 720 l 1,3,-1
 363 720 l 1,4,-1
 364 717 l 1,0,-1
519 717 m 1,5,-1
 404 575 l 1,6,-1
 334 575 l 1,7,-1
 428 720 l 1,8,-1
 518 720 l 1,9,-1
 519 717 l 1,5,-1
510 511 m 1,10,-1
 510 100 l 2,11,12
 510 65 510 65 538 65 c 0,13,14
 560 65 560 65 583 79 c 1,15,-1
 583 10 l 1,16,17
 552 -10 552 -10 509 -10 c 0,18,19
 425.2 -10 425.2 -10 421 74 c 1,20,21
 363 -10 363 -10 254 -10 c 0,22,23
 177 -10 177 -10 127.5 35.5 c 128,-1,24
 78 81 78 81 78 167 c 2,25,-1
 78 511 l 1,26,-1
 172 511 l 1,27,-1
 172 184 l 2,28,29
 172 65 172 65 280 65 c 0,30,31
 334 65 334 65 375 106.5 c 128,-1,32
 416 148 416 148 416 207 c 2,33,-1
 416 511 l 1,34,-1
 510 511 l 1,10,-1
EndSplineSet
EndChar

StartChar: umacron
Encoding: 363 363 191
Width: 618
GlyphClass: 2
Flags: MW
HStem: -10 75<248 291.5 530.5 531> 491 20G<78 172 172 172 416 510 510 510> 662 74<150 468 150 468>
VStem: 78 94<167 184 184 511> 416 94<207 511>
LayerCount: 2
Fore
SplineSet
468 662 m 1,0,-1
 150 662 l 1,1,-1
 150 736 l 1,2,-1
 468 736 l 1,3,-1
 468 662 l 1,0,-1
510 511 m 1,4,-1
 510 100 l 2,5,6
 510 65 510 65 538 65 c 0,7,8
 560 65 560 65 583 79 c 1,9,-1
 583 10 l 1,10,11
 552 -10 552 -10 509 -10 c 0,12,13
 425.2 -10 425.2 -10 421 74 c 1,14,15
 363 -10 363 -10 254 -10 c 0,16,17
 177 -10 177 -10 127.5 35.5 c 128,-1,18
 78 81 78 81 78 167 c 2,19,-1
 78 511 l 1,20,-1
 172 511 l 1,21,-1
 172 184 l 2,22,23
 172 65 172 65 280 65 c 0,24,25
 334 65 334 65 375 106.5 c 128,-1,26
 416 148 416 148 416 207 c 2,27,-1
 416 511 l 1,28,-1
 510 511 l 1,4,-1
EndSplineSet
EndChar

StartChar: uogonek
Encoding: 371 371 192
Width: 618
GlyphClass: 2
Flags: MW
HStem: -143 47<539.5 561> -10 75<248 291.5> 491 20G<78 172 172 172 416 510 510 510>
VStem: 78 94<167 184 184 511> 416 94<207 511>
LayerCount: 2
Fore
SplineSet
621 -82 m 1,0,-1
 634 -119 l 1,1,2
 594 -143 594 -143 545 -143 c 0,3,4
 448 -143 448 -143 448 -69 c 0,5,6
 448 -39 448 -39 491 -8 c 1,7,8
 425 3 425 3 421 74 c 1,9,10
 363 -10 363 -10 254 -10 c 0,11,12
 177 -10 177 -10 127.5 35.5 c 128,-1,13
 78 81 78 81 78 167 c 2,14,-1
 78 511 l 1,15,-1
 172 511 l 1,16,-1
 172 184 l 2,17,18
 172 65 172 65 280 65 c 0,19,20
 334 65 334 65 375 106.5 c 128,-1,21
 416 148 416 148 416 207 c 2,22,-1
 416 511 l 1,23,-1
 510 511 l 1,24,-1
 510 100 l 2,25,26
 510 65 510 65 538 65 c 0,27,28
 560 65 560 65 583 79 c 1,29,-1
 583 10 l 1,30,31
 564 -3 564 -3 545 -7 c 1,32,33
 510 -32 510 -32 510 -58 c 0,34,35
 510 -96 510 -96 554 -96 c 0,36,37
 574 -96 574 -96 621 -82 c 1,0,-1
EndSplineSet
EndChar

StartChar: uring
Encoding: 367 367 193
Width: 618
GlyphClass: 2
Flags: MW
HStem: -10 75<248 291.5 530.5 531> 491 20G<78 172 172 172 416 510 510 510> 545 47<293.5 324.5 293.5 337> 699 47<293.5 324.5>
VStem: 78 94<167 184 184 511> 208 45<629.5 660.5 629.5 673> 365 45<630.5 660.5> 416 94<207 511>
LayerCount: 2
Fore
SplineSet
237.5 716.5 m 128,-1,1
 267 746 267 746 307.5 746 c 128,-1,2
 348 746 348 746 379 716.5 c 128,-1,3
 410 687 410 687 410 645.5 c 128,-1,4
 410 604 410 604 380.5 574.5 c 128,-1,5
 351 545 351 545 309.5 545 c 128,-1,6
 268 545 268 545 238 574 c 128,-1,7
 208 603 208 603 208 645 c 128,-1,0
 208 687 208 687 237.5 716.5 c 128,-1,1
309 699 m 128,-1,9
 286 699 286 699 269.5 683.5 c 128,-1,10
 253 668 253 668 253 645 c 128,-1,11
 253 622 253 622 269 607 c 128,-1,12
 285 592 285 592 308.5 592 c 128,-1,13
 332 592 332 592 348.5 607.5 c 128,-1,14
 365 623 365 623 365 645.5 c 128,-1,15
 365 668 365 668 348.5 683.5 c 128,-1,8
 332 699 332 699 309 699 c 128,-1,9
510 511 m 1,16,-1
 510 100 l 2,17,18
 510 65 510 65 538 65 c 0,19,20
 560 65 560 65 583 79 c 1,21,-1
 583 10 l 1,22,23
 552 -10 552 -10 509 -10 c 0,24,25
 425.2 -10 425.2 -10 421 74 c 1,26,27
 363 -10 363 -10 254 -10 c 0,28,29
 177 -10 177 -10 127.5 35.5 c 128,-1,30
 78 81 78 81 78 167 c 2,31,-1
 78 511 l 1,32,-1
 172 511 l 1,33,-1
 172 184 l 2,34,35
 172 65 172 65 280 65 c 0,36,37
 334 65 334 65 375 106.5 c 128,-1,38
 416 148 416 148 416 207 c 2,39,-1
 416 511 l 1,40,-1
 510 511 l 1,16,-1
EndSplineSet
EndChar

StartChar: v
Encoding: 118 118 194
Width: 512
GlyphClass: 2
Flags: MW
HStem: 0 120<258 262 258 306 206 262> 491 20G<12 112 112 112 408 500 500 500>
VStem: 12 488<511 511>
LayerCount: 2
Fore
SplineSet
306 0 m 1,0,-1
 206 0 l 1,1,-1
 12 511 l 1,2,-1
 112 511 l 1,3,-1
 258 120 l 1,4,-1
 262 120 l 1,5,-1
 408 511 l 1,6,-1
 500 511 l 1,7,-1
 306 0 l 1,0,-1
EndSplineSet
EndChar

StartChar: w
Encoding: 119 119 195
Width: 811
GlyphClass: 2
Flags: MW
HStem: 0 137<236 240 236 286 188 240 572 576> 357 154<402 406 402 402> 491 20G<20 117 117 117 361 453 453 453 697 789 789 789>
VStem: 20 769<511 511>
LayerCount: 2
Fore
SplineSet
622 0 m 1,0,-1
 524 0 l 1,1,-1
 406 357 l 1,2,-1
 402 357 l 1,3,-1
 286 0 l 1,4,-1
 188 0 l 1,5,-1
 20 511 l 1,6,-1
 117 511 l 1,7,-1
 236 137 l 1,8,-1
 240 137 l 1,9,-1
 361 511 l 1,10,-1
 453 511 l 1,11,-1
 572 137 l 1,12,-1
 576 137 l 1,13,-1
 697 511 l 1,14,-1
 789 511 l 1,15,-1
 622 0 l 1,0,-1
EndSplineSet
EndChar

StartChar: x
Encoding: 120 120 196
Width: 519
GlyphClass: 2
Flags: MW
HStem: 491 20G<28 140 140 140 389 492 492 492>
VStem: 18 483<0 0>
LayerCount: 2
Fore
SplineSet
313 265 m 1,0,-1
 501 0 l 1,1,-1
 389 0 l 1,2,-1
 256 187 l 1,3,-1
 121 0 l 1,4,-1
 18 0 l 1,5,-1
 206 259 l 1,6,-1
 28 511 l 1,7,-1
 140 511 l 1,8,-1
 263 337 l 1,9,-1
 389 511 l 1,10,-1
 492 511 l 1,11,-1
 313 265 l 1,0,-1
EndSplineSet
EndChar

StartChar: y
Encoding: 121 121 197
Width: 512
GlyphClass: 2
Flags: MW
HStem: -186 77<104 125 90.5 155> 491 20G<12 112 112 112 408 500 500 500>
VStem: 12 488<511 511>
LayerCount: 2
Fore
SplineSet
500 511 m 1,0,-1
 309 20 l 1,1,2
 259 -103 259 -103 218 -144.5 c 128,-1,3
 177 -186 177 -186 117 -186 c 0,4,5
 80 -186 80 -186 47 -172 c 1,6,-1
 47 -95 l 1,7,8
 80 -109 80 -109 97 -109 c 0,9,10
 138 -109 138 -109 165.5 -81.5 c 128,-1,11
 193 -54 193 -54 211 5 c 1,12,-1
 12 511 l 1,13,-1
 112 511 l 1,14,-1
 259 134 l 1,15,-1
 263 134 l 1,16,-1
 408 511 l 1,17,-1
 500 511 l 1,0,-1
EndSplineSet
EndChar

StartChar: yacute
Encoding: 253 253 198
Width: 512
GlyphClass: 2
Flags: MW
HStem: -186 77<104 125 90.5 155> 491 20G<12 112 112 112 408 500 500 500> 575 145<222 406 222 406>
VStem: 12 488<511 511>
LayerCount: 2
Fore
SplineSet
407 717 m 1,0,-1
 291 575 l 1,1,-1
 222 575 l 1,2,-1
 316 720 l 1,3,-1
 406 720 l 1,4,-1
 407 717 l 1,0,-1
500 511 m 1,5,-1
 309 20 l 1,6,7
 259 -103 259 -103 218 -144.5 c 128,-1,8
 177 -186 177 -186 117 -186 c 0,9,10
 80 -186 80 -186 47 -172 c 1,11,-1
 47 -95 l 1,12,13
 80 -109 80 -109 97 -109 c 0,14,15
 138 -109 138 -109 165.5 -81.5 c 128,-1,16
 193 -54 193 -54 211 5 c 1,17,-1
 12 511 l 1,18,-1
 112 511 l 1,19,-1
 259 134 l 1,20,-1
 263 134 l 1,21,-1
 408 511 l 1,22,-1
 500 511 l 1,5,-1
EndSplineSet
EndChar

StartChar: ydieresis
Encoding: 255 255 199
Width: 512
GlyphClass: 2
Flags: MW
HStem: -186 77<104 125 90.5 155> 491 20G<12 112 112 112 408 500 500 500> 622 98<120 210 120 210 308 399>
VStem: 120 90<622 720> 308 91<622 720>
LayerCount: 2
Fore
SplineSet
210 622 m 1,0,-1
 120 622 l 1,1,-1
 120 720 l 1,2,-1
 210 720 l 1,3,-1
 210 622 l 1,0,-1
399 622 m 1,4,-1
 308 622 l 1,5,-1
 308 720 l 1,6,-1
 399 720 l 1,7,-1
 399 622 l 1,4,-1
500 511 m 1,8,-1
 309 20 l 1,9,10
 259 -103 259 -103 218 -144.5 c 128,-1,11
 177 -186 177 -186 117 -186 c 0,12,13
 80 -186 80 -186 47 -172 c 1,14,-1
 47 -95 l 1,15,16
 80 -109 80 -109 97 -109 c 0,17,18
 138 -109 138 -109 165.5 -81.5 c 128,-1,19
 193 -54 193 -54 211 5 c 1,20,-1
 12 511 l 1,21,-1
 112 511 l 1,22,-1
 259 134 l 1,23,-1
 263 134 l 1,24,-1
 408 511 l 1,25,-1
 500 511 l 1,8,-1
EndSplineSet
EndChar

StartChar: z
Encoding: 122 122 200
Width: 463
GlyphClass: 2
Flags: MW
HStem: 0 75<165 423 165 423> 436 75<51 285 51 415>
VStem: 36 387<0 38 38 38>
LayerCount: 2
Fore
SplineSet
415 474 m 1,0,-1
 165 75 l 1,1,-1
 423 75 l 1,2,-1
 423 0 l 1,3,-1
 36 0 l 1,4,-1
 36 38 l 1,5,-1
 285 436 l 1,6,-1
 51 436 l 1,7,-1
 51 511 l 1,8,-1
 415 511 l 1,9,-1
 415 474 l 1,0,-1
EndSplineSet
EndChar

StartChar: zacute
Encoding: 378 378 201
Width: 463
GlyphClass: 2
Flags: MW
HStem: 0 75<165 423 165 423> 436 75<51 285 51 415> 575 145<179 363 179 363>
VStem: 36 387<0 38 38 38>
LayerCount: 2
Fore
SplineSet
364 717 m 1,0,-1
 248 575 l 1,1,-1
 179 575 l 1,2,-1
 273 720 l 1,3,-1
 363 720 l 1,4,-1
 364 717 l 1,0,-1
415 474 m 1,5,-1
 165 75 l 1,6,-1
 423 75 l 1,7,-1
 423 0 l 1,8,-1
 36 0 l 1,9,-1
 36 38 l 1,10,-1
 285 436 l 1,11,-1
 51 436 l 1,12,-1
 51 511 l 1,13,-1
 415 511 l 1,14,-1
 415 474 l 1,5,-1
EndSplineSet
EndChar

StartChar: zcaron
Encoding: 382 382 202
Width: 463
GlyphClass: 2
Flags: MW
HStem: 0 75<165 423 165 423> 436 75<51 285 51 415> 575 145<57 271 57 193>
VStem: 36 387<0 38 38 38>
LayerCount: 2
Fore
SplineSet
271 575 m 1,0,-1
 193 575 l 1,1,-1
 57 720 l 1,2,-1
 137 720 l 1,3,-1
 232 631 l 1,4,-1
 326 720 l 1,5,-1
 406 720 l 1,6,-1
 271 575 l 1,0,-1
415 474 m 1,7,-1
 165 75 l 1,8,-1
 423 75 l 1,9,-1
 423 0 l 1,10,-1
 36 0 l 1,11,-1
 36 38 l 1,12,-1
 285 436 l 1,13,-1
 51 436 l 1,14,-1
 51 511 l 1,15,-1
 415 511 l 1,16,-1
 415 474 l 1,7,-1
EndSplineSet
EndChar

StartChar: zdotaccent
Encoding: 380 380 203
Width: 463
GlyphClass: 2
Flags: MW
HStem: 0 75<165 423 165 423> 436 75<51 285 51 415> 604 132<214 250>
VStem: 166 132<652.5 687.5 650.5 689>
LayerCount: 2
Fore
SplineSet
232 736 m 128,-1,1
 260 736 260 736 279 716.5 c 128,-1,2
 298 697 298 697 298 669.5 c 0,3,4
 298 642 298 642 278.5 623 c 128,-1,5
 259 604 259 604 232 604 c 128,-1,6
 205 604 205 604 185.5 623.5 c 128,-1,7
 166 643 166 643 166 670.5 c 0,8,9
 166 698 166 698 185 717 c 128,-1,0
 204 736 204 736 232 736 c 128,-1,1
415 474 m 1,10,-1
 165 75 l 1,11,-1
 423 75 l 1,12,-1
 423 0 l 1,13,-1
 36 0 l 1,14,-1
 36 38 l 1,15,-1
 285 436 l 1,16,-1
 51 436 l 1,17,-1
 51 511 l 1,18,-1
 415 511 l 1,19,-1
 415 474 l 1,10,-1
EndSplineSet
EndChar

StartChar: fi
Encoding: 64257 64257 204
Width: 601
GlyphClass: 3
Flags: MW
HStem: 436 75<47 103 47 103 197 316> 633 87<424 522 424 522> 653 75<237.5 240.5 182.5 271.5>
VStem: 103 94<0 436 0 436 511 580 580 590> 426 94<0 511>
LayerCount: 2
Fore
SplineSet
222 728 m 0,0,1
 279 728 279 728 316 709 c 1,2,-1
 316 640 l 1,3,4
 286 653 286 653 255.5 653 c 0,5,6
 225 653 225 653 211 638.5 c 128,-1,7
 197 624 197 624 197 590 c 2,8,-1
 197 511 l 1,9,-1
 316 511 l 1,10,-1
 316 436 l 1,11,-1
 197 436 l 1,12,-1
 197 0 l 1,13,-1
 103 0 l 1,14,-1
 103 436 l 1,15,-1
 47 436 l 1,16,-1
 47 511 l 1,17,-1
 103 511 l 1,18,-1
 103 580 l 2,19,20
 103 728 103 728 222 728 c 0,0,1
522 633 m 1,21,-1
 424 633 l 1,22,-1
 424 720 l 1,23,-1
 522 720 l 1,24,-1
 522 633 l 1,21,-1
520 0 m 1,25,-1
 426 0 l 1,26,-1
 426 511 l 1,27,-1
 520 511 l 1,28,-1
 520 0 l 1,25,-1
EndSplineSet
Ligature2: "'liga' Standard Ligatures lookup 4 subtable" f i
EndChar

StartChar: fl
Encoding: 64258 64258 205
Width: 607
GlyphClass: 3
Flags: MW
HStem: 436 75<47 103 47 103 197 316> 653 75<237.5 240.5 182.5 271.5> 700 20G<426 520 520 520>
VStem: 103 94<0 436 0 436 511 580 580 590> 426 94<0 720>
LayerCount: 2
Fore
SplineSet
222 728 m 0,0,1
 279 728 279 728 316 709 c 1,2,-1
 316 640 l 1,3,4
 286 653 286 653 255.5 653 c 0,5,6
 225 653 225 653 211 638.5 c 128,-1,7
 197 624 197 624 197 590 c 2,8,-1
 197 511 l 1,9,-1
 316 511 l 1,10,-1
 316 436 l 1,11,-1
 197 436 l 1,12,-1
 197 0 l 1,13,-1
 103 0 l 1,14,-1
 103 436 l 1,15,-1
 47 436 l 1,16,-1
 47 511 l 1,17,-1
 103 511 l 1,18,-1
 103 580 l 2,19,20
 103 728 103 728 222 728 c 0,0,1
520 0 m 1,21,-1
 426 0 l 1,22,-1
 426 720 l 1,23,-1
 520 720 l 1,24,-1
 520 0 l 1,21,-1
EndSplineSet
Ligature2: "'liga' Standard Ligatures lookup 4 subtable" f l
EndChar

StartChar: ordfeminine
Encoding: 170 170 206
Width: 415
GlyphClass: 2
Flags: MW
HStem: 373 46<155 180.5> 522 44<215.5 263> 650 46<193 198 198 215.5>
VStem: 55 57<447.5 488.5 447.5 501.5> 65 57<594 634.5> 263 57<509 522 522 522 566 594 594 601>
LayerCount: 2
Fore
SplineSet
193 696 m 2,0,-1
 198 696 l 2,1,2
 320 696 320 696 320 601 c 2,3,-1
 320 440 l 2,4,5
 320 419 320 419 338 419 c 0,6,7
 344 419 344 419 365 427 c 1,8,-1
 365 385 l 1,9,10
 341 373 341 373 319 373 c 0,11,12
 270 373 270 373 265 429 c 1,13,14
 227 373 227 373 157 373 c 0,15,16
 55 373 55 373 55 462 c 0,17,18
 55 521 55 521 101 543.5 c 128,-1,19
 147 566 147 566 263 566 c 1,20,-1
 263 594 l 2,21,22
 263 650 263 650 192 650 c 0,23,24
 160 650 160 650 141 637.5 c 128,-1,25
 122 625 122 625 122 602 c 2,26,-1
 122 594 l 1,27,-1
 67 594 l 1,28,29
 65 604 65 604 65 608 c 0,30,31
 65 647 65 647 100.5 671.5 c 128,-1,32
 136 696 136 696 193 696 c 2,0,-1
263 509 m 2,33,-1
 263 522 l 1,34,35
 185 522 185 522 148.5 510 c 128,-1,36
 112 498 112 498 112 468.5 c 0,37,38
 112 439 112 439 127.5 429 c 128,-1,39
 143 419 143 419 177 419 c 128,-1,40
 211 419 211 419 237 443.5 c 128,-1,41
 263 468 263 468 263 509 c 2,33,-1
EndSplineSet
EndChar

StartChar: ordmasculine
Encoding: 186 186 207
Width: 392
GlyphClass: 2
Flags: MW
HStem: 373 46<172.5 219.5 172.5 239> 650 46<172.5 219.5>
VStem: 53 57<523 529 529 540 489.5 546 489.5 593> 282 57<529 540 540 546 475 579.5>
LayerCount: 2
Fore
SplineSet
196 696 m 128,-1,1
 263 696 263 696 301 656 c 128,-1,2
 339 616 339 616 339 546 c 2,3,-1
 339 523 l 2,4,5
 339 452 339 452 300.5 412.5 c 128,-1,6
 262 373 262 373 196 373 c 128,-1,7
 130 373 130 373 91.5 412.5 c 128,-1,8
 53 452 53 452 53 523 c 2,9,-1
 53 546 l 2,10,11
 53 616 53 616 91 656 c 128,-1,0
 129 696 129 696 196 696 c 128,-1,1
196 650 m 128,-1,13
 158 650 158 650 134 623 c 128,-1,14
 110 596 110 596 110 540 c 2,15,-1
 110 529 l 2,16,17
 110 473 110 473 134 446 c 128,-1,18
 158 419 158 419 196 419 c 128,-1,19
 234 419 234 419 258 446 c 128,-1,20
 282 473 282 473 282 529 c 2,21,-1
 282 540 l 2,22,23
 282 596 282 596 258 623 c 128,-1,12
 234 650 234 650 196 650 c 128,-1,13
EndSplineSet
EndChar

StartChar: Delta
Encoding: 916 916 208
Width: 622
GlyphClass: 2
Flags: MW
HStem: 0 65<113 509 25 25> 597 89<311 311> 666 20G<259 362 362 362>
VStem: 25 572<0 65 0 65>
LayerCount: 2
Fore
SplineSet
597 65 m 1,0,-1
 597 0 l 1,1,-1
 25 0 l 1,2,-1
 25 65 l 1,3,-1
 259 686 l 1,4,-1
 362 686 l 1,5,-1
 597 65 l 1,0,-1
113 65 m 1,6,-1
 509 65 l 1,7,-1
 311 597 l 1,8,-1
 113 65 l 1,6,-1
EndSplineSet
EndChar

StartChar: Omega
Encoding: 937 937 209
Width: 699
GlyphClass: 2
Flags: MW
HStem: 0 90<45 80 45 309 45 80 620 655> 608 87<342 359 359 409.5>
VStem: 45 264<0 49 0 90 0 90> 67 104<345 370 370 375 217 474.5> 391 264<0 49 49 49> 531 104<297 337 337 370 280.5 375 280.5 458.5>
LayerCount: 2
Fore
SplineSet
342 695 m 2,0,-1
 359 695 l 2,1,2
 488 695 488 695 561.5 612.5 c 128,-1,3
 635 530 635 530 635 370 c 2,4,-1
 635 337 l 2,5,6
 635 168 635 168 536 80 c 1,7,8
 592 86 592 86 620 90 c 1,9,-1
 655 90 l 1,10,-1
 655 0 l 1,11,-1
 391 0 l 1,12,-1
 391 49 l 1,13,14
 463 62 463 62 497 120 c 128,-1,15
 531 178 531 178 531 297 c 2,16,-1
 531 375 l 2,17,18
 531 498 531 498 486.5 553 c 128,-1,19
 442 608 442 608 351 608 c 128,-1,20
 260 608 260 608 215.5 552 c 128,-1,21
 171 496 171 496 171 375 c 2,22,-1
 171 297 l 2,23,24
 171 179 171 179 204.5 121.5 c 128,-1,25
 238 64 238 64 309 49 c 1,26,-1
 309 0 l 1,27,-1
 45 0 l 1,28,-1
 45 90 l 1,29,-1
 80 90 l 1,30,31
 140 82.5 140 82.5 165 80 c 1,32,33
 67 163 67 163 67 345 c 2,34,-1
 67 370 l 2,35,36
 67 526 67 526 139.5 610.5 c 128,-1,37
 212 695 212 695 342 695 c 2,0,-1
EndSplineSet
Position2: "'cpsp' Capital Spacing lookup 0 subtable" dx=5 dy=0 dh=10 dv=0
EndChar

StartChar: mu
Encoding: 956 956 210
Width: 612
GlyphClass: 2
Flags: MW
HStem: -10 75<252 298 534.5 535> 491 20G<82 176 176 176 420 514 514 514>
VStem: 82 94<-161 -32 140.5 184 184 511> 420 94<207 511>
LayerCount: 2
Fore
SplineSet
514 511 m 1,0,-1
 514 100 l 2,1,2
 514 65 514 65 542 65 c 0,3,4
 564 65 564 65 587 79 c 1,5,-1
 587 10 l 1,6,7
 556 -10 556 -10 513 -10 c 0,8,9
 429.2 -10 429.2 -10 425 74 c 1,10,11
 400 36 400 36 357 13 c 128,-1,12
 314 -10 314 -10 262 -10 c 128,-1,13
 210 -10 210 -10 170 15 c 1,14,-1
 176 -32 l 1,15,-1
 176 -161 l 1,16,-1
 82 -161 l 1,17,-1
 82 511 l 1,18,-1
 176 511 l 1,19,-1
 176 184 l 2,20,21
 176 65 176 65 284 65 c 0,22,23
 338 65 338 65 379 106.5 c 128,-1,24
 420 148 420 148 420 207 c 2,25,-1
 420 511 l 1,26,-1
 514 511 l 1,0,-1
EndSplineSet
EndChar

StartChar: pi
Encoding: 960 960 211
Width: 628
GlyphClass: 2
Flags: MW
HStem: 437 74<124.5 604 243 417 243 243 508 595 508 508>
VStem: 152 91<437 437> 417 91<143 152 152 437>
LayerCount: 2
Fore
SplineSet
595 437 m 1,0,-1
 508 437 l 1,1,-1
 508 152 l 2,2,3
 508 46 508 46 523 0 c 1,4,-1
 434 0 l 1,5,6
 417 26 417 26 417 143 c 2,7,-1
 417 437 l 1,8,-1
 243 437 l 1,9,10
 236 261 236 261 196 87 c 0,11,12
 183 29 183 29 171 0 c 1,13,-1
 81 0 l 1,14,15
 143 172 143 172 152 437 c 1,16,17
 69 437 69 437 33 425 c 1,18,-1
 20 482 l 1,19,20
 61 511 61 511 181 511 c 2,21,-1
 604 511 l 1,22,-1
 595 437 l 1,0,-1
EndSplineSet
EndChar

